<?xml version="1.0" standalone="no"?>
<!DOCTYPE svg PUBLIC "-//W3C//DTD SVG 1.1//EN" "http://www.w3.org/Graphics/SVG/1.1/DTD/svg11.dtd" >
<svg xmlns="http://www.w3.org/2000/svg" xmlns:xlink="http://www.w3.org/1999/xlink" version="1.1">
<metadata></metadata>
<defs>
<font id="tenor_sansregular" horiz-adv-x="1232" >
<font-face units-per-em="2048" ascent="1638" descent="-410" />
<missing-glyph horiz-adv-x="716" />
<glyph horiz-adv-x="0" />
<glyph unicode="&#xd;" horiz-adv-x="204" />
<glyph unicode=" "  horiz-adv-x="716" />
<glyph unicode="&#x09;" horiz-adv-x="716" />
<glyph unicode="&#xa0;" horiz-adv-x="716" />
<glyph unicode="!" horiz-adv-x="712" d="M246 86q0 45 32.5 78t77.5 33t78 -33t33 -78t-33 -78t-78 -33t-77.5 33t-32.5 78zM399 274h-96l-63 1160h225z" />
<glyph unicode="&#x22;" horiz-adv-x="706" d="M209 1057h-84l-64 473h207zM582 1057h-78l-64 473h205z" />
<glyph unicode="#" horiz-adv-x="1773" d="M659 944l89 418h129l-91 -418h326l90 420h123l-88 -420h414l-27 -125h-414l-67 -327h413l-28 -125h-412l-92 -412h-123l88 412h-325l-89 -412h-126l88 412h-414l27 125h417l64 327h-418l31 125h415zM692 492h326l69 327h-329z" />
<glyph unicode="$" horiz-adv-x="1280" d="M549 1632v-176q-86 -6 -162 -33.5t-132 -76t-89 -115t-33 -152.5q0 -90 36 -153.5t94.5 -109.5t133 -77.5t152.5 -60.5v-610q-109 8 -173.5 42.5t-99 80t-47 92.5t-14.5 79h-139q2 -80 39 -147.5t99 -116.5t147 -79.5t188 -38.5v-236h149v236q205 16 324 123.5t119 279.5 q0 98 -38 166.5t-100.5 120t-142.5 86.5t-162 65v539q100 -16 168 -70.5t82 -154.5h139q-23 133 -131 214t-258 103v180h-149zM969 322q0 -115 -73 -176.5t-198 -75.5v553q55 -23 104.5 -50.5t86.5 -62.5t58.5 -81t21.5 -107zM283 1130q0 86 67.5 153t198.5 81v-487 q-55 23 -104.5 47t-85 54t-56 66.5t-20.5 85.5z" />
<glyph unicode="%" horiz-adv-x="1519" d="M123 1135q0 51 16.5 108t53 104.5t93 79t136.5 31.5t137 -31.5t94 -79t53.5 -104.5t16.5 -108q0 -66 -21.5 -126.5t-61.5 -105.5t-95.5 -71.5t-122.5 -26.5q-68 0 -123 26.5t-94 71.5t-60.5 105.5t-21.5 126.5zM256 1135q0 -74 16.5 -124t41 -81t54 -44.5t54.5 -13.5 q27 0 55.5 13.5t53 44.5t41 81t16.5 124q0 43 -8.5 88t-26.5 81.5t-50 60.5t-81 24q-47 0 -79 -24t-51.5 -60.5t-27.5 -81.5t-8 -88zM795 299q0 53 16 111.5t53 106.5t94.5 79t137.5 31t137 -31t94 -79t53.5 -106.5t16.5 -111.5q0 -63 -21.5 -121.5t-61.5 -102.5t-95.5 -71 t-122.5 -27q-68 0 -123 27t-95 71t-61.5 102.5t-21.5 121.5zM930 299q0 -74 16.5 -123t42 -79.5t54 -43t53.5 -12.5t54.5 12.5t54 43t41 79.5t16.5 123q0 45 -7.5 92t-27 84t-51 60.5t-80.5 23.5q-47 0 -79 -23.5t-51.5 -60.5t-27.5 -84t-8 -92zM1219 1458l-793 -1483h-121 l789 1483h125z" />
<glyph unicode="&#x26;" horiz-adv-x="1445" d="M1040 123q-125 -92 -224 -119t-183 -27q-125 0 -220.5 34t-160 90.5t-97 128t-32.5 145.5q0 78 29.5 143.5t82 121.5t122 102t151.5 85q-66 92 -112 169t-46 163q0 51 17.5 105.5t55.5 97.5t96.5 70.5t139.5 27.5q63 0 119 -20.5t96.5 -59.5t65.5 -93t25 -122 q0 -86 -58.5 -169t-201.5 -150l407 -537q61 82 94 187.5t39 269.5h160q-10 -111 -42 -199t-70 -155.5t-73.5 -111.5t-54.5 -64l187 -236h-217zM670 1370q-45 0 -77 -15.5t-52.5 -40t-29.5 -55t-9 -61.5q0 -72 45 -140.5t110 -150.5q27 14 59 40t58.5 59.5t44 76.5t17.5 95 q0 27 -8.5 60.5t-27 62t-50 49t-80.5 20.5zM559 756q-150 -78 -206 -154t-56 -168q0 -84 35 -148.5t91 -109.5t124.5 -68.5t136.5 -23.5q16 0 50 3t77 13.5t89 31t89 56.5z" />
<glyph unicode="'" horiz-adv-x="327" d="M209 1057h-86l-62 473h205z" />
<glyph unicode="(" horiz-adv-x="614" d="M573 1395q-66 -59 -102.5 -138t-57 -186.5t-25.5 -247t-5 -319.5t5 -320.5t25.5 -249t57.5 -189.5t102 -138v-56q-88 37 -150.5 107t-103 158t-64.5 187t-35 192.5t-14 174.5t-3 134q0 55 3 136t14 173t35 190.5t64.5 185.5t103 156.5t150.5 108.5v-59z" />
<glyph unicode=")" horiz-adv-x="614" d="M41 -389q63 57 101 137t58.5 187.5t25.5 248t5 318.5q0 180 -6 320.5t-25.5 249t-57.5 188t-101 139.5v55q88 -37 150.5 -106.5t103.5 -157.5t64.5 -187.5t35 -192.5t14.5 -174t3 -134t-3 -134t-14.5 -174.5t-35 -191.5t-64.5 -185t-103.5 -158t-150.5 -108v60z" />
<glyph unicode="*" horiz-adv-x="681" d="M168 899l63 203l-170 127h215l64 205l68 -205h213l-175 -127l68 -203l-174 129z" />
<glyph unicode="+" horiz-adv-x="1818" d="M973 1458v-651h641v-90h-641v-664h-125v664h-643v90h643v651h125z" />
<glyph unicode="," horiz-adv-x="520" d="M190 -279h-67v529h192z" />
<glyph unicode="-" horiz-adv-x="751" d="M629 625v-154h-506v154h506z" />
<glyph unicode="." horiz-adv-x="548" d="M164 88q0 45 32.5 78t77.5 33t78 -33t33 -78t-33 -78t-78 -33t-77.5 33t-32.5 78z" />
<glyph unicode="/" horiz-adv-x="1056" d="M995 1458l-792 -1483h-142l789 1483h145z" />
<glyph unicode="0" horiz-adv-x="1222" d="M123 713q0 59 9 138t30.5 162t57.5 162.5t89 142t127 101.5t172 39t173 -39t129.5 -101.5t91 -142t58 -162.5t31 -162t9.5 -138q0 -129 -29 -259t-89 -236.5t-153.5 -173.5t-220.5 -67t-218 67t-150.5 173.5t-88 236.5t-28.5 259zM328 713q0 -104 8 -219t37.5 -209.5 t85 -155.5t149.5 -61q96 0 153.5 61t87.5 155.5t38 209t8 219.5q0 106 -8 223t-38 212t-87 157.5t-154 62.5q-94 0 -149.5 -62.5t-85 -157.5t-37.5 -212t-8 -223z" />
<glyph unicode="1" horiz-adv-x="653" d="M449 0h-175v1241l-157 -164l-56 58l289 299h99v-1434z" />
<glyph unicode="2" horiz-adv-x="1114" d="M1053 0h-942l387 432q51 61 109.5 133t107.5 152t81.5 166t32.5 176q0 141 -74.5 225t-191.5 84q-70 0 -116 -26.5t-75.5 -70.5t-44 -102.5t-20.5 -121.5h-205q0 86 35 161.5t97.5 131t146.5 87t182 31.5q111 0 199 -31.5t147.5 -87t91 -128t31.5 -152.5 q0 -100 -19.5 -172t-61.5 -138.5t-108.5 -140t-160.5 -176.5l-266 -285h637v-147z" />
<glyph unicode="3" horiz-adv-x="1175" d="M494 807q43 0 99 9t106.5 39t84 85t33.5 145q0 55 -15.5 105.5t-47 90.5t-80.5 63.5t-117 23.5q-43 0 -82 -10t-69.5 -38t-51 -77t-28.5 -125h-183q2 55 23.5 115.5t71 111t129 82t200.5 31.5q111 0 192 -31.5t133 -84t76.5 -122t24.5 -145.5q0 -106 -57 -172.5 t-174 -116.5l-23 -8v-14l23 -4q68 -10 121 -44t91 -82t58.5 -106.5t20.5 -115.5q0 -82 -32 -160t-95.5 -138.5t-158.5 -97t-222 -36.5q-90 -2 -170 24.5t-140.5 74.5t-96.5 111.5t-36 133.5h205q2 -49 21.5 -96.5t53.5 -82t81 -56t106 -21.5q123 0 200 81.5t77 253.5 q0 37 -8.5 90.5t-42 103.5t-105.5 85t-196 35v90z" />
<glyph unicode="4" horiz-adv-x="1120" d="M844 453h194v-109h-194v-344h-166v344h-617l707 1090h76v-981zM221 453h457v706z" />
<glyph unicode="5" horiz-adv-x="1155" d="M362 920q57 23 103.5 34t103.5 11q98 0 182.5 -32t147 -92.5t98 -144.5t35.5 -188q0 -127 -42 -225.5t-114.5 -166t-170 -103.5t-207.5 -36q-94 0 -173 28t-136.5 75t-91.5 112.5t-36 139.5h150q2 -55 22.5 -103.5t56.5 -84t87 -56t117 -20.5q59 0 118.5 23.5t107.5 75.5 t77.5 133t29.5 196q0 162 -86 262t-258 100q-41 0 -112.5 -8t-159.5 -53l182 637h621l-41 -113h-492z" />
<glyph unicode="6" horiz-adv-x="1198" d="M1004 1217q-8 63 -41 109t-82.5 75t-110.5 43t-129 14q-141 0 -239.5 -62.5t-161 -166t-90 -236.5t-27.5 -272q0 -131 18.5 -263t70.5 -238.5t147.5 -174.5t246.5 -68q104 0 190.5 39t148 106.5t96 158t34.5 192.5q0 123 -39 211t-100.5 145.5t-138 85t-152.5 27.5 q-127 0 -203.5 -51t-111.5 -121l-25 -47h-8q0 143 13.5 262t50 204t102 132t168.5 47q78 0 133 -40t67 -111h173zM317 459q0 106 27 181t69 121t93 67.5t102 21.5q45 0 94.5 -18.5t90.5 -63.5t66.5 -121t25.5 -188q0 -123 -29 -200t-72 -120t-91 -57t-87 -14 q-49 0 -101 21.5t-93 69.5t-68 122t-27 178z" />
<glyph unicode="7" horiz-adv-x="1087" d="M1026 1434h-965v-113h750l-231 -569h-228v-88h193l-269 -664h170l269 664h209v88h-174z" />
<glyph unicode="8" horiz-adv-x="1198" d="M446 772q-72 8 -124 41t-87.5 79t-53 99t-17.5 107q0 57 22.5 120.5t73.5 117t133 88t203 34.5q119 0 202 -34.5t134 -88t74.5 -117t23.5 -120.5q0 -53 -17.5 -106.5t-53 -99.5t-88 -79t-121.5 -41v-10q76 -4 136 -38t102 -86t64.5 -115.5t22.5 -127.5 q0 -76 -29.5 -150.5t-89 -134t-149.5 -96.5t-211 -37t-210 37t-147.5 96.5t-87 134t-28.5 150.5q0 63 22.5 127t63.5 116t101.5 86t135.5 38v10zM596 797q51 0 99 17t86 53t60.5 88.5t22.5 123.5q0 86 -27.5 142.5t-68.5 88t-87 45t-85 13.5t-84 -13.5t-85 -45t-66.5 -88 t-26.5 -142.5q0 -72 22.5 -124t59.5 -88t84 -53t96 -17zM596 725q-61 0 -112.5 -23.5t-87.5 -65.5t-55 -98.5t-19 -121.5q0 -160 74.5 -254t199.5 -94q129 0 205 94t76 254q0 66 -19.5 122t-56.5 98t-89.5 65.5t-115.5 23.5z" />
<glyph unicode="9" horiz-adv-x="1198" d="M367 219q12 -72 67 -111.5t133 -39.5q102 0 168 47t102.5 132t50 203.5t13.5 262.5h-8l-19 -47q-18 -47 -54 -79t-81 -52.5t-95 -28.5t-99 -8q-70 0 -144.5 26.5t-136 84t-101.5 144.5t-40 210q0 100 35 190t96 157.5t147 107.5t191 40q152 0 247 -67.5t147 -174 t70.5 -239.5t18.5 -262q0 -139 -27.5 -272.5t-90 -237t-161 -166t-239.5 -62.5q-68 0 -129 14.5t-110.5 43t-82 75t-40.5 109.5h172zM881 977q0 104 -27 178t-68 122t-93 69.5t-101 21.5q-39 0 -87 -14.5t-91 -57.5t-72 -119.5t-29 -199.5q0 -115 26 -189.5t66.5 -119.5 t89 -63.5t95.5 -18.5q51 0 102 21.5t93 67.5t69 121t27 181z" />
<glyph unicode=":" horiz-adv-x="466" d="M123 86q0 -45 32.5 -78t77.5 -33t78 33t33 78t-32.5 78t-78.5 33q-45 0 -77.5 -33t-32.5 -78zM123 936q0 -45 32.5 -78t77.5 -33t78 33t33 78t-32.5 78t-78.5 33q-45 0 -77.5 -33t-32.5 -78z" />
<glyph unicode=";" horiz-adv-x="466" d="M322 250h-193v-529h68zM123 936q0 -45 32.5 -78t77.5 -33t78 33t33 78t-32.5 78t-78.5 33q-45 0 -77.5 -33t-32.5 -78z" />
<glyph unicode="&#x3c;" horiz-adv-x="1601" d="M123 674l1323 -559l33 90l-1076 469l1076 475l-33 90z" />
<glyph unicode="=" horiz-adv-x="1818" d="M205 457h1409v127h-1409v-127zM205 973v-125h1409v125h-1409z" />
<glyph unicode="&#x3e;" horiz-adv-x="1599" d="M1477 674l-1321 565l-33 -90l1075 -475l-1075 -469l33 -90z" />
<glyph unicode="?" horiz-adv-x="1062" d="M664 526q-33 -41 -72 -73.5t-86 -32.5q-25 0 -50.5 23.5t-25.5 64.5q0 55 32 106.5t79 101.5t103 100t103.5 105.5t79 118t31.5 134.5q0 51 -15.5 102t-53 91t-103 65.5t-166.5 25.5q-78 0 -136 -19.5t-98 -54t-59.5 -82t-21.5 -100.5h143v12q0 37 15.5 69t42 54.5 t59.5 34.5t67 12q33 0 67 -12t61.5 -33.5t44 -51.5t16.5 -66q0 -63 -29.5 -115.5t-74 -100t-95.5 -93.5t-97 -95t-78 -104.5t-36 -124.5v-21q0 -47 14.5 -89t43 -73.5t71.5 -50t103 -18.5q51 0 111.5 32.5t107.5 90.5zM403 86q0 -45 33 -78t78 -33t78 33t33 78t-33 78 t-78 33t-78 -33t-33 -78z" />
<glyph unicode="@" horiz-adv-x="2107" d="M1616 1098h-176l-43 -127q-33 49 -69 76.5t-69.5 41t-63.5 17.5t-50 4q-121 0 -225.5 -47t-182.5 -129t-122 -189.5t-44 -228.5q0 -109 32 -185.5t84 -125.5t118.5 -71.5t136.5 -22.5q72 0 136.5 27.5t140.5 86.5q29 -45 62.5 -71.5t68 -41t66.5 -18.5t57 -4 q109 0 201.5 48t162.5 133t109 199t39 243q0 86 -12.5 172t-43.5 168q-37 94 -108.5 188t-174 170t-235.5 122t-293 46q-100 0 -199.5 -13.5t-191.5 -47.5q-141 -55 -253 -149.5t-190.5 -214.5t-119.5 -260t-41 -284q0 -178 65.5 -353t187.5 -315.5t297 -226.5t396 -86 q57 0 126 6.5t146.5 29t163.5 64.5t183 113l-48 60q-23 -20 -69.5 -54t-119.5 -66t-169 -54.5t-219 -22.5q-201 0 -361.5 79t-272.5 207t-172 289.5t-60 327.5q0 160 48 296t127 241.5t178 181.5t204 117q78 31 160.5 45t166.5 14q188 0 342 -60.5t261.5 -167t166 -250.5 t58.5 -312q0 -123 -41 -223.5t-102.5 -173t-134 -111.5t-138.5 -39q-12 0 -29.5 5t-34 19.5t-27.5 41t-11 69.5q0 23 9 65t32 115zM1202 322q-16 -23 -39.5 -46.5t-54.5 -43t-67.5 -32t-79.5 -12.5q-94 0 -139.5 70t-45.5 180q0 127 33 237.5t84 191.5t115.5 127t130.5 46 q78 0 135 -56t74 -148z" />
<glyph unicode="A" horiz-adv-x="1499" d="M1042 422l197 -422h199l-668 1434h-102l-607 -1434h95l180 422h706zM999 514h-624l295 690h8z" />
<glyph unicode="B" horiz-adv-x="1353" d="M246 0h514q137 0 231 36t151.5 93t83 130t25.5 147q0 117 -50 186.5t-119.5 106t-143.5 49t-119 14.5v8q72 0 135.5 27.5t111.5 71.5t76.5 102.5t28.5 124.5q0 57 -24.5 116.5t-74.5 108.5t-129 81t-185 32h-512v-1434zM432 90v627h225q100 0 174 -26.5t122 -72 t72 -104.5t24 -125q0 -72 -26 -127t-69 -94t-101 -58.5t-124 -19.5h-297zM432 807v536h250q80 0 136 -22.5t92 -59t52.5 -84t16.5 -94.5q0 -59 -23.5 -110t-65.5 -88t-96.5 -57.5t-115.5 -20.5h-246z" />
<glyph unicode="C" horiz-adv-x="1554" d="M1452 264q-209 -197 -496 -196q-160 0 -282.5 55t-204.5 147t-124 213t-42 252q0 139 44 255t124 200t189.5 131t238.5 47q88 0 161 -20.5t129 -53t92 -74.5t50 -85h152q-31 70 -79 129t-120 102t-168 67.5t-219 24.5q-178 0 -324.5 -51t-251 -146.5t-162 -229.5 t-57.5 -300q0 -143 46.5 -279.5t142.5 -242t245.5 -170t356.5 -64.5q131 0 234.5 25t180 60.5t128 76.5t77.5 72z" />
<glyph unicode="D" horiz-adv-x="1566" d="M266 0v1434h471q170 0 311.5 -54.5t243 -149.5t157.5 -226.5t56 -282.5q0 -158 -58 -290t-159.5 -228.5t-237 -149.5t-288.5 -53h-496zM453 90h225q168 0 285.5 56.5t193.5 146.5t111 201.5t35 222.5q0 123 -41 236.5t-120 200.5t-196 138t-268 51h-225v-1253z" />
<glyph unicode="E" d="M246 1434v-1434h925v113h-739v600h635v94h-635v514h739v113h-925z" />
<glyph unicode="F" d="M246 1434v-1434h186v713h635v94h-635v514h739v113h-925z" />
<glyph unicode="G" horiz-adv-x="1673" d="M1550 639h-405v-84h229v-371q-92 -59 -188 -87.5t-219 -28.5q-162 0 -283 49t-201 136t-119.5 207t-39.5 263q0 141 37.5 260t113.5 205t185.5 133t254.5 47q96 0 180.5 -20.5t150 -53t107.5 -74.5t54 -85h147q-18 45 -62 101t-120 105.5t-187.5 83t-262.5 33.5 q-174 0 -320.5 -49t-253 -141t-166 -226.5t-59.5 -304.5q0 -145 46 -281.5t141.5 -244t242.5 -172t352 -64.5q154 0 272.5 34t196.5 75v-84h176v639z" />
<glyph unicode="H" horiz-adv-x="1722" d="M432 713h858v-713h187v1434h-187v-627h-858v627h-186v-1434h186v713z" />
<glyph unicode="I" horiz-adv-x="841" d="M328 1434v-1434h186v1434h-186z" />
<glyph unicode="J" horiz-adv-x="1069" d="M637 1434v-1035q0 -49 -3 -107.5t-23.5 -108.5t-62.5 -83.5t-120 -33.5q-68 0 -112 24.5t-69.5 61t-36.5 78.5t-11 75h-179q4 -158 102.5 -244t295.5 -86q141 0 223 42t122 106.5t50 140.5t10 142v1028h-186z" />
<glyph unicode="K" horiz-adv-x="1482" d="M246 0h186v504l232 248l544 -752h213l-639 879l521 555h-103l-768 -807v807h-186v-1434z" />
<glyph unicode="L" d="M246 0v1434h186v-1321h739v-113h-925z" />
<glyph unicode="M" horiz-adv-x="2101" d="M385 1434h-139v-1434h90v1169h8l633 -1194h37l647 1186h8v-1161h186v1434h-141l-663 -1231h-9z" />
<glyph unicode="N" horiz-adv-x="1740" d="M1401 1434v-1096h-8l-1137 1120h-10v-1458h94v1096h8l1137 -1121h10v1459h-94z" />
<glyph unicode="O" horiz-adv-x="1771" d="M102 717q0 -115 44 -245t138.5 -240.5t240 -183.5t347.5 -73q137 0 249 34t201 91.5t154.5 132t107.5 157.5t63.5 167t21.5 160q0 115 -47 245t-145.5 240.5t-249 183t-355.5 72.5q-203 0 -348 -71.5t-239.5 -181t-138.5 -240.5t-44 -248zM303 717q0 143 44 263t121 206 t181.5 134t227.5 48q121 0 228 -48t188 -134t128 -206t47 -263t-47 -263t-128 -206t-188.5 -134t-227.5 -48q-123 0 -227.5 48t-181.5 134t-121 206t-44 263z" />
<glyph unicode="P" horiz-adv-x="1255" d="M432 598q53 -14 114.5 -23.5t135.5 -9.5q125 0 221 35t160.5 95.5t97.5 139t33 169.5q0 86 -28.5 164.5t-87 137t-146.5 93.5t-207 35h-479v-1434h186v598zM432 1343h215q86 0 151.5 -30.5t108.5 -80.5t64.5 -112.5t21.5 -124.5q0 -59 -19.5 -119.5t-62.5 -109.5 t-108.5 -80t-157.5 -31q-63 0 -116.5 5.5t-96.5 21.5v661z" />
<glyph unicode="Q" horiz-adv-x="1830" d="M1382 -180l156 55l-195 203q100 59 172 138t117 165t65.5 173t20.5 165q0 117 -46 247t-143 239.5t-248 181t-361 71.5q-209 0 -357.5 -71.5t-244 -180t-140.5 -239.5t-45 -248q0 -152 57.5 -287t162 -236.5t248.5 -161t319 -59.5q70 0 137 9.5t133 31.5zM1100 334 l-129 -84l145 -150q-53 -20 -106.5 -27t-108.5 -7q-113 0 -215 44t-180 129t-124 205.5t-46 274.5q0 145 46 265t125 205t185.5 132t227.5 47q125 0 233.5 -47t188 -132t125.5 -205t46 -265q0 -39 -5 -101.5t-29.5 -137t-76.5 -154.5t-147 -154z" />
<glyph unicode="R" horiz-adv-x="1470" d="M246 1434v-1434h186v633h90q57 0 95 -10.5t69 -35t57.5 -63.5t63.5 -96l162 -240q31 -47 60.5 -86t64 -66.5t79 -44t105.5 -16.5q45 0 73.5 4.5t57.5 20.5v76q-10 -2 -20.5 -3t-20.5 -1q-43 0 -75.5 12t-61.5 35.5t-55.5 57.5t-55.5 77q-86 125 -133 199.5t-74.5 115.5 t-45 59.5t-42.5 30.5l-20 11v8q98 6 168.5 43t116 92t66 119.5t20.5 126.5q0 55 -21.5 120.5t-74 122t-142.5 94.5t-227 38h-465zM432 1343h207q78 0 140.5 -22.5t107.5 -62t68.5 -95t23.5 -121.5q0 -55 -21.5 -111.5t-64.5 -102.5t-105.5 -74.5t-144.5 -28.5h-211v618z" />
<glyph unicode="S" horiz-adv-x="1280" d="M76 362q4 -88 46 -159.5t114.5 -121.5t171 -78t215.5 -28q119 0 214 29t162.5 82t104.5 129t37 168q0 127 -63.5 208t-159 135t-207 91t-206.5 78t-158.5 94t-63.5 141q0 49 21.5 92.5t63.5 75t103 51t141 19.5q133 0 226.5 -56.5t109.5 -176.5h139q-12 76 -55 136 t-108.5 102t-148.5 63.5t-173 21.5q-94 0 -179 -24.5t-149.5 -71.5t-102.5 -119t-38 -164q0 -121 61.5 -194.5t154.5 -122.5t201.5 -84t202 -79t155 -107.5t61.5 -169.5q0 -133 -97.5 -194.5t-259.5 -61.5q-129 0 -206.5 33.5t-118.5 80.5t-55.5 97.5t-16.5 84.5h-139z" />
<glyph unicode="T" horiz-adv-x="1366" d="M776 0v1321h549v113h-1284v-113h549v-1321h186z" />
<glyph unicode="U" horiz-adv-x="1474" d="M164 1434v-881q0 -84 16.5 -185.5t77.5 -188.5t182 -145.5t330 -58.5q131 0 232.5 41t170 113t103.5 167t35 204v934h-90v-867q0 -45 -2 -91t-12.5 -92t-32 -91t-62.5 -90q-74 -80 -166 -108.5t-192 -28.5q-86 0 -152.5 26.5t-126.5 79.5q-47 41 -71.5 82t-37 81 t-14.5 81t-2 82v936h-186z" />
<glyph unicode="V" horiz-adv-x="1427" d="M61 1434l601 -1434h122l582 1434h-106l-478 -1180h-8l-491 1180h-222z" />
<glyph unicode="W" horiz-adv-x="2162" d="M61 1434l508 -1434h123l391 1120h11l379 -1120h120l508 1434h-94l-424 -1196h-8l-399 1196h-89l-407 -1190h-8l-422 1190h-189z" />
<glyph unicode="X" horiz-adv-x="1472" d="M291 1434h-230l560 -719l-549 -715h110l490 641h8l500 -641h231l-620 793l489 641h-109l-432 -564h-10z" />
<glyph unicode="Y" horiz-adv-x="1308" d="M61 1434l496 -891v-543h186v561l504 873h-110l-439 -756h-8l-418 756h-211z" />
<glyph unicode="Z" horiz-adv-x="1363" d="M113 1434v-113h866l-918 -1321h1242v113h-945l910 1321h-1155z" />
<glyph unicode="[" horiz-adv-x="624" d="M205 -451h358v101h-178v1685h178v99h-358v-1885z" />
<glyph unicode="\" horiz-adv-x="1056" d="M207 1458l788 -1483h-141l-793 1483h146z" />
<glyph unicode="]" horiz-adv-x="624" d="M420 -451h-359v101h179v1685h-179v99h359v-1885z" />
<glyph unicode="^" horiz-adv-x="892" d="M446 1673l324 -129v74l-278 180h-86l-283 -180v-74z" />
<glyph unicode="_" horiz-adv-x="1554" d="M61 -451h1432v148h-1432v-148z" />
<glyph unicode="`" horiz-adv-x="456" d="M260 1458h-227l317 -260h80z" />
<glyph unicode="a" horiz-adv-x="1105" d="M541 1047q150 0 231.5 -42t119.5 -110t44 -156t6 -180v-559h-166v100q-59 -57 -151.5 -91t-184.5 -34q-88 0 -155.5 31t-112.5 80t-67.5 110.5t-22.5 125.5q0 66 24.5 131t73.5 117.5t121 85t164 32.5t175 -36t136 -101v88q0 168 -50 250t-183 82q-57 0 -100.5 -14.5 t-77 -40t-62.5 -63.5t-57 -85l-107 106q29 31 60.5 62t78 55.5t110 40t153.5 15.5zM776 406q-10 25 -29.5 57.5t-50 63t-73.5 52t-103 21.5q-59 0 -108.5 -23.5t-83 -61.5t-52 -89t-18.5 -107q0 -66 23.5 -113.5t60.5 -81.5t82 -50.5t86 -16.5q39 0 79 14.5t75.5 40 t64.5 60.5t47 76v158z" />
<glyph unicode="b" horiz-adv-x="1236" d="M164 1434h174v-578h8q20 53 54 89t77 58.5t91 33t98 10.5q102 0 188 -38t148.5 -108t97.5 -168t35 -219q0 -123 -35 -222t-97.5 -170t-148.5 -109t-188 -38q-244 0 -320 191h-8v-166h-174v1434zM338 410q0 -68 21.5 -128.5t60.5 -104.5t91 -69.5t112 -25.5 q63 0 121.5 23.5t101.5 74.5t68.5 133t25.5 197q0 117 -25.5 199t-69.5 134t-101.5 75.5t-120.5 23.5q-57 0 -108.5 -23.5t-90.5 -69.5t-62.5 -111.5t-23.5 -149.5v-178z" />
<glyph unicode="c" horiz-adv-x="1114" d="M678 82q-74 0 -142.5 22.5t-122 72.5t-85 133t-31.5 204q0 125 35 212t87 139.5t115.5 76t120.5 23.5q94 0 164 -49.5t92 -120.5h142q-20 74 -65.5 122t-104 77.5t-125 41t-127.5 11.5q-129 0 -227.5 -42t-166 -114t-101.5 -168t-34 -205q0 -115 37 -214t105.5 -172 t165 -115t217.5 -42q135 0 236.5 45.5t170.5 98.5l-59 78q-72 -59 -142.5 -87t-154.5 -28z" />
<glyph unicode="d" horiz-adv-x="1236" d="M1073 1434h-174v-578h-8q-20 53 -54 89t-77 58.5t-91 33t-98 10.5q-102 0 -188 -38t-148.5 -108t-97.5 -168t-35 -219q0 -123 35 -222t97.5 -170t148.5 -109t188 -38q242 0 320 191h8v-166h174v1434zM899 410q0 -68 -22.5 -128.5t-60.5 -104.5t-90 -69.5t-112 -25.5 q-66 0 -123 23.5t-100 74.5t-68.5 133t-25.5 197q0 117 25.5 199t69.5 134t101.5 75.5t120.5 23.5q57 0 108.5 -23.5t90.5 -69.5t62.5 -111.5t23.5 -149.5v-178z" />
<glyph unicode="e" horiz-adv-x="1175" d="M1073 467v43q0 137 -39 237.5t-105.5 166t-154.5 98t-186 32.5q-104 0 -192.5 -35.5t-154 -104t-102.5 -166t-37 -220.5q0 -102 32 -199.5t96.5 -174t164 -123t234.5 -46.5q131 0 241.5 46.5t192.5 132.5l-66 65q-43 -37 -80.5 -67.5t-76.5 -51t-81 -32t-93 -11.5 q-57 0 -122 17.5t-120 62.5t-92 125t-37 205h778zM295 549q0 82 17.5 158.5t53 136t91 95.5t131.5 36q145 0 226 -113.5t81 -312.5h-600z" />
<glyph unicode="f" horiz-adv-x="743" d="M61 1024v-82h179v-942h174v942h248v82h-248v172q0 25 2 58.5t12 63.5t31.5 50.5t60.5 20.5q49 0 81 -41t52 -84l90 96q-49 49 -101 73.5t-118 24.5q-53 0 -104 -18.5t-91 -56t-64.5 -97t-24.5 -139.5v-123h-179z" />
<glyph unicode="g" d="M895 -86q0 -94 -22.5 -159.5t-62.5 -106.5t-94 -59.5t-116 -18.5q-109 0 -175.5 55.5t-121.5 147.5l-113 -103q14 -18 45 -48t78 -59.5t113 -51t149 -21.5q156 0 252.5 44t149.5 118t72.5 169t19.5 197v1006h-174v-160h-8q-25 86 -106 134.5t-212 48.5q-104 0 -190 -38 t-147.5 -108t-95.5 -168t-34 -219q0 -123 34 -222t95.5 -170t146.5 -109t189 -38q115 0 200 45.5t120 143.5h8v-250zM895 436q0 -86 -23.5 -151.5t-62.5 -110.5t-90 -68.5t-107 -23.5q-49 0 -105 17.5t-104.5 64.5t-80 133t-31.5 221q0 143 39 228t91 130.5t106.5 58.5 t84.5 13q68 0 121 -29.5t89 -80t54.5 -116t18.5 -134.5v-152z" />
<glyph unicode="h" horiz-adv-x="1165" d="M164 1434v-1434h174v592q0 41 6 100.5t34 114.5t83 95t153 40q70 0 112 -25.5t64.5 -68.5t29.5 -100.5t7 -118.5v-629h174v676q0 115 -32.5 187.5t-81.5 113.5t-107.5 55.5t-111.5 14.5q-72 0 -151 -28t-148 -106l-23 -28h-8v549h-174z" />
<glyph unicode="i" horiz-adv-x="630" d="M229 1024v-1024h174v1024h-174zM205 1348q0 -45 32.5 -78t77.5 -33t78 33t33 78t-33 77.5t-78 32.5t-77.5 -32.5t-32.5 -77.5z" />
<glyph unicode="j" horiz-adv-x="595" d="M231 1024v-1212q0 -47 -4 -91.5t-17 -79t-39 -55t-67 -20.5q-51 0 -76.5 24.5t-47.5 77.5l-103 -80q45 -59 105.5 -79.5t126.5 -20.5q45 0 97 16.5t97 62.5t75 127t30 210v1120h-177zM211 1348q0 -45 31.5 -78t79.5 -33q45 0 77.5 33t32.5 78t-32.5 77.5t-77.5 32.5 q-47 0 -79 -32.5t-32 -77.5z" />
<glyph unicode="k" horiz-adv-x="1097" d="M338 1434h-174v-1434h174v385l119 121l411 -506h230l-514 631l391 393h-133l-504 -508v918z" />
<glyph unicode="l" horiz-adv-x="583" d="M379 1434h-174v-1434h174v1434z" />
<glyph unicode="m" horiz-adv-x="1759" d="M338 0v584q0 37 6 97t31.5 118.5t79 100.5t149.5 42q70 0 108 -30.5t56 -75.5t21.5 -94.5t3.5 -86.5v-655h174v584q0 45 8 107.5t34.5 117.5t77 94t136.5 39q63 0 102 -18.5t60.5 -55.5t28.5 -90t7 -123v-655h174v715q0 47 -10 105.5t-44 108.5t-98.5 84t-170.5 34 q-31 0 -72 -6.5t-86 -27t-87 -59.5t-73 -102h-14q-12 33 -34.5 66.5t-57.5 62.5t-83 47.5t-116 18.5q-31 0 -74 -7.5t-86 -28t-80.5 -57t-62.5 -96.5h-8v166h-174v-1024h174z" />
<glyph unicode="n" horiz-adv-x="1189" d="M1020 0v664q0 37 -6 101t-40 126.5t-107.5 109t-209.5 46.5q-59 2 -132.5 -24t-145.5 -97l-33 -33h-8v131h-174v-1024h174v633q0 80 22.5 137t61.5 96t89 57.5t103 18.5q86 0 133.5 -34t69 -79t25.5 -90t4 -65v-674h174z" />
<glyph unicode="o" horiz-adv-x="1265" d="M1163 510q0 -106 -36.5 -203.5t-105.5 -171.5t-166 -117t-218 -43q-123 0 -222.5 44t-168 118t-106.5 171.5t-38 201.5q0 106 38 203.5t106.5 171t168 118t222.5 44.5q121 0 218 -44.5t166 -118t105.5 -171t36.5 -203.5zM969 510q0 143 -31 232t-80 138.5t-108.5 67 t-114.5 17.5t-114.5 -17.5t-110 -67t-82 -138.5t-31.5 -232q0 -141 31.5 -230.5t82 -138.5t110 -66.5t114.5 -17.5t114.5 17.5t108.5 66.5t80 138.5t31 230.5z" />
<glyph unicode="p" horiz-adv-x="1236" d="M164 -512h174v680h8q20 -53 54 -90t77 -59.5t91 -33t98 -10.5q102 0 188 38t148.5 107.5t97.5 169t35 220.5q0 123 -35 221t-97.5 169t-148.5 109t-188 38q-244 0 -320 -189h-8v166h-174v-1536zM338 614q0 68 21.5 128.5t60.5 104.5t91 69.5t112 25.5q63 0 121.5 -23.5 t101.5 -74.5t68.5 -133t25.5 -197q0 -117 -25.5 -199t-69.5 -134t-101.5 -75.5t-120.5 -23.5q-57 0 -108.5 23.5t-90.5 69.5t-62.5 111.5t-23.5 149.5v178z" />
<glyph unicode="q" horiz-adv-x="1236" d="M1073 -512h-174v680h-8q-20 -53 -54 -90t-77 -59.5t-91 -33t-98 -10.5q-102 0 -188 38t-148.5 107.5t-97.5 169t-35 220.5q0 123 35 221t97.5 169t148.5 109t188 38q244 0 320 -189h8v166h174v-1536zM899 614q0 68 -22.5 128.5t-60.5 104.5t-90 69.5t-112 25.5 q-66 0 -123 -23.5t-100 -74.5t-68.5 -133t-25.5 -197q0 -117 25.5 -199t69.5 -134t101.5 -75.5t120.5 -23.5q57 0 108.5 23.5t90.5 69.5t62.5 111.5t23.5 149.5v178z" />
<glyph unicode="r" horiz-adv-x="782" d="M164 1024v-1024h174v618q0 84 19.5 142.5t50 95.5t67.5 53.5t72 16.5q47 0 87 -31t58 -57l70 127q-18 25 -44 41t-51.5 25t-47 12.5t-31.5 3.5q-86 0 -143.5 -47.5t-94.5 -139.5h-12v164h-174z" />
<glyph unicode="s" horiz-adv-x="983" d="M817 791q0 55 -28.5 102t-79 81t-117 53.5t-141.5 19.5q-72 0 -134.5 -18.5t-108.5 -55.5t-72.5 -91.5t-26.5 -125.5q0 -98 45 -155.5t112.5 -92.5t146.5 -56.5t146.5 -47t112.5 -64.5t45 -107q0 -29 -9.5 -59.5t-34 -56t-67.5 -43t-108 -17.5q-82 0 -138.5 26 t-92.5 61.5t-51 72.5t-15 62h-133q0 -57 26.5 -111.5t80.5 -97.5t133 -69t184 -26q188 0 283 83t95 218q0 98 -46 158t-115.5 95.5t-150.5 58t-150.5 47t-115.5 59.5t-46 99q0 27 10 56.5t34.5 55t65.5 43t103 17.5q61 0 106 -17.5t76 -43t45 -56.5t14 -57h117z" />
<glyph unicode="t" horiz-adv-x="768" d="M61 942v82h179v315h174v-315h248v-82h-248v-680q0 -25 2 -56.5t12 -59t31.5 -46t60.5 -18.5q49 0 82 37t53 80l97 -99q-100 -100 -228 -100q-53 0 -104 18.5t-91 56.5t-64.5 97t-24.5 139v631h-179z" />
<glyph unicode="u" horiz-adv-x="1189" d="M164 1024v-666q0 -37 7 -101t42 -126.5t109.5 -109t209.5 -46.5q59 -2 130 24t143 97l33 33h8v-129h174v1024h-174v-635q0 -80 -22.5 -137t-59.5 -95t-86 -56.5t-103 -18.5q-86 0 -134 34t-71.5 79t-27.5 89t-4 64v676h-174z" />
<glyph unicode="v" horiz-adv-x="1044" d="M41 1024l426 -1024h123l414 1024h-97l-332 -821h-12l-342 821h-180z" />
<glyph unicode="w" horiz-adv-x="1527" d="M41 1024l354 -1024h111l237 686h9l266 -686h96l373 1024h-107l-278 -766h-8l-291 766h-41l-268 -772h-9l-266 772h-178z" />
<glyph unicode="x" horiz-adv-x="1087" d="M504 424l313 -424h209l-418 561l344 463h-118l-285 -383l-281 383h-207l383 -520l-381 -504h121z" />
<glyph unicode="y" horiz-adv-x="1032" d="M561 240l-354 784h-187l459 -1012l-108 -266q-18 -47 -48 -75.5t-69 -28.5q-37 0 -70.5 21.5t-52.5 62.5l-90 -170q39 -35 86 -51.5t88 -16.5q57 0 100 28.5t76 75t57.5 102.5t47.5 111l495 1219h-100l-322 -784h-8z" />
<glyph unicode="z" horiz-adv-x="1003" d="M74 1024v-82h616l-649 -942h895v82h-643l649 942h-868z" />
<glyph unicode="{" horiz-adv-x="729" d="M123 596q31 -4 65.5 -17.5t64.5 -47t50.5 -91t20.5 -149.5q0 -72 -4.5 -130.5t-4.5 -117.5q0 -47 10.5 -110.5t46.5 -122t105.5 -100.5t190.5 -46v121q-55 12 -86 38.5t-47.5 57.5t-20.5 62.5t-4 56.5q0 63 6 125.5t6 122.5q0 158 -62.5 253t-199.5 158v17 q137 63 199.5 159.5t62.5 254.5q0 66 -6 127t-6 126q0 23 4 55t20.5 62.5t47 57t86.5 41.5v118q-61 -2 -124 -19.5t-113 -60.5t-83 -115.5t-33 -185.5q0 -61 4.5 -121.5t4.5 -121.5q0 -84 -16.5 -141.5t-44 -93.5t-64.5 -54.5t-76 -20.5v-147z" />
<glyph unicode="|" horiz-adv-x="559" d="M205 1812v-2322h149v2322h-149z" />
<glyph unicode="}" horiz-adv-x="733" d="M610 743q-29 2 -63.5 15.5t-65 47.5t-51 93t-20.5 154q0 61 4 121.5t4 121.5q0 113 -33 185.5t-85 115.5t-115.5 60.5t-123.5 19.5v-118q51 -12 83 -36t49.5 -53.5t23.5 -62.5t6 -64q0 -66 -6 -127t-6 -126q0 -158 60.5 -254.5t197.5 -159.5v-17q-137 -63 -197.5 -158 t-60.5 -253q0 -59 6 -122t6 -126q0 -31 -6 -64.5t-23.5 -63.5t-49 -52.5t-83.5 -34.5v-121q125 6 197 51t106.5 105.5t44 122t9.5 100.5q0 59 -4 117.5t-4 130.5q0 80 16 136t44 93t64.5 54.5t75.5 21.5v147z" />
<glyph unicode="~" d="M178 582q23 33 59.5 52t98.5 19q72 0 123 -4t92 -11t78 -15.5t80 -16.5l116 -20q10 -2 20.5 -2h22.5q27 0 58.5 6t63.5 23.5t63.5 50t56.5 88.5l-47 30q-35 -37 -76 -52t-98 -15q-31 0 -99.5 10t-146.5 23.5t-150.5 23.5t-111.5 10q-27 0 -59.5 -5t-66.5 -22.5t-68.5 -49 t-63.5 -84.5z" />
<glyph unicode="&#xa1;" horiz-adv-x="712" d="M246 1323q0 -45 32.5 -78t77.5 -33t78 33t33 78t-33 78t-78 33t-77.5 -33t-32.5 -78zM399 1135h-96l-63 -1160h225z" />
<glyph unicode="&#xa2;" horiz-adv-x="1218" d="M637 1317v-273q-113 -6 -201 -51t-148.5 -116.5t-92 -167t-31.5 -201.5q0 -102 32.5 -194.5t94 -163t149.5 -116.5t197 -54v-316h108v313q111 10 200 52.5t151 89.5l-60 78q-72 -59 -140.5 -89t-150.5 -32v878q96 -10 151.5 -54t76.5 -105h141q-18 63 -55 108t-86 75 t-107.5 45t-120.5 19v275h-108zM358 510q0 121 26 202t65.5 131t89 74.5t98.5 32.5v-864q-57 14 -108.5 45t-89.5 83t-59.5 125t-21.5 171z" />
<glyph unicode="&#xa3;" horiz-adv-x="1572" d="M1176 807h-443q-10 68 -17 119t-11.5 89t-6.5 65.5t-2 52.5q0 43 9.5 86t29 76.5t51 54t78.5 20.5q49 0 70.5 -14.5t21.5 -28.5q0 -12 -8 -19.5t-19 -18.5t-19.5 -30.5t-8.5 -52.5q0 -45 33 -77.5t88 -32.5q59 0 89 46t30 118q0 92 -64.5 145t-163.5 53 q-78 0 -152.5 -24.5t-134 -73.5t-96 -122t-36.5 -169q0 -59 6 -132t16 -130h-319v-90h335q23 -72 29 -148.5t6 -152.5q0 -35 -4 -64.5t-18 -66.5q-35 10 -76 16t-74 6q-55 0 -102 -12t-82 -37t-55.5 -60.5t-20.5 -80.5q0 -47 22.5 -75t51.5 -42t57.5 -18.5t40.5 -4.5h51 q80 6 145.5 53.5t114.5 102.5l62 -33q109 -59 189.5 -91t158.5 -32q86 0 147.5 33t105.5 88.5t74.5 129t55.5 157.5l-96 25q-16 -53 -39 -102.5t-56.5 -86.5t-78.5 -58.5t-107 -21.5q-84 0 -171 34t-187 67q33 66 55.5 141.5t22.5 165.5q0 10 -2 51t-9 117h433v90zM506 184 q-45 -78 -92 -101.5t-76 -23.5q-41 0 -63.5 19.5t-22.5 42.5q0 12 5 27.5t18.5 28.5t39 22.5t66.5 9.5q23 0 53.5 -4.5t71.5 -20.5z" />
<glyph unicode="&#xa4;" horiz-adv-x="1501" d="M1288 1348l-147 -152q-86 68 -182.5 102.5t-210.5 34.5q-113 0 -206 -34.5t-180 -104.5l-153 154l-86 -93l149 -147q-72 -88 -104.5 -182.5t-32.5 -206.5q0 -117 33 -212t104 -181l-149 -148l86 -90l156 148q96 -78 193 -108t190 -30q35 0 79.5 5.5t96 19.5t106.5 42 t111 71l147 -146l90 88l-147 148q68 86 101.5 180t33.5 211q0 115 -34 209t-101 182l147 147zM401 371q-55 55 -98 140t-43 208t46 215t118 153.5t158 92t166 30.5t166.5 -30.5t159.5 -93t119 -154.5t46 -215q0 -121 -46 -213t-119 -154.5t-160 -94.5t-166 -32 q-100 0 -189.5 41t-157.5 107z" />
<glyph unicode="&#xa5;" horiz-adv-x="1267" d="M41 1434l473 -852h-260v-115h283v-84h-283v-117h283v-266h186v266h283v117h-283v84h283v115h-271l492 852h-111l-438 -756h-8l-418 756h-211z" />
<glyph unicode="&#xa6;" horiz-adv-x="507" d="M164 322v-832h174v832h-174zM164 1812v-831h174v831h-174z" />
<glyph unicode="&#xa7;" horiz-adv-x="1150" d="M872 1219v10q0 49 -21.5 91t-59 72.5t-89 48t-110.5 17.5q-88 0 -145.5 -24.5t-91 -59.5t-48 -76t-14.5 -73q0 -78 50 -143.5t106 -118.5q-59 -37 -111.5 -77t-90.5 -86t-60.5 -99.5t-22.5 -116.5q0 -61 27.5 -115.5t71.5 -106t100.5 -101.5t115.5 -103l25 -23 q33 -31 64.5 -60.5t58 -59t43 -60.5t16.5 -64q0 -16 -5 -36.5t-22.5 -38t-47 -29.5t-79.5 -12q-23 0 -49 4t-50.5 19.5t-41 44t-18.5 77.5h-127q0 -59 27.5 -103t70.5 -74t95.5 -45t105.5 -15q63 0 114.5 18t88 49t57 72t20.5 86q0 86 -41 157.5t-90 118.5q53 27 105.5 61 t94.5 77t67.5 96t25.5 117q0 76 -40 145.5t-93 128.5t-109.5 106.5t-93.5 77.5l-24 21q-86 70 -138.5 128t-52.5 113q0 53 38 83t106 30q72 0 113.5 -40t41.5 -101v-8h137zM723 715q41 -41 79 -88t38 -101q0 -72 -42 -152.5t-153 -146.5l-231 205q-23 20 -42.5 49 t-33.5 59.5t-22.5 58.5t-8.5 46q0 80 53.5 149.5t135.5 129.5z" />
<glyph unicode="&#xa8;" horiz-adv-x="503" d="M0 1348q0 -45 33 -78t78 -33t77.5 33t32.5 78t-32.5 77.5t-77.5 32.5t-78 -32.5t-33 -77.5zM283 1348q0 -45 32.5 -78t77.5 -33t78 33t33 78t-33 77.5t-78 32.5t-77.5 -32.5t-32.5 -77.5z" />
<glyph unicode="&#xa9;" horiz-adv-x="1765" d="M276 717q0 125 48.5 235.5t131.5 192.5t192.5 130t234.5 48t234.5 -48t192.5 -130t131 -192.5t48 -235.5t-48 -234.5t-131 -192.5t-192.5 -131t-234.5 -48t-234.5 48t-192.5 131t-131.5 192.5t-48.5 234.5zM143 717q0 -152 58.5 -286t159 -234.5t234.5 -158.5t288 -58 t288 58t234 158.5t158.5 234.5t58.5 286q0 154 -58.5 288t-158.5 234t-234.5 158.5t-287.5 58.5q-154 0 -288 -58.5t-234.5 -158.5t-159 -234t-58.5 -288zM928 383q-53 0 -101.5 17.5t-87.5 55.5t-61.5 98t-22.5 146q0 106 25 172t62.5 102t81.5 48t83 12q84 0 127 -35.5 t60 -85.5h114q-16 55 -48 91t-76 57.5t-95 30t-104 8.5q-90 0 -161 -32t-119 -85t-73.5 -127t-25.5 -156q0 -80 27.5 -151.5t78 -124.5t122 -85t159.5 -32q98 0 174 34t127 73l-51 63q-53 -45 -102.5 -69.5t-112.5 -24.5z" />
<glyph unicode="&#xaa;" horiz-adv-x="985" d="M637 920q-33 -53 -81 -84t-101 -31q-90 0 -128 48t-38 108q0 29 7 60.5t25.5 57t51.5 42t84 16.5q61 0 104 -32t76 -87v-98zM780 1126q0 61 -5 121t-34.5 106t-94 74.5t-181.5 28.5q-53 0 -125 -12t-143 -55l61 -97q53 43 107.5 70t101.5 27q72 0 121 -38t49 -114v-123 q-45 43 -96.5 70.5t-122.5 27.5q-70 0 -122 -21.5t-86 -57t-50.5 -80.5t-16.5 -92q0 -39 14.5 -80t46.5 -74t82 -54.5t122 -21.5q66 0 121 23.5t108 64.5v-71h143v378z" />
<glyph unicode="&#xab;" horiz-adv-x="1105" d="M309 530l240 406h-139l-246 -406l246 -405h139zM700 530l242 406h-139l-250 -406l250 -405h139z" />
<glyph unicode="&#xac;" horiz-adv-x="1900" d="M246 471h1280v-215h129v344h-1409v-129z" />
<glyph unicode="&#xad;" horiz-adv-x="751" d="M123 614v-131h506v131h-506z" />
<glyph unicode="&#xae;" horiz-adv-x="1765" d="M743 1026h93q70 0 115.5 -46t45.5 -106q0 -43 -15 -71.5t-39.5 -46t-52.5 -25.5t-52 -8h-95v303zM612 309h131v336h88q8 0 31 -29.5t48.5 -68.5t48 -76t32.5 -51q18 -25 33.5 -47.5t36 -40t46.5 -26.5t64 -9q33 0 50.5 4t35.5 16v66q-18 -6 -36 -6q-47 0 -70 24.5 t-33 40.5l-160 226q47 12 81 36.5t55.5 55.5t31 62.5t9.5 60.5q0 18 -8.5 54t-36 71.5t-80 61.5t-138.5 26h-260v-787zM276 715q0 125 48.5 234.5t131.5 192.5t192.5 131t234.5 48t234.5 -48t192.5 -131t131 -192.5t48 -234.5t-48 -234.5t-131 -192.5t-192.5 -131 t-234.5 -48t-234.5 48t-192.5 131t-131.5 192.5t-48.5 234.5zM143 715q0 -152 58.5 -287t159 -235.5t234.5 -159t288 -58.5t288 58.5t234 159t158.5 235.5t58.5 287q0 154 -58.5 288t-158.5 234t-234.5 158.5t-287.5 58.5q-154 0 -288 -58.5t-234.5 -158.5t-159 -234 t-58.5 -288z" />
<glyph unicode="&#xaf;" horiz-adv-x="743" d="M51 1194h641v82h-641v-82z" />
<glyph unicode="&#xb0;" horiz-adv-x="768" d="M143 1186q0 -49 18.5 -93t51.5 -76t77 -51.5t95 -19.5q49 0 93 19.5t77 51.5t51.5 76t18.5 93q0 51 -18.5 95t-51.5 77t-77 51t-93 18q-51 0 -95 -18t-77 -51t-51.5 -77t-18.5 -95zM233 1186q0 63 45.5 107t106.5 44q39 0 66.5 -15t46 -37.5t28 -49.5t9.5 -49 q0 -59 -45.5 -103.5t-104.5 -44.5q-23 0 -49.5 8.5t-49 27t-38 46t-15.5 66.5z" />
<glyph unicode="&#xb1;" horiz-adv-x="1695" d="M791 1247v-364h-545v-113h545v-324h114v324h545v113h-545v364h-114zM246 238h1204v114h-1204v-114z" />
<glyph unicode="&#xb4;" horiz-adv-x="397" d="M170 1458h227l-317 -260h-80z" />
<glyph unicode="&#xb5;" horiz-adv-x="1347" d="M338 1024h-174v-1481h133v611h10q12 -49 42 -83t68 -55.5t78 -31t74 -9.5q37 0 79 13.5t81 41t70.5 69.5t50.5 100q12 -98 77.5 -161t168.5 -63q61 0 109 22.5t81 72.5l-49 47q-23 -31 -57.5 -53.5t-63.5 -22.5q-47 0 -72.5 29.5t-37 76t-13.5 99.5t-2 102v676h-174v-651 q0 -129 -60.5 -209t-176.5 -80q-90 0 -139.5 35t-72 80t-26.5 89t-4 60v676z" />
<glyph unicode="&#xb6;" horiz-adv-x="1107" d="M532 -512v1946h-174q-82 0 -138 -24t-92 -61.5t-51.5 -87t-15.5 -98.5t15.5 -97t51.5 -87t92 -62.5t138 -23.5h33v-1405h141zM801 1434v-1946h143v1946h-143z" />
<glyph unicode="&#xb7;" horiz-adv-x="466" d="M123 758q0 -45 32.5 -78t77.5 -33t78 33t33 78t-32.5 77.5t-78.5 32.5q-45 0 -77.5 -32.5t-32.5 -77.5z" />
<glyph unicode="&#xb8;" horiz-adv-x="370" d="M0 -389q31 -4 66.5 -8t70.5 -4q43 0 85 9t75 30.5t53.5 53.5t20.5 79q0 66 -55.5 103.5t-122.5 37.5h-24.5t-25.5 -2l25 90h-68l-51 -168q14 4 38 6t38 2q78 0 104.5 -24.5t26.5 -48.5q0 -35 -18.5 -55.5t-47 -31t-62.5 -14.5t-62 -4h-26.5t-23.5 4z" />
<glyph unicode="&#xba;" horiz-adv-x="980" d="M256 1096q0 92 21.5 149.5t55.5 90t76 44t80 11.5q39 0 81 -11.5t77 -44t56.5 -90t21.5 -149.5t-21.5 -150.5t-56.5 -91.5t-77 -44t-81 -11t-80.5 11t-75.5 44t-55.5 91.5t-21.5 150.5zM102 1096q0 -84 31 -150.5t84 -114t124 -73t148 -25.5q80 0 151 25.5t124 73t84 114 t31 150.5q0 82 -31 149.5t-84 113.5t-124 71.5t-151 25.5q-78 0 -148.5 -25.5t-123.5 -71.5t-84 -113.5t-31 -149.5z" />
<glyph unicode="&#xbb;" horiz-adv-x="1105" d="M406 530l-242 -405h141l244 405l-244 406h-141zM799 530l-246 -405h141l248 405l-248 406h-141z" />
<glyph unicode="&#xbf;" horiz-adv-x="1062" d="M399 907q33 41 72 74t86 33q25 0 50.5 -23.5t25.5 -64.5q0 -55 -32 -106.5t-79 -101.5t-103.5 -100.5t-103.5 -105.5t-78.5 -117.5t-31.5 -134.5q0 -51 15.5 -102.5t53 -91t103 -65.5t166.5 -26q78 0 136 19.5t98 54.5t59.5 82t21.5 100h-143v-12q0 -37 -15.5 -68.5 t-42 -54t-59.5 -35t-68 -12.5t-67.5 12.5t-60 34t-44 51t-16.5 66.5q0 61 29.5 113.5t73.5 100.5t95.5 93t97.5 95.5t78 105.5t36 125v20q0 47 -14.5 89t-43 74t-71.5 50.5t-103 18.5q-51 0 -111.5 -33t-107.5 -90zM659 1348q0 45 -32.5 77.5t-77.5 32.5t-78 -32.5 t-33 -77.5t33 -78t78 -33t77.5 33t32.5 78z" />
<glyph unicode="&#xc0;" horiz-adv-x="1499" d="M1042 422l197 -422h199l-668 1434h-102l-607 -1434h95l180 422h706zM999 514h-624l295 690h8zM778 1868h-227l317 -260h80z" />
<glyph unicode="&#xc1;" horiz-adv-x="1499" d="M1042 422l197 -422h199l-668 1434h-102l-607 -1434h95l180 422h706zM999 514h-624l295 690h8zM721 1868h227l-317 -260h-80z" />
<glyph unicode="&#xc2;" horiz-adv-x="1499" d="M1042 422l197 -422h199l-668 1434h-102l-607 -1434h95l180 422h706zM999 514h-624l295 690h8zM748 1696l22 -14q23 -13 56.5 -33.5t73.5 -45t74 -46t56 -35.5l23 -15l51 64l-22 23q-23 22 -57 54.5t-74 71.5t-73.5 72t-55.5 54l-23 22h-103l-22 -22q-23 -23 -56.5 -56 t-73.5 -72t-74 -71.5t-56.5 -55t-22.5 -20.5l49 -62l24 13q23 14 57 35.5t74 45t73.5 45t45.5 28.5z" />
<glyph unicode="&#xc3;" horiz-adv-x="1499" d="M1042 422l197 -422h199l-668 1434h-102l-607 -1434h95l180 422h706zM999 514h-624l295 690h8zM424 1616q23 39 58.5 64.5t70.5 25.5q27 0 52.5 -8t47.5 -19q74 -29 135.5 -51t114.5 -22q72 0 132.5 48t94.5 156l-61 29q-23 -53 -57.5 -72.5t-69.5 -19.5q-25 0 -48.5 6 t-41.5 10q-88 29 -150.5 54.5t-109.5 25.5q-78 0 -136.5 -56t-86.5 -140z" />
<glyph unicode="&#xc4;" horiz-adv-x="1499" d="M1042 422l197 -422h199l-668 1434h-102l-607 -1434h95l180 422h706zM999 514h-624l295 690h8zM498 1757q0 -45 32.5 -77.5t77.5 -32.5t78 32.5t33 77.5t-33 78t-78 33t-77.5 -33t-32.5 -78zM780 1757q0 -45 33 -77.5t78 -32.5t77.5 32.5t32.5 77.5t-32.5 78t-77.5 33 t-78 -33t-33 -78z" />
<glyph unicode="&#xc5;" horiz-adv-x="1499" d="M1042 422l197 -422h199l-668 1434h-102l-607 -1434h95l180 422h706zM999 514h-624l295 690h8zM629 1698q0 51 34.5 85t86.5 34q49 0 84.5 -34t35.5 -85t-35.5 -86t-84.5 -35q-51 0 -86 35t-35 86zM561 1698q0 -39 14.5 -73t40 -59.5t60.5 -41t74 -15.5t73.5 15.5t60 41 t40 59.5t14.5 73q0 31 -11.5 64.5t-35 60t-59 44t-82.5 17.5t-82 -17.5t-58.5 -44t-36 -60t-12.5 -64.5z" />
<glyph unicode="&#xc6;" horiz-adv-x="2052" d="M1049 520h-543l543 811v-811zM1049 428v-428h942v113h-756v604h614v90h-614v512h721v115h-952l-963 -1434h119l284 428h605z" />
<glyph unicode="&#xc7;" horiz-adv-x="1554" d="M786 -389q31 -4 67 -8t71 -4q43 0 85 9t74.5 30.5t53 53.5t20.5 79q0 66 -55 103.5t-123 37.5h-24.5t-24.5 -2l18 67q119 6 212 32t164 59.5t118 71.5t71 69l-61 55q-209 -197 -496 -196q-160 0 -282.5 55t-204.5 147t-124 213t-42 252q0 139 44 255t124 200t189.5 131 t238.5 47q88 0 161 -20.5t129 -53t92 -74.5t50 -85h152q-31 70 -79 129t-120 102t-168 67.5t-219 24.5q-178 0 -324.5 -51t-251 -146.5t-162 -229.5t-57.5 -300q0 -141 45.5 -276.5t139.5 -240.5t241.5 -171t350.5 -68l-43 -143q14 4 37.5 6t37.5 2q78 0 104.5 -24.5 t26.5 -48.5q0 -35 -18 -55.5t-47 -31t-62.5 -14.5t-62.5 -4h-26.5t-22.5 4z" />
<glyph unicode="&#xc8;" d="M246 1434v-1434h925v113h-739v600h635v94h-635v514h739v113h-925zM645 1868h-227l317 -260h80z" />
<glyph unicode="&#xc9;" d="M246 1434v-1434h925v113h-739v600h635v94h-635v514h739v113h-925zM588 1868h227l-317 -260h-80z" />
<glyph unicode="&#xca;" d="M246 1434v-1434h925v113h-739v600h635v94h-635v514h739v113h-925zM614 1696l22 -14q23 -13 57 -33.5t74 -45t73.5 -46t56.5 -35.5l23 -15l51 64l-23 23q-22 22 -56 54.5t-74 71.5t-73.5 72t-56.5 54l-22 22h-103l-23 -22q-22 -23 -55.5 -56t-73.5 -72t-74 -71.5 t-56.5 -55t-22.5 -20.5l49 -62l23 13q24 14 58 35.5t74 45t73.5 45t44.5 28.5z" />
<glyph unicode="&#xcb;" d="M246 1434v-1434h925v113h-739v600h635v94h-635v514h739v113h-925zM365 1757q0 -45 32.5 -77.5t77.5 -32.5t78 32.5t33 77.5t-33 78t-78 33t-77.5 -33t-32.5 -78zM647 1757q0 -45 33 -77.5t78 -32.5t77.5 32.5t32.5 77.5t-32.5 78t-77.5 33t-78 -33t-33 -78z" />
<glyph unicode="&#xcc;" horiz-adv-x="841" d="M328 1434v-1434h186v1434h-186zM449 1868h-228l318 -260h79z" />
<glyph unicode="&#xcd;" horiz-adv-x="841" d="M328 1434v-1434h186v1434h-186zM391 1868h227l-317 -260h-80z" />
<glyph unicode="&#xce;" horiz-adv-x="841" d="M328 1434v-1434h186v1434h-186zM420 1696l22 -14q23 -13 56.5 -33.5t73.5 -45t74 -46t56 -35.5l23 -15l51 64l-22 23q-23 22 -56.5 54.5t-73.5 71.5t-74 72t-56 54l-23 22h-102l-23 -22q-22 -23 -56 -56t-74 -72t-73.5 -71.5t-56.5 -55t-23 -20.5l50 -62l23 13 q24 14 57.5 35.5t73.5 45t74 45t45 28.5z" />
<glyph unicode="&#xcf;" horiz-adv-x="841" d="M328 1434v-1434h186v1434h-186zM168 1757q0 -45 32.5 -77.5t78.5 -32.5q45 0 77.5 32.5t32.5 77.5t-32.5 78t-77.5 33t-78 -33t-33 -78zM451 1757q0 -45 32.5 -77.5t77.5 -32.5t78 32.5t33 77.5t-33 78t-78 33t-77.5 -33t-32.5 -78z" />
<glyph unicode="&#xd0;" horiz-adv-x="1609" d="M20 760h226v674h471q170 0 312 -55.5t243.5 -152t158 -229.5t56.5 -286q0 -156 -59.5 -286t-161 -224.5t-236.5 -147.5t-289 -53h-495v678h-226v82zM432 90h225q168 0 286 57.5t193.5 148.5t110.5 203.5t35 223.5q0 125 -41 237.5t-120 197.5t-195.5 135t-268.5 50h-225 v-583h230v-82h-230v-588z" />
<glyph unicode="&#xd1;" horiz-adv-x="1740" d="M1401 1434v-1096h-8l-1137 1120h-10v-1458h94v1096h8l1137 -1121h10v1459h-94zM545 1616q23 39 58.5 64.5t70.5 25.5q27 0 52.5 -8t47.5 -19q74 -29 135.5 -51t114.5 -22q72 0 132.5 48t94.5 156l-61 29q-23 -53 -57.5 -72.5t-69.5 -19.5q-25 0 -48.5 6t-41.5 10 q-88 29 -150.5 54.5t-109.5 25.5q-78 0 -136.5 -56t-87.5 -140z" />
<glyph unicode="&#xd2;" horiz-adv-x="1771" d="M102 717q0 -115 44 -245t138.5 -240.5t240 -183.5t347.5 -73q137 0 249 34t201 91.5t154.5 132t107.5 157.5t63.5 167t21.5 160q0 115 -47 245t-145.5 240.5t-249 183t-355.5 72.5q-203 0 -348 -71.5t-239.5 -181t-138.5 -240.5t-44 -248zM303 717q0 143 44 263t121 206 t181.5 134t227.5 48q121 0 228 -48t188 -134t128 -206t47 -263t-47 -263t-128 -206t-188.5 -134t-227.5 -48q-123 0 -227.5 48t-181.5 134t-121 206t-44 263zM913 1868h-227l318 -260h79z" />
<glyph unicode="&#xd3;" horiz-adv-x="1771" d="M102 717q0 -115 44 -245t138.5 -240.5t240 -183.5t347.5 -73q137 0 249 34t201 91.5t154.5 132t107.5 157.5t63.5 167t21.5 160q0 115 -47 245t-145.5 240.5t-249 183t-355.5 72.5q-203 0 -348 -71.5t-239.5 -181t-138.5 -240.5t-44 -248zM303 717q0 143 44 263t121 206 t181.5 134t227.5 48q121 0 228 -48t188 -134t128 -206t47 -263t-47 -263t-128 -206t-188.5 -134t-227.5 -48q-123 0 -227.5 48t-181.5 134t-121 206t-44 263zM856 1868h227l-317 -260h-80z" />
<glyph unicode="&#xd4;" horiz-adv-x="1771" d="M102 717q0 -115 44 -245t138.5 -240.5t240 -183.5t347.5 -73q137 0 249 34t201 91.5t154.5 132t107.5 157.5t63.5 167t21.5 160q0 115 -47 245t-145.5 240.5t-249 183t-355.5 72.5q-203 0 -348 -71.5t-239.5 -181t-138.5 -240.5t-44 -248zM303 717q0 143 44 263t121 206 t181.5 134t227.5 48q121 0 228 -48t188 -134t128 -206t47 -263t-47 -263t-128 -206t-188.5 -134t-227.5 -48q-123 0 -227.5 48t-181.5 134t-121 206t-44 263zM885 1696l23 -14q22 -13 55.5 -33.5t73.5 -45t74 -46t57 -35.5l22 -15l51 64l-23 23q-22 22 -56 54.5t-73.5 71.5 t-73.5 72t-57 54l-22 22h-102l-23 -22q-23 -23 -56.5 -56t-73.5 -72t-74 -71.5t-56.5 -55t-22.5 -20.5l50 -62l24 13q23 14 56.5 35.5t73.5 45t74 45t45 28.5z" />
<glyph unicode="&#xd5;" horiz-adv-x="1771" d="M102 717q0 -115 44 -245t138.5 -240.5t240 -183.5t347.5 -73q137 0 249 34t201 91.5t154.5 132t107.5 157.5t63.5 167t21.5 160q0 115 -47 245t-145.5 240.5t-249 183t-355.5 72.5q-203 0 -348 -71.5t-239.5 -181t-138.5 -240.5t-44 -248zM303 717q0 143 44 263t121 206 t181.5 134t227.5 48q121 0 228 -48t188 -134t128 -206t47 -263t-47 -263t-128 -206t-188.5 -134t-227.5 -48q-123 0 -227.5 48t-181.5 134t-121 206t-44 263zM559 1616q23 39 58.5 64.5t70.5 25.5q27 0 52.5 -8t47.5 -19q74 -29 135.5 -51t114.5 -22q72 0 132.5 48t95.5 156 l-62 29q-23 -53 -57.5 -72.5t-69.5 -19.5q-25 0 -48 6t-42 10q-88 29 -150.5 54.5t-109.5 25.5q-78 0 -136.5 -56t-86.5 -140z" />
<glyph unicode="&#xd6;" horiz-adv-x="1771" d="M102 717q0 -115 44 -245t138.5 -240.5t240 -183.5t347.5 -73q137 0 249 34t201 91.5t154.5 132t107.5 157.5t63.5 167t21.5 160q0 115 -47 245t-145.5 240.5t-249 183t-355.5 72.5q-203 0 -348 -71.5t-239.5 -181t-138.5 -240.5t-44 -248zM303 717q0 143 44 263t121 206 t181.5 134t227.5 48q121 0 228 -48t188 -134t128 -206t47 -263t-47 -263t-128 -206t-188.5 -134t-227.5 -48q-123 0 -227.5 48t-181.5 134t-121 206t-44 263zM633 1757q0 -45 32.5 -77.5t77.5 -32.5t78 32.5t33 77.5t-33 78t-78 33t-77.5 -33t-32.5 -78zM915 1757 q0 -45 33 -77.5t78 -32.5t78 32.5t33 77.5t-33 78t-78 33t-78 -33t-33 -78z" />
<glyph unicode="&#xd7;" horiz-adv-x="1261" d="M1014 1186l-383 -383l-387 387l-80 -80l385 -387l-385 -387l80 -78l387 385l385 -385l82 78l-389 387l387 385z" />
<glyph unicode="&#xd8;" horiz-adv-x="1794" d="M1219 1458l-37 -69q-131 45 -289 45q-203 0 -348.5 -70t-239.5 -177.5t-138 -236.5t-44 -245q0 -80 21.5 -168t65.5 -172t111.5 -159t161.5 -128l-53 -103h141l27 50q66 -23 137.5 -36.5t157.5 -13.5q137 0 247.5 33t196.5 89.5t149.5 129t104.5 153.5t60.5 165t19.5 160 q0 80 -21.5 169t-67.5 174t-116.5 159.5t-167.5 127.5l66 123h-145zM1470 705q0 -143 -44 -261t-121.5 -203t-182 -131.5t-225.5 -46.5q-137 0 -248 56l590 1108q106 -84 168.5 -217t62.5 -305zM324 705q0 143 44 260.5t120.5 201.5t181 130t227.5 46q121 0 233 -51 l-587 -1104q-102 86 -160.5 217.5t-58.5 299.5z" />
<glyph unicode="&#xd9;" horiz-adv-x="1474" d="M164 1434v-881q0 -84 16.5 -185.5t77.5 -188.5t182 -145.5t330 -58.5q131 0 232.5 41t170 113t103.5 167t35 204v934h-90v-867q0 -45 -2 -91t-12.5 -92t-32 -91t-62.5 -90q-74 -80 -166 -108.5t-192 -28.5q-86 0 -152.5 26.5t-126.5 79.5q-47 41 -71.5 82t-37 81 t-14.5 81t-2 82v936h-186zM766 1868h-227l317 -260h80z" />
<glyph unicode="&#xda;" horiz-adv-x="1474" d="M164 1434v-881q0 -84 16.5 -185.5t77.5 -188.5t182 -145.5t330 -58.5q131 0 232.5 41t170 113t103.5 167t35 204v934h-90v-867q0 -45 -2 -91t-12.5 -92t-32 -91t-62.5 -90q-74 -80 -166 -108.5t-192 -28.5q-86 0 -152.5 26.5t-126.5 79.5q-47 41 -71.5 82t-37 81 t-14.5 81t-2 82v936h-186zM709 1868h227l-318 -260h-79z" />
<glyph unicode="&#xdb;" horiz-adv-x="1474" d="M164 1434v-881q0 -84 16.5 -185.5t77.5 -188.5t182 -145.5t330 -58.5q131 0 232.5 41t170 113t103.5 167t35 204v934h-90v-867q0 -45 -2 -91t-12.5 -92t-32 -91t-62.5 -90q-74 -80 -166 -108.5t-192 -28.5q-86 0 -152.5 26.5t-126.5 79.5q-47 41 -71.5 82t-37 81 t-14.5 81t-2 82v936h-186zM735 1696l23 -14q22 -13 56 -33.5t74 -45t73.5 -46t56.5 -35.5l22 -15l52 64l-22 23q-23 22 -57 54.5t-74 71.5t-74 72t-57 54l-22 22h-102l-22 -22q-23 -23 -57 -56t-73.5 -72t-73.5 -71.5t-56.5 -55t-22.5 -20.5l49 -62l24 13q23 14 57 35.5 t74 45t73.5 45t45.5 28.5z" />
<glyph unicode="&#xdc;" horiz-adv-x="1474" d="M164 1434v-881q0 -84 16.5 -185.5t77.5 -188.5t182 -145.5t330 -58.5q131 0 232.5 41t170 113t103.5 167t35 204v934h-90v-867q0 -45 -2 -91t-12.5 -92t-32 -91t-62.5 -90q-74 -80 -166 -108.5t-192 -28.5q-86 0 -152.5 26.5t-126.5 79.5q-47 41 -71.5 82t-37 81 t-14.5 81t-2 82v936h-186zM485 1757q0 -45 33 -77.5t78 -32.5t78 32.5t33 77.5t-33 78t-78 33t-78 -33t-33 -78zM768 1757q0 -45 33 -77.5t78 -32.5t77.5 32.5t32.5 77.5t-32.5 78t-77.5 33t-78 -33t-33 -78z" />
<glyph unicode="&#xdd;" horiz-adv-x="1308" d="M61 1434l496 -891v-543h186v561l504 873h-110l-439 -756h-8l-418 756h-211zM625 1868h227l-317 -260h-80z" />
<glyph unicode="&#xde;" horiz-adv-x="1372" d="M432 1196q12 0 23.5 1t21.5 1q133 0 232.5 -43t165 -110.5t98.5 -151.5t33 -164t-35 -161t-104.5 -146.5t-174 -106.5t-246.5 -41h-14v922zM432 0v184h25q209 0 352 55.5t232 139.5t128 181t39 181q0 104 -48 202.5t-138 174.5t-219 122t-293 46h-78v148h-186v-1434h186z " />
<glyph unicode="&#xdf;" horiz-adv-x="1202" d="M225 0h174v1081q0 27 4.5 75t25 95t64.5 82t123 35q66 0 107 -25.5t62.5 -62.5t28.5 -79t7 -75q0 -41 -12 -84t-38 -77.5t-63.5 -56t-89.5 -21.5h-59v-80h59q100 0 156.5 -41t84.5 -101.5t34 -130t6 -126.5q0 -55 -4 -118t-18.5 -116t-41 -89t-71.5 -36q-10 0 -29.5 4 t-40 19.5t-37 42t-22.5 73.5h-125q2 -33 17.5 -69.5t46 -68.5t78.5 -53.5t116 -21.5q63 0 120.5 29t98.5 83t65.5 133t24.5 179q0 47 -9 117t-45 138.5t-105.5 122.5t-192.5 71v8q117 14 181.5 97t64.5 192q0 141 -95.5 227t-263.5 86q-29 0 -93 -8t-129.5 -45t-115 -112.5 t-49.5 -211.5v-1081z" />
<glyph unicode="&#xe0;" horiz-adv-x="1105" d="M541 1047q150 0 231.5 -42t119.5 -110t44 -156t6 -180v-559h-166v100q-59 -57 -151.5 -91t-184.5 -34q-88 0 -155.5 31t-112.5 80t-67.5 110.5t-22.5 125.5q0 66 24.5 131t73.5 117.5t121 85t164 32.5t175 -36t136 -101v88q0 168 -50 250t-183 82q-57 0 -100.5 -14.5 t-77 -40t-62.5 -63.5t-57 -85l-107 106q29 31 60.5 62t78 55.5t110 40t153.5 15.5zM776 406q-10 25 -29.5 57.5t-50 63t-73.5 52t-103 21.5q-59 0 -108.5 -23.5t-83 -61.5t-52 -89t-18.5 -107q0 -66 23.5 -113.5t60.5 -81.5t82 -50.5t86 -16.5q39 0 79 14.5t75.5 40 t64.5 60.5t47 76v158zM582 1458h-228l318 -260h80z" />
<glyph unicode="&#xe1;" horiz-adv-x="1105" d="M541 1047q150 0 231.5 -42t119.5 -110t44 -156t6 -180v-559h-166v100q-59 -57 -151.5 -91t-184.5 -34q-88 0 -155.5 31t-112.5 80t-67.5 110.5t-22.5 125.5q0 66 24.5 131t73.5 117.5t121 85t164 32.5t175 -36t136 -101v88q0 168 -50 250t-183 82q-57 0 -100.5 -14.5 t-77 -40t-62.5 -63.5t-57 -85l-107 106q29 31 60.5 62t78 55.5t110 40t153.5 15.5zM776 406q-10 25 -29.5 57.5t-50 63t-73.5 52t-103 21.5q-59 0 -108.5 -23.5t-83 -61.5t-52 -89t-18.5 -107q0 -66 23.5 -113.5t60.5 -81.5t82 -50.5t86 -16.5q39 0 79 14.5t75.5 40 t64.5 60.5t47 76v158zM524 1458h228l-318 -260h-80z" />
<glyph unicode="&#xe2;" horiz-adv-x="1105" d="M541 1047q150 0 231.5 -42t119.5 -110t44 -156t6 -180v-559h-166v100q-59 -57 -151.5 -91t-184.5 -34q-88 0 -155.5 31t-112.5 80t-67.5 110.5t-22.5 125.5q0 66 24.5 131t73.5 117.5t121 85t164 32.5t175 -36t136 -101v88q0 168 -50 250t-183 82q-57 0 -100.5 -14.5 t-77 -40t-62.5 -63.5t-57 -85l-107 106q29 31 60.5 62t78 55.5t110 40t153.5 15.5zM776 406q-10 25 -29.5 57.5t-50 63t-73.5 52t-103 21.5q-59 0 -108.5 -23.5t-83 -61.5t-52 -89t-18.5 -107q0 -66 23.5 -113.5t60.5 -81.5t82 -50.5t86 -16.5q39 0 79 14.5t75.5 40 t64.5 60.5t47 76v158zM551 1286l23 -13q22 -13 56 -33.5t73.5 -45.5t73.5 -46.5t57 -35.5l22 -14l51 63l-23 23q-22 22 -55.5 55t-73.5 72t-74 71.5t-57 53.5l-22 22h-102l-22 -22q-23 -23 -57 -55.5t-74 -71.5t-73.5 -72t-56 -55.5t-22.5 -20.5l49 -61l24 13 q23 13 56.5 34.5t73.5 45.5t74 45.5t45 27.5z" />
<glyph unicode="&#xe3;" horiz-adv-x="1105" d="M541 1047q150 0 231.5 -42t119.5 -110t44 -156t6 -180v-559h-166v100q-59 -57 -151.5 -91t-184.5 -34q-88 0 -155.5 31t-112.5 80t-67.5 110.5t-22.5 125.5q0 66 24.5 131t73.5 117.5t121 85t164 32.5t175 -36t136 -101v88q0 168 -50 250t-183 82q-57 0 -100.5 -14.5 t-77 -40t-62.5 -63.5t-57 -85l-107 106q29 31 60.5 62t78 55.5t110 40t153.5 15.5zM776 406q-10 25 -29.5 57.5t-50 63t-73.5 52t-103 21.5q-59 0 -108.5 -23.5t-83 -61.5t-52 -89t-18.5 -107q0 -66 23.5 -113.5t60.5 -81.5t82 -50.5t86 -16.5q39 0 79 14.5t75.5 40 t64.5 60.5t47 76v158zM227 1206q23 39 59 64.5t70 25.5q27 0 52.5 -8t48.5 -18q74 -29 135 -51.5t115 -22.5q72 0 132 48t95 157l-62 29q-23 -53 -57.5 -73t-69.5 -20q-25 0 -48 6.5t-42 10.5q-88 29 -150.5 54.5t-109.5 25.5q-78 0 -136 -56.5t-87 -140.5z" />
<glyph unicode="&#xe4;" horiz-adv-x="1105" d="M541 1047q150 0 231.5 -42t119.5 -110t44 -156t6 -180v-559h-166v100q-59 -57 -151.5 -91t-184.5 -34q-88 0 -155.5 31t-112.5 80t-67.5 110.5t-22.5 125.5q0 66 24.5 131t73.5 117.5t121 85t164 32.5t175 -36t136 -101v88q0 168 -50 250t-183 82q-57 0 -100.5 -14.5 t-77 -40t-62.5 -63.5t-57 -85l-107 106q29 31 60.5 62t78 55.5t110 40t153.5 15.5zM776 406q-10 25 -29.5 57.5t-50 63t-73.5 52t-103 21.5q-59 0 -108.5 -23.5t-83 -61.5t-52 -89t-18.5 -107q0 -66 23.5 -113.5t60.5 -81.5t82 -50.5t86 -16.5q39 0 79 14.5t75.5 40 t64.5 60.5t47 76v158zM301 1348q0 -45 33 -78t78 -33t77.5 33t32.5 78t-32.5 77.5t-77.5 32.5t-78 -32.5t-33 -77.5zM584 1348q0 -45 32.5 -78t77.5 -33t78 33t33 78t-33 77.5t-78 32.5t-77.5 -32.5t-32.5 -77.5z" />
<glyph unicode="&#xe5;" horiz-adv-x="1105" d="M541 1047q150 0 231.5 -42t119.5 -110t44 -156t6 -180v-559h-166v100q-59 -57 -151.5 -91t-184.5 -34q-88 0 -155.5 31t-112.5 80t-67.5 110.5t-22.5 125.5q0 66 24.5 131t73.5 117.5t121 85t164 32.5t175 -36t136 -101v88q0 168 -50 250t-183 82q-57 0 -100.5 -14.5 t-77 -40t-62.5 -63.5t-57 -85l-107 106q29 31 60.5 62t78 55.5t110 40t153.5 15.5zM776 406q-10 25 -29.5 57.5t-50 63t-73.5 52t-103 21.5q-59 0 -108.5 -23.5t-83 -61.5t-52 -89t-18.5 -107q0 -66 23.5 -113.5t60.5 -81.5t82 -50.5t86 -16.5q39 0 79 14.5t75.5 40 t64.5 60.5t47 76v158zM432 1288q0 51 35 85t86 34q49 0 85 -34t36 -85t-36 -86t-85 -35q-51 0 -86 35t-35 86zM365 1288q0 -39 14 -72.5t39.5 -59.5t60.5 -41t74 -15t74 15t60.5 41t39.5 59.5t14 72.5q0 31 -11 64.5t-34.5 60.5t-59.5 44.5t-83 17.5t-82 -17.5t-58.5 -44.5 t-35.5 -60.5t-12 -64.5z" />
<glyph unicode="&#xe6;" horiz-adv-x="1818" d="M928 561q0 102 25.5 180t66.5 130.5t94 79t107 26.5q123 0 199.5 -105.5t76.5 -291.5v-19h-569zM766 238q-18 -43 -47 -75t-63.5 -53.5t-71.5 -31.5t-70 -10q-53 0 -99 20.5t-80 56t-53.5 85t-19.5 108.5q0 61 20.5 109.5t55.5 80t81 49t95 17.5q61 0 106.5 -20.5t76 -48 t47 -57.5t22.5 -50v-180zM928 489h755v35q0 158 -46 260.5t-115.5 161t-148.5 81t-146 22.5q-47 0 -98.5 -10.5t-99.5 -30t-88 -46t-64 -59.5q-78 90 -160 118t-189 28q-106 0 -182 -22.5t-151 -80.5l61 -86q59 53 129 85t147 32q31 0 70 -9.5t74 -26.5t60.5 -45t29.5 -65 v-270q-37 43 -78 67.5t-82 38t-77.5 17.5t-63.5 4q-92 0 -164 -31.5t-120 -84t-72.5 -120t-24.5 -137.5q0 -61 22.5 -121.5t67.5 -108.5t113.5 -79t161.5 -31q106 0 210.5 47.5t184.5 153.5q31 -37 71.5 -72.5t93 -64.5t118 -46.5t145.5 -17.5q109 0 219.5 46.5t204.5 144.5 l-60 61q-88 -92 -165.5 -130t-184.5 -38q-74 0 -139.5 30t-114.5 84t-76.5 132t-27.5 176v8z" />
<glyph unicode="&#xe7;" horiz-adv-x="1114" d="M504 -389q31 -4 66.5 -8t70.5 -4q43 0 85 9t75 30.5t53 53.5t20 79q0 66 -55 103.5t-123 37.5h-24.5t-24.5 -2l19 67q119 8 211 50.5t157 91.5l-59 78q-72 -59 -142.5 -87t-154.5 -28q-74 0 -142.5 22.5t-122 72.5t-85 133t-31.5 204q0 125 35 212t87 139.5t115.5 76 t120.5 23.5q94 0 164 -49.5t92 -120.5h142q-20 74 -65.5 122t-104 77.5t-125 41t-127.5 11.5q-129 0 -227.5 -42t-166 -114t-101.5 -168t-34 -205q0 -111 35 -208t99.5 -168.5t155.5 -114.5t204 -50l-43 -145q14 4 37.5 6t38.5 2q78 0 104.5 -24.5t26.5 -48.5 q0 -35 -18.5 -55.5t-47 -31t-62.5 -14.5t-63 -4h-26.5t-22.5 4z" />
<glyph unicode="&#xe8;" horiz-adv-x="1175" d="M1073 467v43q0 137 -39 237.5t-105.5 166t-154.5 98t-186 32.5q-104 0 -192.5 -35.5t-154 -104t-102.5 -166t-37 -220.5q0 -102 32 -199.5t96.5 -174t164 -123t234.5 -46.5q131 0 241.5 46.5t192.5 132.5l-66 65q-43 -37 -80.5 -67.5t-76.5 -51t-81 -32t-93 -11.5 q-57 0 -122 17.5t-120 62.5t-92 125t-37 205h778zM295 549q0 82 17.5 158.5t53 136t91 95.5t131.5 36q145 0 226 -113.5t81 -312.5h-600zM616 1458h-227l318 -260h79z" />
<glyph unicode="&#xe9;" horiz-adv-x="1175" d="M1073 467v43q0 137 -39 237.5t-105.5 166t-154.5 98t-186 32.5q-104 0 -192.5 -35.5t-154 -104t-102.5 -166t-37 -220.5q0 -102 32 -199.5t96.5 -174t164 -123t234.5 -46.5q131 0 241.5 46.5t192.5 132.5l-66 65q-43 -37 -80.5 -67.5t-76.5 -51t-81 -32t-93 -11.5 q-57 0 -122 17.5t-120 62.5t-92 125t-37 205h778zM295 549q0 82 17.5 158.5t53 136t91 95.5t131.5 36q145 0 226 -113.5t81 -312.5h-600zM559 1458h227l-317 -260h-80z" />
<glyph unicode="&#xea;" horiz-adv-x="1175" d="M1073 467v43q0 137 -39 237.5t-105.5 166t-154.5 98t-186 32.5q-104 0 -192.5 -35.5t-154 -104t-102.5 -166t-37 -220.5q0 -102 32 -199.5t96.5 -174t164 -123t234.5 -46.5q131 0 241.5 46.5t192.5 132.5l-66 65q-43 -37 -80.5 -67.5t-76.5 -51t-81 -32t-93 -11.5 q-57 0 -122 17.5t-120 62.5t-92 125t-37 205h778zM295 549q0 82 17.5 158.5t53 136t91 95.5t131.5 36q145 0 226 -113.5t81 -312.5h-600zM586 1286l22 -13q23 -13 56.5 -33.5t73.5 -45.5t74 -46.5t56 -35.5l23 -14l51 63l-22 23q-23 22 -57 55t-73.5 72t-73.5 71.5t-56 53.5 l-23 22h-102l-23 -22q-23 -23 -56.5 -55.5t-73.5 -71.5t-74 -72t-56.5 -55.5t-22.5 -20.5l50 -61l23 13q24 13 57.5 34.5t73.5 45.5t74 45.5t45 27.5z" />
<glyph unicode="&#xeb;" horiz-adv-x="1175" d="M1073 467v43q0 137 -39 237.5t-105.5 166t-154.5 98t-186 32.5q-104 0 -192.5 -35.5t-154 -104t-102.5 -166t-37 -220.5q0 -102 32 -199.5t96.5 -174t164 -123t234.5 -46.5q131 0 241.5 46.5t192.5 132.5l-66 65q-43 -37 -80.5 -67.5t-76.5 -51t-81 -32t-93 -11.5 q-57 0 -122 17.5t-120 62.5t-92 125t-37 205h778zM295 549q0 82 17.5 158.5t53 136t91 95.5t131.5 36q145 0 226 -113.5t81 -312.5h-600zM336 1348q0 -45 32.5 -78t77.5 -33t78 33t33 78t-32.5 77.5t-78.5 32.5q-45 0 -77.5 -32.5t-32.5 -77.5zM618 1348q0 -45 33 -78 t78 -33t78 33t33 78t-33 77.5t-78 32.5t-78 -32.5t-33 -77.5z" />
<glyph unicode="&#xec;" horiz-adv-x="630" d="M229 1024v-1024h174v1024h-174zM344 1458h-227l317 -260h80z" />
<glyph unicode="&#xed;" horiz-adv-x="630" d="M229 1024v-1024h174v1024h-174zM287 1458h227l-317 -260h-80z" />
<glyph unicode="&#xee;" horiz-adv-x="630" d="M229 1024v-1024h174v1024h-174zM315 1286l23 -13q22 -13 56 -33.5t74 -45.5t73.5 -46.5t56.5 -35.5l23 -14l51 63l-22 23q-23 22 -57 55t-74 72t-73.5 71.5t-55.5 53.5l-23 22h-103l-22 -22q-23 -23 -56.5 -55.5t-73.5 -71.5t-74 -72t-56.5 -55.5t-22.5 -20.5l49 -61 l24 13q23 13 57 34.5t74 45.5t73.5 45.5t45.5 27.5z" />
<glyph unicode="&#xef;" horiz-adv-x="630" d="M229 1024v-1024h174v1024h-174zM63 1348q0 -45 33 -78t78 -33t78 33t33 78t-33 77.5t-78 32.5t-78 -32.5t-33 -77.5zM346 1348q0 -45 33 -78t78 -33t77.5 33t32.5 78t-32.5 77.5t-77.5 32.5t-78 -32.5t-33 -77.5z" />
<glyph unicode="&#xf0;" horiz-adv-x="1222" d="M582 1094l188 129q76 -53 127 -125t68 -172h-9q-70 57 -151.5 89t-190.5 32q-123 0 -221 -44.5t-165.5 -120t-103.5 -174t-36 -204.5q0 -131 46 -229.5t120 -165t168 -100.5t192 -34q86 0 180.5 28t172 99.5t129 194.5t51.5 313q0 98 -10.5 195.5t-40 186.5t-82.5 166 t-140 136l154 105l-41 55l-174 -121q-123 66 -260 89.5t-254 35.5l-14 -74q106 -16 215.5 -44.5t204.5 -77.5l-164 -113zM616 47q-37 0 -93 13.5t-109.5 60.5t-92 139t-38.5 252q0 158 38.5 250t92 139t110 60.5t92.5 13.5q57 0 118 -19.5t109 -72t78.5 -142.5t30.5 -229 q0 -141 -33.5 -231.5t-84 -142.5t-109 -71.5t-109.5 -19.5z" />
<glyph unicode="&#xf1;" horiz-adv-x="1189" d="M1020 0v664q0 37 -6 101t-40 126.5t-107.5 109t-209.5 46.5q-59 2 -132.5 -24t-145.5 -97l-33 -33h-8v131h-174v-1024h174v633q0 80 22.5 137t61.5 96t89 57.5t103 18.5q86 0 133.5 -34t69 -79t25.5 -90t4 -65v-674h174zM268 1206q23 39 58.5 64.5t70.5 25.5 q27 0 52.5 -8t48.5 -18q74 -29 135 -51.5t115 -22.5q72 0 132 48t95 157l-62 29q-23 -53 -57.5 -73t-69.5 -20q-25 0 -48 6.5t-42 10.5q-88 29 -150.5 54.5t-109.5 25.5q-78 0 -136 -56.5t-87 -140.5z" />
<glyph unicode="&#xf2;" horiz-adv-x="1265" d="M1163 510q0 -106 -36.5 -203.5t-105.5 -171.5t-166 -117t-218 -43q-123 0 -222.5 44t-168 118t-106.5 171.5t-38 201.5q0 106 38 203.5t106.5 171t168 118t222.5 44.5q121 0 218 -44.5t166 -118t105.5 -171t36.5 -203.5zM969 510q0 143 -31 232t-80 138.5t-108.5 67 t-114.5 17.5t-114.5 -17.5t-110 -67t-82 -138.5t-31.5 -232q0 -141 31.5 -230.5t82 -138.5t110 -66.5t114.5 -17.5t114.5 17.5t108.5 66.5t80 138.5t31 230.5zM662 1458h-228l318 -260h79z" />
<glyph unicode="&#xf3;" horiz-adv-x="1265" d="M1163 510q0 -106 -36.5 -203.5t-105.5 -171.5t-166 -117t-218 -43q-123 0 -222.5 44t-168 118t-106.5 171.5t-38 201.5q0 106 38 203.5t106.5 171t168 118t222.5 44.5q121 0 218 -44.5t166 -118t105.5 -171t36.5 -203.5zM969 510q0 143 -31 232t-80 138.5t-108.5 67 t-114.5 17.5t-114.5 -17.5t-110 -67t-82 -138.5t-31.5 -232q0 -141 31.5 -230.5t82 -138.5t110 -66.5t114.5 -17.5t114.5 17.5t108.5 66.5t80 138.5t31 230.5zM604 1458h227l-317 -260h-80z" />
<glyph unicode="&#xf4;" horiz-adv-x="1265" d="M1163 510q0 -106 -36.5 -203.5t-105.5 -171.5t-166 -117t-218 -43q-123 0 -222.5 44t-168 118t-106.5 171.5t-38 201.5q0 106 38 203.5t106.5 171t168 118t222.5 44.5q121 0 218 -44.5t166 -118t105.5 -171t36.5 -203.5zM969 510q0 143 -31 232t-80 138.5t-108.5 67 t-114.5 17.5t-114.5 -17.5t-110 -67t-82 -138.5t-31.5 -232q0 -141 31.5 -230.5t82 -138.5t110 -66.5t114.5 -17.5t114.5 17.5t108.5 66.5t80 138.5t31 230.5zM631 1286l23 -13q22 -13 55.5 -33.5t73.5 -45.5t74 -46.5t57 -35.5l22 -14l51 63l-23 23q-22 22 -56 55t-73.5 72 t-73.5 71.5t-57 53.5l-22 22h-102l-22 -22q-23 -23 -57 -55.5t-74 -71.5t-74 -72t-56.5 -55.5t-22.5 -20.5l50 -61l24 13q23 13 56.5 34.5t73.5 45.5t74 45.5t45 27.5z" />
<glyph unicode="&#xf5;" horiz-adv-x="1265" d="M1163 510q0 -106 -36.5 -203.5t-105.5 -171.5t-166 -117t-218 -43q-123 0 -222.5 44t-168 118t-106.5 171.5t-38 201.5q0 106 38 203.5t106.5 171t168 118t222.5 44.5q121 0 218 -44.5t166 -118t105.5 -171t36.5 -203.5zM969 510q0 143 -31 232t-80 138.5t-108.5 67 t-114.5 17.5t-114.5 -17.5t-110 -67t-82 -138.5t-31.5 -232q0 -141 31.5 -230.5t82 -138.5t110 -66.5t114.5 -17.5t114.5 17.5t108.5 66.5t80 138.5t31 230.5zM307 1206q23 39 58.5 64.5t70.5 25.5q27 0 52.5 -8t48.5 -18q74 -29 135 -51.5t114 -22.5q72 0 132.5 48 t95.5 157l-62 29q-23 -53 -57.5 -73t-69.5 -20q-25 0 -48 6.5t-42 10.5q-88 29 -150.5 54.5t-109.5 25.5q-78 0 -136 -56.5t-87 -140.5z" />
<glyph unicode="&#xf6;" horiz-adv-x="1265" d="M1163 510q0 -106 -36.5 -203.5t-105.5 -171.5t-166 -117t-218 -43q-123 0 -222.5 44t-168 118t-106.5 171.5t-38 201.5q0 106 38 203.5t106.5 171t168 118t222.5 44.5q121 0 218 -44.5t166 -118t105.5 -171t36.5 -203.5zM969 510q0 143 -31 232t-80 138.5t-108.5 67 t-114.5 17.5t-114.5 -17.5t-110 -67t-82 -138.5t-31.5 -232q0 -141 31.5 -230.5t82 -138.5t110 -66.5t114.5 -17.5t114.5 17.5t108.5 66.5t80 138.5t31 230.5zM381 1348q0 -45 32.5 -78t78.5 -33q45 0 77.5 33t32.5 78t-32.5 77.5t-77.5 32.5t-78 -32.5t-33 -77.5zM664 1348 q0 -45 32.5 -78t77.5 -33t78 33t33 78t-33 77.5t-78 32.5t-77.5 -32.5t-32.5 -77.5z" />
<glyph unicode="&#xf7;" horiz-adv-x="1900" d="M246 487h1409v125h-1409v-125zM842 162q0 -45 32.5 -78t77.5 -33t78 33t33 78t-33 77.5t-78 32.5t-77.5 -32.5t-32.5 -77.5zM842 936q0 -45 32.5 -78t77.5 -33t78 33t33 78t-33 78t-78 33t-77.5 -33t-32.5 -78z" />
<glyph unicode="&#xf8;" horiz-adv-x="1306" d="M870 1049l-20 -39q-47 16 -96 26.5t-105 10.5q-121 0 -218 -44.5t-165.5 -118t-105.5 -171t-37 -203.5q0 -131 54 -244.5t153 -187.5l-58 -103h134l24 43q47 -20 102.5 -31.5t116.5 -11.5q123 0 222.5 44t168 118t106.5 171.5t38 201.5q0 135 -59.5 253t-170.5 191l54 95 h-138zM989 510q0 -141 -31.5 -231.5t-82 -141.5t-109.5 -70.5t-115 -19.5q-45 0 -91 10.5t-87 38.5l426 760q41 -53 65.5 -137t24.5 -209zM317 510q0 143 31 233.5t80 141.5t108.5 70.5t114.5 19.5q37 0 77 -8.5t79 -30.5l-418 -750q-33 53 -52.5 132t-19.5 192z" />
<glyph unicode="&#xf9;" horiz-adv-x="1189" d="M164 1024v-666q0 -37 7 -101t42 -126.5t109.5 -109t209.5 -46.5q59 -2 130 24t143 97l33 33h8v-129h174v1024h-174v-635q0 -80 -22.5 -137t-59.5 -95t-86 -56.5t-103 -18.5q-86 0 -134 34t-71.5 79t-27.5 89t-4 64v676h-174zM623 1458h-228l318 -260h80z" />
<glyph unicode="&#xfa;" horiz-adv-x="1189" d="M164 1024v-666q0 -37 7 -101t42 -126.5t109.5 -109t209.5 -46.5q59 -2 130 24t143 97l33 33h8v-129h174v1024h-174v-635q0 -80 -22.5 -137t-59.5 -95t-86 -56.5t-103 -18.5q-86 0 -134 34t-71.5 79t-27.5 89t-4 64v676h-174zM565 1458h228l-318 -260h-80z" />
<glyph unicode="&#xfb;" horiz-adv-x="1189" d="M164 1024v-666q0 -37 7 -101t42 -126.5t109.5 -109t209.5 -46.5q59 -2 130 24t143 97l33 33h8v-129h174v1024h-174v-635q0 -80 -22.5 -137t-59.5 -95t-86 -56.5t-103 -18.5q-86 0 -134 34t-71.5 79t-27.5 89t-4 64v676h-174zM594 1286l22 -13q23 -13 57 -33.5t73.5 -45.5 t73.5 -46.5t56 -35.5l23 -14l51 63l-22 23q-23 22 -56.5 55t-73.5 72t-74 71.5t-56 53.5l-23 22h-102l-23 -22q-22 -23 -56 -55.5t-74 -71.5t-73.5 -72t-56 -55.5t-22.5 -20.5l49 -61l23 13q24 13 57.5 34.5t73.5 45.5t74 45.5t45 27.5z" />
<glyph unicode="&#xfc;" horiz-adv-x="1189" d="M164 1024v-666q0 -37 7 -101t42 -126.5t109.5 -109t209.5 -46.5q59 -2 130 24t143 97l33 33h8v-129h174v1024h-174v-635q0 -80 -22.5 -137t-59.5 -95t-86 -56.5t-103 -18.5q-86 0 -134 34t-71.5 79t-27.5 89t-4 64v676h-174zM342 1348q0 -45 33 -78t78 -33t77.5 33 t32.5 78t-32.5 77.5t-77.5 32.5t-78 -32.5t-33 -77.5zM625 1348q0 -45 32.5 -78t77.5 -33t78 33t33 78t-33 77.5t-78 32.5t-77.5 -32.5t-32.5 -77.5z" />
<glyph unicode="&#xfd;" horiz-adv-x="1032" d="M561 240l-354 784h-187l459 -1012l-108 -266q-18 -47 -48 -75.5t-69 -28.5q-37 0 -70.5 21.5t-52.5 62.5l-90 -170q39 -35 86 -51.5t88 -16.5q57 0 100 28.5t76 75t57.5 102.5t47.5 111l495 1219h-100l-322 -784h-8zM487 1458h228l-318 -260h-80z" />
<glyph unicode="&#xfe;" horiz-adv-x="1236" d="M164 -512h174v680h8q20 -53 54 -90t77 -59.5t91 -33t98 -10.5q102 0 188 38t148.5 107.5t97.5 169t35 220.5q0 123 -35 221t-97.5 169t-148.5 109t-188 38q-244 0 -320 -189h-8v576h-174v-1946zM338 614q0 68 21.5 128.5t60.5 104.5t91 69.5t112 25.5q63 0 121.5 -23.5 t101.5 -74.5t68.5 -133t25.5 -197q0 -117 -25.5 -199t-69.5 -134t-101.5 -75.5t-120.5 -23.5q-57 0 -108.5 23.5t-90.5 69.5t-62.5 111.5t-23.5 149.5v178z" />
<glyph unicode="&#xff;" horiz-adv-x="1032" d="M561 240l-354 784h-187l459 -1012l-108 -266q-18 -47 -48 -75.5t-69 -28.5q-37 0 -70.5 21.5t-52.5 62.5l-90 -170q39 -35 86 -51.5t88 -16.5q57 0 100 28.5t76 75t57.5 102.5t47.5 111l495 1219h-100l-322 -784h-8zM264 1348q0 -45 33 -78t78 -33t77.5 33t32.5 78 t-32.5 77.5t-77.5 32.5t-78 -32.5t-33 -77.5zM547 1348q0 -45 32.5 -78t77.5 -33t78 33t33 78t-33 77.5t-78 32.5t-77.5 -32.5t-32.5 -77.5z" />
<glyph unicode="&#x100;" horiz-adv-x="1499" d="M1042 422l197 -422h199l-668 1434h-102l-607 -1434h95l180 422h706zM999 514h-624l295 690h8zM428 1604h641v82h-641v-82z" />
<glyph unicode="&#x101;" horiz-adv-x="1105" d="M541 1047q150 0 231.5 -42t119.5 -110t44 -156t6 -180v-559h-166v100q-59 -57 -151.5 -91t-184.5 -34q-88 0 -155.5 31t-112.5 80t-67.5 110.5t-22.5 125.5q0 66 24.5 131t73.5 117.5t121 85t164 32.5t175 -36t136 -101v88q0 168 -50 250t-183 82q-57 0 -100.5 -14.5 t-77 -40t-62.5 -63.5t-57 -85l-107 106q29 31 60.5 62t78 55.5t110 40t153.5 15.5zM776 406q-10 25 -29.5 57.5t-50 63t-73.5 52t-103 21.5q-59 0 -108.5 -23.5t-83 -61.5t-52 -89t-18.5 -107q0 -66 23.5 -113.5t60.5 -81.5t82 -50.5t86 -16.5q39 0 79 14.5t75.5 40 t64.5 60.5t47 76v158zM231 1194h641v82h-641v-82z" />
<glyph unicode="&#x102;" horiz-adv-x="1499" d="M1042 422l197 -422h199l-668 1434h-102l-607 -1434h95l180 422h706zM999 514h-624l295 690h8zM449 1868q0 -57 22.5 -108.5t63 -89.5t95 -59.5t120.5 -21.5q63 0 118.5 21.5t96.5 59.5t63.5 89t22.5 109h-86q-4 -92 -66.5 -148.5t-148.5 -56.5q-84 0 -146.5 56.5 t-68.5 148.5h-86z" />
<glyph unicode="&#x103;" horiz-adv-x="1105" d="M541 1047q150 0 231.5 -42t119.5 -110t44 -156t6 -180v-559h-166v100q-59 -57 -151.5 -91t-184.5 -34q-88 0 -155.5 31t-112.5 80t-67.5 110.5t-22.5 125.5q0 66 24.5 131t73.5 117.5t121 85t164 32.5t175 -36t136 -101v88q0 168 -50 250t-183 82q-57 0 -100.5 -14.5 t-77 -40t-62.5 -63.5t-57 -85l-107 106q29 31 60.5 62t78 55.5t110 40t153.5 15.5zM776 406q-10 25 -29.5 57.5t-50 63t-73.5 52t-103 21.5q-59 0 -108.5 -23.5t-83 -61.5t-52 -89t-18.5 -107q0 -66 23.5 -113.5t60.5 -81.5t82 -50.5t86 -16.5q39 0 79 14.5t75.5 40 t64.5 60.5t47 76v158zM252 1458q0 -57 22.5 -108.5t63.5 -89t95 -59t120 -21.5q63 0 118.5 21.5t96.5 59t63.5 89t22.5 108.5h-86q-4 -92 -66.5 -148.5t-148.5 -56.5q-84 0 -146.5 56.5t-68.5 148.5h-86z" />
<glyph unicode="&#x104;" horiz-adv-x="1499" d="M1339 0l-94 -68q-55 -41 -101 -90t-46 -108q0 -70 48 -96.5t103 -26.5q47 0 93.5 16.5t78.5 40.5l-22 56q-20 -10 -51 -22.5t-60 -12.5q-43 0 -54 26.5t-11 38.5q0 35 18.5 68t49 64.5t69.5 60t78 53.5l-668 1434h-102l-607 -1434h95l180 422h706l197 -422h100zM999 514 h-624l295 690h8z" />
<glyph unicode="&#x105;" horiz-adv-x="1105" d="M541 1047q150 0 231.5 -42t119.5 -110t44 -156t6 -180v-559h-166v100q-59 -57 -151.5 -91t-184.5 -34q-88 0 -155.5 31t-112.5 80t-67.5 110.5t-22.5 125.5q0 66 24.5 131t73.5 117.5t121 85t164 32.5t175 -36t136 -101v88q0 168 -50 250t-183 82q-57 0 -100.5 -14.5 t-77 -40t-62.5 -63.5t-57 -85l-107 106q29 31 60.5 62t78 55.5t110 40t153.5 15.5zM776 406q-10 25 -29.5 57.5t-50 63t-73.5 52t-103 21.5q-59 0 -108.5 -23.5t-83 -61.5t-52 -89t-18.5 -107q0 -66 23.5 -113.5t60.5 -81.5t82 -50.5t86 -16.5q39 0 79 14.5t75.5 40 t64.5 60.5t47 76v158zM844 0l-94 -68q-55 -41 -101.5 -90t-46.5 -108q0 -70 48 -96.5t104 -26.5q47 0 93 16.5t79 40.5l-23 56q-20 -10 -51 -22.5t-59 -12.5q-43 0 -54.5 26.5t-11.5 38.5q0 35 18.5 68t49 64.5t69.5 60t78 53.5h-98z" />
<glyph unicode="&#x106;" horiz-adv-x="1554" d="M1452 264q-209 -197 -496 -196q-160 0 -282.5 55t-204.5 147t-124 213t-42 252q0 139 44 255t124 200t189.5 131t238.5 47q88 0 161 -20.5t129 -53t92 -74.5t50 -85h152q-31 70 -79 129t-120 102t-168 67.5t-219 24.5q-178 0 -324.5 -51t-251 -146.5t-162 -229.5 t-57.5 -300q0 -143 46.5 -279.5t142.5 -242t245.5 -170t356.5 -64.5q131 0 234.5 25t180 60.5t128 76.5t77.5 72zM748 1868h227l-318 -260h-79z" />
<glyph unicode="&#x107;" horiz-adv-x="1114" d="M678 82q-74 0 -142.5 22.5t-122 72.5t-85 133t-31.5 204q0 125 35 212t87 139.5t115.5 76t120.5 23.5q94 0 164 -49.5t92 -120.5h142q-20 74 -65.5 122t-104 77.5t-125 41t-127.5 11.5q-129 0 -227.5 -42t-166 -114t-101.5 -168t-34 -205q0 -115 37 -214t105.5 -172 t165 -115t217.5 -42q135 0 236.5 45.5t170.5 98.5l-59 78q-72 -59 -142.5 -87t-154.5 -28zM528 1458h228l-318 -260h-80z" />
<glyph unicode="&#x108;" horiz-adv-x="1554" d="M1452 264q-209 -197 -496 -196q-160 0 -282.5 55t-204.5 147t-124 213t-42 252q0 139 44 255t124 200t189.5 131t238.5 47q88 0 161 -20.5t129 -53t92 -74.5t50 -85h152q-31 70 -79 129t-120 102t-168 67.5t-219 24.5q-178 0 -324.5 -51t-251 -146.5t-162 -229.5 t-57.5 -300q0 -143 46.5 -279.5t142.5 -242t245.5 -170t356.5 -64.5q131 0 234.5 25t180 60.5t128 76.5t77.5 72zM776 1696l22 -14q23 -13 57 -33.5t74 -45t73.5 -46t55.5 -35.5l23 -15l52 64l-23 23q-23 22 -56.5 54.5t-73.5 71.5t-74 72t-56 54l-23 22h-102l-23 -22 q-22 -23 -56 -56t-74 -72t-73.5 -71.5t-56 -55t-22.5 -20.5l49 -62l23 13q24 14 58 35.5t74 45t73.5 45t44.5 28.5z" />
<glyph unicode="&#x109;" horiz-adv-x="1114" d="M678 82q-74 0 -142.5 22.5t-122 72.5t-85 133t-31.5 204q0 125 35 212t87 139.5t115.5 76t120.5 23.5q94 0 164 -49.5t92 -120.5h142q-20 74 -65.5 122t-104 77.5t-125 41t-127.5 11.5q-129 0 -227.5 -42t-166 -114t-101.5 -168t-34 -205q0 -115 37 -214t105.5 -172 t165 -115t217.5 -42q135 0 236.5 45.5t170.5 98.5l-59 78q-72 -59 -142.5 -87t-154.5 -28zM555 1286l23 -13q22 -13 56 -33.5t74 -45.5t73.5 -46.5t56.5 -35.5l22 -14l51 63l-23 23q-22 22 -55.5 55t-73.5 72t-74 71.5t-57 53.5l-22 22h-102l-22 -22q-23 -23 -57 -55.5 t-74 -71.5t-73.5 -72t-56 -55.5t-22.5 -20.5l49 -61l24 13q23 13 56.5 34.5t73.5 45.5t74 45.5t45 27.5z" />
<glyph unicode="&#x10a;" horiz-adv-x="1554" d="M1452 264q-209 -197 -496 -196q-160 0 -282.5 55t-204.5 147t-124 213t-42 252q0 139 44 255t124 200t189.5 131t238.5 47q88 0 161 -20.5t129 -53t92 -74.5t50 -85h152q-31 70 -79 129t-120 102t-168 67.5t-219 24.5q-178 0 -324.5 -51t-251 -146.5t-162 -229.5 t-57.5 -300q0 -143 46.5 -279.5t142.5 -242t245.5 -170t356.5 -64.5q131 0 234.5 25t180 60.5t128 76.5t77.5 72zM666 1757q0 -45 32.5 -77.5t77.5 -32.5t78 32.5t33 77.5t-33 78t-78 33t-77.5 -33t-32.5 -78z" />
<glyph unicode="&#x10b;" horiz-adv-x="1114" d="M678 82q-74 0 -142.5 22.5t-122 72.5t-85 133t-31.5 204q0 125 35 212t87 139.5t115.5 76t120.5 23.5q94 0 164 -49.5t92 -120.5h142q-20 74 -65.5 122t-104 77.5t-125 41t-127.5 11.5q-129 0 -227.5 -42t-166 -114t-101.5 -168t-34 -205q0 -115 37 -214t105.5 -172 t165 -115t217.5 -42q135 0 236.5 45.5t170.5 98.5l-59 78q-72 -59 -142.5 -87t-154.5 -28zM446 1348q0 -45 33 -78t78 -33t78 33t33 78t-33 77.5t-78 32.5t-78 -32.5t-33 -77.5z" />
<glyph unicode="&#x10c;" horiz-adv-x="1554" d="M1452 264q-209 -197 -496 -196q-160 0 -282.5 55t-204.5 147t-124 213t-42 252q0 139 44 255t124 200t189.5 131t238.5 47q88 0 161 -20.5t129 -53t92 -74.5t50 -85h152q-31 70 -79 129t-120 102t-168 67.5t-219 24.5q-178 0 -324.5 -51t-251 -146.5t-162 -229.5 t-57.5 -300q0 -143 46.5 -279.5t142.5 -242t245.5 -170t356.5 -64.5q131 0 234.5 25t180 60.5t128 76.5t77.5 72zM776 1681q0 -2 22.5 12.5t56.5 35t74 45t73.5 46t55.5 36.5l23 14l52 -64l-23 -22q-23 -23 -56.5 -55.5t-73.5 -71.5t-74 -72t-56 -55l-23 -21h-102l-23 23 q-22 22 -56 55t-74 72t-73.5 71.5t-56.5 53.5l-22 22l49 62l23 -14q24 -13 58 -34.5t74 -45t73.5 -45t44.5 -27.5z" />
<glyph unicode="&#x10d;" horiz-adv-x="1114" d="M678 82q-74 0 -142.5 22.5t-122 72.5t-85 133t-31.5 204q0 125 35 212t87 139.5t115.5 76t120.5 23.5q94 0 164 -49.5t92 -120.5h142q-20 74 -65.5 122t-104 77.5t-125 41t-127.5 11.5q-129 0 -227.5 -42t-166 -114t-101.5 -168t-34 -205q0 -115 37 -214t105.5 -172 t165 -115t217.5 -42q135 0 236.5 45.5t170.5 98.5l-59 78q-72 -59 -142.5 -87t-154.5 -28zM555 1272q0 -2 22.5 12t56.5 34.5t74 45.5t73.5 46.5t56.5 35.5l22 14l51 -63l-23 -23q-22 -22 -55.5 -55t-73.5 -72t-74 -71.5t-57 -53.5l-22 -22h-102l-22 22q-23 23 -57 55.5 t-74 71.5t-73.5 72t-55.5 55l-23 21l49 61l24 -13q23 -13 56.5 -34.5t73.5 -45.5t74 -45.5t45 -27.5z" />
<glyph unicode="&#x10e;" horiz-adv-x="1566" d="M266 0v1434h471q170 0 311.5 -54.5t243 -149.5t157.5 -226.5t56 -282.5q0 -158 -58 -290t-159.5 -228.5t-237 -149.5t-288.5 -53h-496zM453 90h225q168 0 285.5 56.5t193.5 146.5t111 201.5t35 222.5q0 123 -41 236.5t-120 200.5t-196 138t-268 51h-225v-1253zM782 1681 q0 -2 22.5 12.5t56.5 35t74 45t73.5 46t55.5 36.5l23 14l52 -64l-23 -22q-22 -23 -56 -55.5t-74 -71.5t-73.5 -72t-56.5 -55l-22 -21h-103l-23 23q-22 22 -56 55t-73.5 72t-73.5 71.5t-57 53.5l-22 22l49 62l23 -14q24 -13 58 -34.5t74 -45t73.5 -45t44.5 -27.5z" />
<glyph unicode="&#x10f;" horiz-adv-x="1523" d="M1073 1434h-174v-578h-8q-20 53 -54 89t-77 58.5t-91 33t-98 10.5q-102 0 -188 -38t-148.5 -108t-97.5 -168t-35 -219q0 -123 35 -222t97.5 -170t148.5 -109t188 -38q242 0 320 191h8v-166h174v1434zM899 410q0 -68 -22.5 -128.5t-60.5 -104.5t-90 -69.5t-112 -25.5 q-66 0 -123 23.5t-100 74.5t-68.5 133t-25.5 197q0 117 25.5 199t69.5 134t101.5 75.5t120.5 23.5q57 0 108.5 -23.5t90.5 -69.5t62.5 -111.5t23.5 -149.5v-178zM1360 1432h-195v-529h74z" />
<glyph unicode="&#x110;" horiz-adv-x="1609" d="M20 760h226v674h471q170 0 312 -55.5t243.5 -152t158 -229.5t56.5 -286q0 -156 -59.5 -286t-161 -224.5t-236.5 -147.5t-289 -53h-495v678h-226v82zM432 90h225q168 0 286 57.5t193.5 148.5t110.5 203.5t35 223.5q0 125 -41 237.5t-120 197.5t-195.5 135t-268.5 50h-225 v-583h230v-82h-230v-588z" />
<glyph unicode="&#x111;" horiz-adv-x="1236" d="M1073 1434h-174v-174h-305v-84h305v-320h-8q-20 53 -54 89t-77 58.5t-91 33t-98 10.5q-102 0 -188 -38t-148.5 -108t-97.5 -168t-35 -219q0 -123 35 -222t97.5 -170t148.5 -109t188 -38q242 0 320 191h8v-166h174v1176h162v84h-162v174zM899 410q0 -68 -22.5 -128.5 t-60.5 -104.5t-90 -69.5t-112 -25.5q-66 0 -123 23.5t-100 74.5t-68.5 133t-25.5 197q0 117 25.5 199t69.5 134t101.5 75.5t120.5 23.5q57 0 108.5 -23.5t90.5 -69.5t62.5 -111.5t23.5 -149.5v-178z" />
<glyph unicode="&#x112;" d="M246 1434v-1434h925v113h-739v600h635v94h-635v514h739v113h-925zM295 1604h641v82h-641v-82z" />
<glyph unicode="&#x113;" horiz-adv-x="1175" d="M1073 467v43q0 137 -39 237.5t-105.5 166t-154.5 98t-186 32.5q-104 0 -192.5 -35.5t-154 -104t-102.5 -166t-37 -220.5q0 -102 32 -199.5t96.5 -174t164 -123t234.5 -46.5q131 0 241.5 46.5t192.5 132.5l-66 65q-43 -37 -80.5 -67.5t-76.5 -51t-81 -32t-93 -11.5 q-57 0 -122 17.5t-120 62.5t-92 125t-37 205h778zM295 549q0 82 17.5 158.5t53 136t91 95.5t131.5 36q145 0 226 -113.5t81 -312.5h-600zM266 1194h641v82h-641v-82z" />
<glyph unicode="&#x114;" d="M246 1434v-1434h925v113h-739v600h635v94h-635v514h739v113h-925zM315 1868q0 -57 22.5 -108.5t63.5 -89.5t95.5 -59.5t119.5 -21.5q63 0 119 21.5t96.5 59.5t63.5 89t23 109h-87q-4 -92 -66.5 -148.5t-148.5 -56.5q-84 0 -146 56.5t-69 148.5h-86z" />
<glyph unicode="&#x115;" horiz-adv-x="1175" d="M1073 467v43q0 137 -39 237.5t-105.5 166t-154.5 98t-186 32.5q-104 0 -192.5 -35.5t-154 -104t-102.5 -166t-37 -220.5q0 -102 32 -199.5t96.5 -174t164 -123t234.5 -46.5q131 0 241.5 46.5t192.5 132.5l-66 65q-43 -37 -80.5 -67.5t-76.5 -51t-81 -32t-93 -11.5 q-57 0 -122 17.5t-120 62.5t-92 125t-37 205h778zM295 549q0 82 17.5 158.5t53 136t91 95.5t131.5 36q145 0 226 -113.5t81 -312.5h-600zM287 1458q0 -57 22.5 -108.5t63.5 -89t95 -59t120 -21.5q63 0 118.5 21.5t96.5 59t63.5 89t22.5 108.5h-86q-4 -92 -66.5 -148.5 t-148.5 -56.5q-84 0 -146.5 56.5t-68.5 148.5h-86z" />
<glyph unicode="&#x116;" d="M246 1434v-1434h925v113h-739v600h635v94h-635v514h739v113h-925zM506 1757q0 -45 32.5 -77.5t77.5 -32.5t78 32.5t33 77.5t-32.5 78t-78.5 33q-45 0 -77.5 -33t-32.5 -78z" />
<glyph unicode="&#x117;" horiz-adv-x="1175" d="M1073 467v43q0 137 -39 237.5t-105.5 166t-154.5 98t-186 32.5q-104 0 -192.5 -35.5t-154 -104t-102.5 -166t-37 -220.5q0 -102 32 -199.5t96.5 -174t164 -123t234.5 -46.5q131 0 241.5 46.5t192.5 132.5l-66 65q-43 -37 -80.5 -67.5t-76.5 -51t-81 -32t-93 -11.5 q-57 0 -122 17.5t-120 62.5t-92 125t-37 205h778zM295 549q0 82 17.5 158.5t53 136t91 95.5t131.5 36q145 0 226 -113.5t81 -312.5h-600zM477 1348q0 -45 33 -78t78 -33t77.5 33t32.5 78t-32.5 77.5t-77.5 32.5t-78 -32.5t-33 -77.5z" />
<glyph unicode="&#x118;" d="M1073 0l-94 -68q-55 -41 -101.5 -90t-46.5 -108q0 -70 48.5 -96.5t103.5 -26.5q47 0 93 16.5t79 40.5l-22 56q-20 -10 -51 -22.5t-60 -12.5q-43 0 -54.5 26.5t-11.5 38.5q0 35 18.5 68t49.5 64.5t70 60t77 53.5v113h-739v600h635v94h-635v514h739v113h-925v-1434h827z " />
<glyph unicode="&#x119;" horiz-adv-x="1175" d="M1073 467v43q0 137 -39 237.5t-105.5 166t-154.5 98t-186 32.5q-104 0 -192.5 -35.5t-154 -104t-102.5 -166t-37 -220.5q0 -102 31 -198.5t94.5 -172t159.5 -123t227 -49.5l-59 -43q-55 -41 -101 -90t-46 -108q0 -70 48 -96.5t103 -26.5q47 0 93 16.5t79 40.5l-22 56 q-20 -10 -51 -22.5t-60 -12.5q-43 0 -54.5 26.5t-11.5 38.5q0 31 15.5 61.5t41 59.5t59.5 55.5t69 51.5q209 29 346 172l-66 65q-43 -37 -80.5 -67.5t-76.5 -51t-81 -32t-93 -11.5q-57 0 -122 17.5t-120 62.5t-92 125t-37 205h778zM295 549q0 82 17.5 158.5t53 136t91 95.5 t131.5 36q145 0 226 -113.5t81 -312.5h-600z" />
<glyph unicode="&#x11a;" d="M246 1434v-1434h925v113h-739v600h635v94h-635v514h739v113h-925zM614 1681q0 -2 22.5 12.5t56.5 35t74 45t73.5 46t56.5 36.5l23 14l51 -64l-23 -22q-22 -23 -56 -55.5t-74 -71.5t-73.5 -72t-56.5 -55l-22 -21h-103l-23 23q-22 22 -55.5 55t-73.5 72t-74 71.5t-57 53.5 l-22 22l49 62l23 -14q24 -13 58 -34.5t74 -45t73.5 -45t44.5 -27.5z" />
<glyph unicode="&#x11b;" horiz-adv-x="1175" d="M1073 467v43q0 137 -39 237.5t-105.5 166t-154.5 98t-186 32.5q-104 0 -192.5 -35.5t-154 -104t-102.5 -166t-37 -220.5q0 -102 32 -199.5t96.5 -174t164 -123t234.5 -46.5q131 0 241.5 46.5t192.5 132.5l-66 65q-43 -37 -80.5 -67.5t-76.5 -51t-81 -32t-93 -11.5 q-57 0 -122 17.5t-120 62.5t-92 125t-37 205h778zM295 549q0 82 17.5 158.5t53 136t91 95.5t131.5 36q145 0 226 -113.5t81 -312.5h-600zM586 1272q0 -2 22.5 12t56 34.5t73.5 45.5t74 46.5t56 35.5l23 14l51 -63l-22 -23q-23 -22 -57 -55t-73.5 -72t-73.5 -71.5t-56 -53.5 l-23 -22h-102l-23 22q-23 23 -56.5 55.5t-73.5 71.5t-74 72t-56 55l-23 21l50 61l23 -13q24 -13 57.5 -34.5t73.5 -45.5t74 -45.5t45 -27.5z" />
<glyph unicode="&#x11c;" horiz-adv-x="1673" d="M1550 639h-405v-84h229v-371q-92 -59 -188 -87.5t-219 -28.5q-162 0 -283 49t-201 136t-119.5 207t-39.5 263q0 141 37.5 260t113.5 205t185.5 133t254.5 47q96 0 180.5 -20.5t150 -53t107.5 -74.5t54 -85h147q-18 45 -62 101t-120 105.5t-187.5 83t-262.5 33.5 q-174 0 -320.5 -49t-253 -141t-166 -226.5t-59.5 -304.5q0 -145 46 -281.5t141.5 -244t242.5 -172t352 -64.5q154 0 272.5 34t196.5 75v-84h176v639zM836 1696l22 -14q23 -13 56.5 -33.5t73.5 -45t74 -46t56 -35.5l23 -15l51 64l-22 23q-23 22 -57 54.5t-74 71.5t-73.5 72 t-55.5 54l-23 22h-103l-22 -22q-23 -23 -56.5 -56t-73.5 -72t-74 -71.5t-56.5 -55t-22.5 -20.5l49 -62l24 13q23 14 57 35.5t74 45t74 45t45 28.5z" />
<glyph unicode="&#x11d;" d="M895 -86q0 -94 -22.5 -159.5t-62.5 -106.5t-94 -59.5t-116 -18.5q-109 0 -175.5 55.5t-121.5 147.5l-113 -103q14 -18 45 -48t78 -59.5t113 -51t149 -21.5q156 0 252.5 44t149.5 118t72.5 169t19.5 197v1006h-174v-160h-8q-25 86 -106 134.5t-212 48.5q-104 0 -190 -38 t-147.5 -108t-95.5 -168t-34 -219q0 -123 34 -222t95.5 -170t146.5 -109t189 -38q115 0 200 45.5t120 143.5h8v-250zM895 436q0 -86 -23.5 -151.5t-62.5 -110.5t-90 -68.5t-107 -23.5q-49 0 -105 17.5t-104.5 64.5t-80 133t-31.5 221q0 143 39 228t91 130.5t106.5 58.5 t84.5 13q68 0 121 -29.5t89 -80t54.5 -116t18.5 -134.5v-152zM614 1286l22 -13q23 -13 57 -33.5t74 -45.5t73.5 -46.5t56.5 -35.5l23 -14l51 63l-23 23q-22 22 -56 55t-74 72t-73.5 71.5t-56.5 53.5l-22 22h-103l-23 -22q-22 -23 -55.5 -55.5t-73.5 -71.5t-74 -72 t-56.5 -55.5t-22.5 -20.5l49 -61l23 13q24 13 58 34.5t74 45.5t73.5 45.5t44.5 27.5z" />
<glyph unicode="&#x11e;" horiz-adv-x="1673" d="M1550 639h-405v-84h229v-371q-92 -59 -188 -87.5t-219 -28.5q-162 0 -283 49t-201 136t-119.5 207t-39.5 263q0 141 37.5 260t113.5 205t185.5 133t254.5 47q96 0 180.5 -20.5t150 -53t107.5 -74.5t54 -85h147q-18 45 -62 101t-120 105.5t-187.5 83t-262.5 33.5 q-174 0 -320.5 -49t-253 -141t-166 -226.5t-59.5 -304.5q0 -145 46 -281.5t141.5 -244t242.5 -172t352 -64.5q154 0 272.5 34t196.5 75v-84h176v639zM535 1868q0 -57 22.5 -108.5t63.5 -89.5t95 -59.5t120 -21.5q63 0 118.5 21.5t96.5 59.5t63.5 89t22.5 109h-86 q-4 -92 -66.5 -148.5t-148.5 -56.5q-84 0 -146.5 56.5t-68.5 148.5h-86z" />
<glyph unicode="&#x11f;" d="M895 -86q0 -94 -22.5 -159.5t-62.5 -106.5t-94 -59.5t-116 -18.5q-109 0 -175.5 55.5t-121.5 147.5l-113 -103q14 -18 45 -48t78 -59.5t113 -51t149 -21.5q156 0 252.5 44t149.5 118t72.5 169t19.5 197v1006h-174v-160h-8q-25 86 -106 134.5t-212 48.5q-104 0 -190 -38 t-147.5 -108t-95.5 -168t-34 -219q0 -123 34 -222t95.5 -170t146.5 -109t189 -38q115 0 200 45.5t120 143.5h8v-250zM895 436q0 -86 -23.5 -151.5t-62.5 -110.5t-90 -68.5t-107 -23.5q-49 0 -105 17.5t-104.5 64.5t-80 133t-31.5 221q0 143 39 228t91 130.5t106.5 58.5 t84.5 13q68 0 121 -29.5t89 -80t54.5 -116t18.5 -134.5v-152zM315 1458q0 -57 22.5 -108.5t63.5 -89t95.5 -59t119.5 -21.5q63 0 119 21.5t96.5 59t63.5 89t23 108.5h-87q-4 -92 -66.5 -148.5t-148.5 -56.5q-84 0 -146 56.5t-69 148.5h-86z" />
<glyph unicode="&#x120;" horiz-adv-x="1673" d="M1550 639h-405v-84h229v-371q-92 -59 -188 -87.5t-219 -28.5q-162 0 -283 49t-201 136t-119.5 207t-39.5 263q0 141 37.5 260t113.5 205t185.5 133t254.5 47q96 0 180.5 -20.5t150 -53t107.5 -74.5t54 -85h147q-18 45 -62 101t-120 105.5t-187.5 83t-262.5 33.5 q-174 0 -320.5 -49t-253 -141t-166 -226.5t-59.5 -304.5q0 -145 46 -281.5t141.5 -244t242.5 -172t352 -64.5q154 0 272.5 34t196.5 75v-84h176v639zM725 1757q0 -45 33 -77.5t78 -32.5t77.5 32.5t32.5 77.5t-32.5 78t-77.5 33t-78 -33t-33 -78z" />
<glyph unicode="&#x121;" d="M895 -86q0 -94 -22.5 -159.5t-62.5 -106.5t-94 -59.5t-116 -18.5q-109 0 -175.5 55.5t-121.5 147.5l-113 -103q14 -18 45 -48t78 -59.5t113 -51t149 -21.5q156 0 252.5 44t149.5 118t72.5 169t19.5 197v1006h-174v-160h-8q-25 86 -106 134.5t-212 48.5q-104 0 -190 -38 t-147.5 -108t-95.5 -168t-34 -219q0 -123 34 -222t95.5 -170t146.5 -109t189 -38q115 0 200 45.5t120 143.5h8v-250zM895 436q0 -86 -23.5 -151.5t-62.5 -110.5t-90 -68.5t-107 -23.5q-49 0 -105 17.5t-104.5 64.5t-80 133t-31.5 221q0 143 39 228t91 130.5t106.5 58.5 t84.5 13q68 0 121 -29.5t89 -80t54.5 -116t18.5 -134.5v-152zM506 1348q0 -45 32.5 -78t77.5 -33t78 33t33 78t-32.5 77.5t-78.5 32.5q-45 0 -77.5 -32.5t-32.5 -77.5z" />
<glyph unicode="&#x122;" horiz-adv-x="1673" d="M1548 639h-403v-84h229v-371q-92 -59 -189.5 -87.5t-209.5 -28.5q-160 0 -282 55t-202.5 146t-121.5 210t-41 246q0 141 43 260t122.5 204t193.5 133t255 48q70 0 136.5 -20.5t121.5 -53t94 -75.5t52 -86h192q-20 49 -61 105t-115 104.5t-184.5 81t-270.5 32.5 q-166 0 -308 -51t-248.5 -145.5t-167 -226.5t-60.5 -294q0 -145 46 -282t141.5 -245t239.5 -173.5t343 -65.5q168 0 283.5 33t197.5 76v-84h176zM1004 -100h-193v-351h70z" />
<glyph unicode="&#x123;" d="M895 -86q0 -94 -22.5 -159.5t-62.5 -106.5t-94 -59.5t-116 -18.5q-109 0 -175.5 55.5t-121.5 147.5l-113 -103q14 -18 45 -48t78 -59.5t113 -51t149 -21.5q156 0 252.5 44t149.5 118t72.5 169t19.5 197v1006h-174v-160h-8q-25 86 -106 134.5t-212 48.5q-104 0 -190 -38 t-147.5 -108t-95.5 -168t-34 -219q0 -123 34 -222t95.5 -170t146.5 -109t189 -38q115 0 200 45.5t120 143.5h8v-250zM895 436q0 -86 -23.5 -151.5t-62.5 -110.5t-90 -68.5t-107 -23.5q-49 0 -104 17.5t-102.5 64.5t-78 133t-30.5 221q0 143 38 227t89 128.5t104.5 56.5 t83.5 12q68 0 121 -28.5t89 -78t54.5 -114t18.5 -133.5v-152zM475 1114h193v344h-70z" />
<glyph unicode="&#x124;" horiz-adv-x="1722" d="M432 713h858v-713h187v1434h-187v-627h-858v627h-186v-1434h186v713zM860 1696l22 -14q23 -13 57 -33.5t74 -45t73.5 -46t55.5 -35.5l23 -15l52 64l-23 23q-23 22 -56.5 54.5t-73.5 71.5t-74 72t-56 54l-23 22h-102l-23 -22q-22 -23 -56 -56t-74 -72t-73.5 -71.5t-56 -55 t-22.5 -20.5l49 -62l23 13q24 14 58 35.5t74 45t73.5 45t44.5 28.5z" />
<glyph unicode="&#x125;" horiz-adv-x="1165" d="M164 1434v-1434h174v592q0 41 6 100.5t34 114.5t83 95t153 40q70 0 112 -25.5t64.5 -68.5t29.5 -100.5t7 -118.5v-629h174v676q0 115 -32.5 187.5t-81.5 113.5t-107.5 55.5t-111.5 14.5q-72 0 -151 -28t-148 -106l-23 -28h-8v549h-174zM526 1683l22 -13q23 -13 57 -33.5 t74 -45t73.5 -46t55.5 -35.5l23 -15l52 64l-23 23q-22 22 -56 54.5t-74 71.5t-73.5 71.5t-56.5 54.5l-22 21h-103l-23 -23q-22 -22 -56 -54.5t-73.5 -71.5t-73.5 -71.5t-56.5 -55.5t-22.5 -20l49 -62l23 13q24 14 58 35.5t74 45t73.5 45t44.5 28.5z" />
<glyph unicode="&#x126;" horiz-adv-x="1722" d="M74 1024h172v-1024h186v717h858v-717h187v1024h176v82h-176v328h-187v-328h-858v328h-186v-328h-172v-82zM432 807v217h858v-217h-858z" />
<glyph unicode="&#x127;" horiz-adv-x="1165" d="M18 1194h146v-1194h174v592q0 41 6 100.5t34 114.5t83 95t153 40q70 0 112 -25.5t64.5 -68.5t29.5 -100.5t7 -118.5v-629h174v676q0 115 -32.5 187.5t-81.5 113.5t-107.5 55.5t-111.5 14.5q-72 0 -151 -28t-148 -106l-23 -28h-8v309h321v82h-321v158h-174v-158h-146v-82z " />
<glyph unicode="&#x128;" horiz-adv-x="841" d="M328 1434v-1434h186v1434h-186zM94 1616q23 39 58.5 64.5t70.5 25.5q27 0 52.5 -8t48.5 -19q74 -29 135 -51t114 -22q72 0 132.5 48t95.5 156l-62 29q-23 -53 -57.5 -72.5t-69.5 -19.5q-25 0 -48 6t-42 10q-88 29 -150.5 54.5t-109.5 25.5q-78 0 -136 -56t-87 -140z" />
<glyph unicode="&#x129;" horiz-adv-x="630" d="M229 1024v-1024h174v1024h-174zM-10 1206q23 39 58.5 64.5t70.5 25.5q43 0 90 -15t93 -34.5t89 -35t78 -15.5q156 0 227 205l-61 29q-23 -53 -57.5 -73t-69.5 -20q-43 0 -91 15.5t-94.5 33t-87 33t-67.5 15.5q-86 0 -145.5 -56.5t-88.5 -140.5z" />
<glyph unicode="&#x12a;" horiz-adv-x="841" d="M328 1434v-1434h186v1434h-186zM100 1604h641v82h-641v-82z" />
<glyph unicode="&#x12b;" horiz-adv-x="630" d="M229 1024v-1024h174v1024h-174zM-4 1194h641v82h-641v-82z" />
<glyph unicode="&#x12c;" horiz-adv-x="841" d="M328 1434v-1434h186v1434h-186zM119 1868q0 -57 22.5 -108.5t63.5 -89.5t95 -59.5t120 -21.5q63 0 118.5 21.5t96.5 59.5t63.5 89t22.5 109h-86q-4 -92 -66.5 -148.5t-148.5 -56.5q-84 0 -146.5 56.5t-68.5 148.5h-86z" />
<glyph unicode="&#x12e;" horiz-adv-x="841" d="M416 0l-94 -68q-55 -41 -101.5 -90t-46.5 -108q0 -70 48 -96.5t104 -26.5q47 0 93 16.5t79 40.5l-23 56q-20 -10 -51 -22.5t-59 -12.5q-43 0 -54.5 26.5t-11.5 38.5q0 35 18.5 68t49 64.5t69.5 60t78 53.5v1434h-186v-1434h88z" />
<glyph unicode="&#x12f;" horiz-adv-x="630" d="M229 1024v-1024h68l-88 -63q-55 -41 -101.5 -90.5t-46.5 -108.5q0 -70 48.5 -96.5t103.5 -26.5q47 0 93 16.5t79 40.5l-23 56q-20 -10 -50.5 -22.5t-59.5 -12.5q-43 0 -54.5 26.5t-11.5 38.5q0 33 18.5 66t48.5 63.5t66.5 59t75.5 53.5h8v1024h-174zM205 1348 q0 -45 32.5 -78t77.5 -33t78 33t33 78t-33 77.5t-78 32.5t-77.5 -32.5t-32.5 -77.5z" />
<glyph unicode="&#x130;" horiz-adv-x="841" d="M328 1434v-1434h186v1434h-186zM309 1757q0 -45 33 -77.5t78 -32.5t77.5 32.5t32.5 77.5t-32.5 78t-77.5 33t-78 -33t-33 -78z" />
<glyph unicode="&#x131;" horiz-adv-x="630" d="M229 1024v-1024h174v1024h-174zM205 1348q0 -45 32.5 -78t77.5 -33t78 33t33 78t-33 77.5t-78 32.5t-77.5 -32.5t-32.5 -77.5z" />
<glyph unicode="&#x134;" horiz-adv-x="1069" d="M637 1434v-1035q0 -49 -3 -107.5t-23.5 -108.5t-62.5 -83.5t-120 -33.5q-68 0 -112 24.5t-69.5 61t-36.5 78.5t-11 75h-179q4 -158 102.5 -244t295.5 -86q141 0 223 42t122 106.5t50 140.5t10 142v1028h-186zM711 1696l23 -14q22 -13 55.5 -33.5t73.5 -45t74 -46 t57 -35.5l22 -15l51 64l-23 23q-22 22 -56 54.5t-74 71.5t-73.5 72t-56.5 54l-22 22h-103l-23 -22q-22 -23 -55.5 -56t-73.5 -72t-74 -71.5t-56.5 -55t-22.5 -20.5l49 -62l24 13q24 14 57.5 35.5t73.5 45t74 45t45 28.5z" />
<glyph unicode="&#x135;" horiz-adv-x="595" d="M231 1024v-1212q0 -47 -4 -91.5t-17 -79t-39 -55t-67 -20.5q-51 0 -76.5 24.5t-47.5 77.5l-103 -80q45 -59 105.5 -79.5t126.5 -20.5q45 0 97 16.5t97 62.5t75 127t30 210v1120h-177zM322 1237q27 0 43 8q35 -23 74.5 -47t76.5 -47q41 -27 86 -53l51 63q-43 39 -82 78 q-35 35 -73.5 73t-73.5 72q-20 51 -72 68q-2 2 -2 4l-2 2h-18h-8h-76l-22 -22q-23 -23 -57 -55.5t-74 -71.5t-73.5 -72t-56 -55.5t-22.5 -20.5l49 -61l30 18q29 17 71 42.5t87 53t76 46.5q29 -23 68 -23z" />
<glyph unicode="&#x136;" horiz-adv-x="1482" d="M246 0h186v504l232 248l544 -752h213l-639 879l521 555h-103l-768 -807v807h-186v-1434zM918 -100h-193v-351h70z" />
<glyph unicode="&#x137;" horiz-adv-x="1097" d="M338 1434h-174v-1434h174v385l119 121l411 -506h230l-514 631l391 393h-133l-504 -508v918zM690 -100h-192v-351h69z" />
<glyph unicode="&#x138;" horiz-adv-x="1097" d="M338 1024h-174v-1024h174v385l119 121l411 -506h230l-514 631l391 393h-133l-504 -508v508z" />
<glyph unicode="&#x139;" d="M246 0v1434h186v-1321h739v-113h-925zM424 1868h227l-317 -260h-80z" />
<glyph unicode="&#x13a;" horiz-adv-x="583" d="M379 1434h-174v-1434h174v1434zM356 1853h228l-318 -260h-80z" />
<glyph unicode="&#x13b;" d="M246 0v1434h186v-1321h739v-113h-925zM823 -100h-192v-351h69z" />
<glyph unicode="&#x13c;" horiz-adv-x="583" d="M379 1434h-174v-1434h174v1434zM391 -100h-192v-351h69z" />
<glyph unicode="&#x13d;" d="M246 0v1434h186v-1321h739v-113h-925zM786 1436h-194v-529h74z" />
<glyph unicode="&#x13e;" horiz-adv-x="854" d="M379 1434h-174v-1434h174v1434zM696 1434h-194v-529h73z" />
<glyph unicode="&#x13f;" d="M246 0v1434h186v-1321h739v-113h-925zM506 1167q0 -45 32.5 -77.5t77.5 -32.5t78 32.5t33 77.5t-32.5 78t-78.5 33q-45 0 -77.5 -33t-32.5 -78z" />
<glyph unicode="&#x140;" horiz-adv-x="1050" d="M379 1434h-174v-1434h174v1434zM436 758q0 -45 33 -78t78 -33t77.5 33t32.5 78t-32.5 77.5t-77.5 32.5t-78 -32.5t-33 -77.5z" />
<glyph unicode="&#x141;" d="M246 0v559l-152 -102l-41 59l193 131v787h186v-660l154 107l43 -62l-197 -133v-573h739v-113h-925z" />
<glyph unicode="&#x142;" horiz-adv-x="657" d="M412 1434h-172v-783l-199 -135l41 -59l158 106v-563h174v682l202 137l-43 62l-161 -111v664z" />
<glyph unicode="&#x143;" horiz-adv-x="1740" d="M1401 1434v-1096h-8l-1137 1120h-10v-1458h94v1096h8l1137 -1121h10v1459h-94zM842 1868h227l-317 -260h-80z" />
<glyph unicode="&#x144;" horiz-adv-x="1189" d="M1020 0v664q0 37 -6 101t-40 126.5t-107.5 109t-209.5 46.5q-59 2 -132.5 -24t-145.5 -97l-33 -33h-8v131h-174v-1024h174v633q0 80 22.5 137t61.5 96t89 57.5t103 18.5q86 0 133.5 -34t69 -79t25.5 -90t4 -65v-674h174zM565 1458h228l-318 -260h-80z" />
<glyph unicode="&#x145;" horiz-adv-x="1740" d="M1401 1434v-1096h-8l-1137 1120h-10v-1458h94v1096h8l1137 -1121h10v1459h-94zM1004 -100h-193v-351h70z" />
<glyph unicode="&#x146;" horiz-adv-x="1189" d="M1020 0v664q0 37 -6 101t-40 126.5t-107.5 109t-209.5 46.5h-8q-59 0 -129.5 -26t-140.5 -95l-33 -33h-8v131h-174v-1024h174v633q0 80 22.5 137t61.5 96t89 57.5t103 18.5q86 0 133.5 -34t69 -79t25.5 -90t4 -65v-674h174zM707 -100h-193v-351h70z" />
<glyph unicode="&#x147;" horiz-adv-x="1740" d="M1401 1434v-1096h-8l-1137 1120h-10v-1458h94v1096h8l1137 -1121h10v1459h-94zM868 1681q0 -2 22.5 12.5t56.5 35t74 45t73.5 46t56.5 36.5l23 14l51 -64l-23 -22q-22 -23 -56 -55.5t-74 -71.5t-73.5 -72t-56.5 -55l-22 -21h-103l-23 23q-22 22 -55.5 55t-73.5 72 t-74 71.5t-57 53.5l-22 22l49 62l23 -14q24 -13 58 -34.5t74 -45t73.5 -45t44.5 -27.5z" />
<glyph unicode="&#x148;" horiz-adv-x="1189" d="M1020 0v664q0 37 -6 101t-40 126.5t-107.5 109t-209.5 46.5q-59 2 -132.5 -24t-145.5 -97l-33 -33h-8v131h-174v-1024h174v633q0 80 22.5 137t61.5 96t89 57.5t103 18.5q86 0 133.5 -34t69 -79t25.5 -90t4 -65v-674h174zM594 1272q0 -2 22.5 12t56.5 34.5t73.5 45.5 t73.5 46.5t56 35.5l23 14l51 -63l-22 -23q-23 -22 -56.5 -55t-73.5 -72t-74 -71.5t-56 -53.5l-23 -22h-102l-23 22q-22 23 -56 55.5t-74 71.5t-73.5 72t-56.5 55l-22 21l49 61l23 -13q24 -13 57.5 -34.5t73.5 -45.5t74 -45.5t45 -27.5z" />
<glyph unicode="&#x149;" horiz-adv-x="1189" d="M473 1458h193v-344h-70zM1020 0v664q0 37 -6 101t-40 126.5t-107.5 109t-209.5 46.5q-59 2 -132.5 -24t-145.5 -97l-33 -33h-8v131h-174v-1024h174v633q0 80 22.5 137t61.5 96t89 57.5t103 18.5q86 0 133.5 -34t69 -79t25.5 -90t4 -65v-674h174z" />
<glyph unicode="&#x14c;" horiz-adv-x="1771" d="M102 717q0 -115 44 -245t138.5 -240.5t240 -183.5t347.5 -73q137 0 249 34t201 91.5t154.5 132t107.5 157.5t63.5 167t21.5 160q0 115 -47 245t-145.5 240.5t-249 183t-355.5 72.5q-203 0 -348 -71.5t-239.5 -181t-138.5 -240.5t-44 -248zM303 717q0 143 44 263t121 206 t181.5 134t227.5 48q121 0 228 -48t188 -134t128 -206t47 -263t-47 -263t-128 -206t-188.5 -134t-227.5 -48q-123 0 -227.5 48t-181.5 134t-121 206t-44 263zM565 1604h641v82h-641v-82z" />
<glyph unicode="&#x14d;" horiz-adv-x="1265" d="M1163 510q0 -106 -36.5 -203.5t-105.5 -171.5t-166 -117t-218 -43q-123 0 -222.5 44t-168 118t-106.5 171.5t-38 201.5q0 106 38 203.5t106.5 171t168 118t222.5 44.5q121 0 218 -44.5t166 -118t105.5 -171t36.5 -203.5zM969 510q0 143 -31 232t-80 138.5t-108.5 67 t-114.5 17.5t-114.5 -17.5t-110 -67t-82 -138.5t-31.5 -232q0 -141 31.5 -230.5t82 -138.5t110 -66.5t114.5 -17.5t114.5 17.5t108.5 66.5t80 138.5t31 230.5zM311 1194h641v82h-641v-82z" />
<glyph unicode="&#x14e;" horiz-adv-x="1771" d="M102 717q0 -115 44 -245t138.5 -240.5t240 -183.5t347.5 -73q137 0 249 34t201 91.5t154.5 132t107.5 157.5t63.5 167t21.5 160q0 115 -47 245t-145.5 240.5t-249 183t-355.5 72.5q-203 0 -348 -71.5t-239.5 -181t-138.5 -240.5t-44 -248zM303 717q0 143 44 263t121 206 t181.5 134t227.5 48q121 0 228 -48t188 -134t128 -206t47 -263t-47 -263t-128 -206t-188.5 -134t-227.5 -48q-123 0 -227.5 48t-181.5 134t-121 206t-44 263zM584 1868q0 -57 22.5 -108.5t63.5 -89.5t95 -59.5t120 -21.5q63 0 118.5 21.5t96.5 59.5t63.5 89t22.5 109h-86 q-4 -92 -66.5 -148.5t-148.5 -56.5q-84 0 -146.5 56.5t-68.5 148.5h-86z" />
<glyph unicode="&#x14f;" horiz-adv-x="1265" d="M1163 510q0 -106 -36.5 -203.5t-105.5 -171.5t-166 -117t-218 -43q-123 0 -222.5 44t-168 118t-106.5 171.5t-38 201.5q0 106 38 203.5t106.5 171t168 118t222.5 44.5q121 0 218 -44.5t166 -118t105.5 -171t36.5 -203.5zM969 510q0 143 -31 232t-80 138.5t-108.5 67 t-114.5 17.5t-114.5 -17.5t-110 -67t-82 -138.5t-31.5 -232q0 -141 31.5 -230.5t82 -138.5t110 -66.5t114.5 -17.5t114.5 17.5t108.5 66.5t80 138.5t31 230.5zM332 1458q0 -57 22.5 -108.5t63.5 -89t95 -59t120 -21.5q63 0 118.5 21.5t96.5 59t63.5 89t22.5 108.5h-86 q-4 -92 -66.5 -148.5t-148.5 -56.5q-84 0 -146.5 56.5t-68.5 148.5h-86z" />
<glyph unicode="&#x150;" horiz-adv-x="1771" d="M102 717q0 -115 44 -245t138.5 -240.5t240 -183.5t347.5 -73q137 0 249 34t201 91.5t154.5 132t107.5 157.5t63.5 167t21.5 160q0 115 -47 245t-145.5 240.5t-249 183t-355.5 72.5q-203 0 -348 -71.5t-239.5 -181t-138.5 -240.5t-44 -248zM303 717q0 143 44 263t121 206 t181.5 134t227.5 48q121 0 228 -48t188 -134t128 -206t47 -263t-47 -263t-128 -206t-188.5 -134t-227.5 -48q-123 0 -227.5 48t-181.5 134t-121 206t-44 263zM690 1868h228l-252 -260h-80zM956 1868h228l-252 -260h-80z" />
<glyph unicode="&#x151;" horiz-adv-x="1265" d="M1163 510q0 -106 -36.5 -203.5t-105.5 -171.5t-166 -117t-218 -43q-123 0 -222.5 44t-168 118t-106.5 171.5t-38 201.5q0 106 38 203.5t106.5 171t168 118t222.5 44.5q121 0 218 -44.5t166 -118t105.5 -171t36.5 -203.5zM969 510q0 143 -31 232t-80 138.5t-108.5 67 t-114.5 17.5t-114.5 -17.5t-110 -67t-82 -138.5t-31.5 -232q0 -141 31.5 -230.5t82 -138.5t110 -66.5t114.5 -17.5t114.5 17.5t108.5 66.5t80 138.5t31 230.5zM438 1458h228l-252 -260h-80zM705 1458h227l-252 -260h-80z" />
<glyph unicode="&#x152;" horiz-adv-x="2207" d="M1204 145q-43 -27 -113.5 -53t-181.5 -26q-113 0 -207 37.5t-166.5 101t-123 147.5t-70.5 176q-10 47 -13 93.5t-3 95.5q0 51 3 96t13 92q18 92 67.5 175t123 146.5t169 101.5t207.5 38q111 0 181.5 -28.5t113.5 -53.5v-1139zM1389 1319h720v115h-987q-57 12 -108 17 t-109 5q-102 0 -211.5 -25.5t-210 -84t-183.5 -152.5t-134 -233q-23 -59 -34 -120t-11 -124q0 -117 46 -247t141 -239.5t243.5 -182.5t353.5 -73q51 0 103.5 7.5t105.5 17.5h1032v113h-757v604h614v90h-614v512z" />
<glyph unicode="&#x153;" horiz-adv-x="1994" d="M1137 563v25q0 80 21.5 151.5t60 125t92 84t116.5 30.5q61 0 114.5 -28.5t91.5 -83t60.5 -131.5t22.5 -173h-579zM940 514q0 -143 -31.5 -233.5t-81 -142.5t-109 -71.5t-114.5 -19.5q-57 0 -115.5 19.5t-105.5 71.5t-77 142.5t-30 233.5t30 233.5t77 141.5t105.5 70.5 t115.5 19.5q55 0 114.5 -19.5t109 -70.5t81 -141.5t31.5 -233.5zM1137 492h766v38q0 135 -39 233.5t-104.5 162t-149.5 94.5t-176 31q-51 0 -107.5 -11.5t-110 -37t-101.5 -64.5t-83 -94q-33 35 -73.5 71.5t-93 66.5t-118 49.5t-145.5 19.5q-123 0 -219 -44t-163.5 -118 t-102.5 -171t-35 -204q0 -109 35 -206t102.5 -171t163.5 -118t219 -44q141 0 252 57.5t182 160.5q72 -109 188.5 -163.5t252.5 -54.5q121 0 238.5 49.5t197.5 141.5l-58 61q-80 -82 -156.5 -125t-180.5 -43q-100 0 -173 37t-119 95.5t-67.5 130t-21.5 143.5v27z" />
<glyph unicode="&#x154;" horiz-adv-x="1470" d="M246 1434v-1434h186v633h90q57 0 95 -10.5t69 -35t57.5 -63.5t63.5 -96l162 -240q31 -47 60.5 -86t64 -66.5t79 -44t105.5 -16.5q45 0 73.5 4.5t57.5 20.5v76q-10 -2 -20.5 -3t-20.5 -1q-43 0 -75.5 12t-61.5 35.5t-55.5 57.5t-55.5 77q-86 125 -133 199.5t-74.5 115.5 t-45 59.5t-42.5 30.5l-20 11v8q98 6 168.5 43t116 92t66 119.5t20.5 126.5q0 55 -21.5 120.5t-74 122t-142.5 94.5t-227 38h-465zM432 1343h207q78 0 140.5 -22.5t107.5 -62t68.5 -95t23.5 -121.5q0 -55 -21.5 -111.5t-64.5 -102.5t-105.5 -74.5t-144.5 -28.5h-211v618z M707 1868h227l-318 -260h-79z" />
<glyph unicode="&#x155;" horiz-adv-x="782" d="M164 1024v-1024h174v618q0 84 19.5 142.5t50 95.5t67.5 53.5t72 16.5q47 0 87 -31t58 -57l70 127q-18 25 -44 41t-51.5 25t-47 12.5t-31.5 3.5q-86 0 -143.5 -47.5t-94.5 -139.5h-12v164h-174zM362 1458h228l-318 -260h-79z" />
<glyph unicode="&#x156;" horiz-adv-x="1449" d="M246 1434v-1434h186v633h90q59 0 109.5 -26.5t96.5 -75t92 -117t102 -154.5l24 -39q33 -53 64.5 -98t68.5 -78t84 -51.5t115 -18.5q45 0 73.5 4.5t57.5 20.5v76q-10 -2 -20.5 -3t-20.5 -1q-43 0 -75.5 12t-61.5 35.5t-55.5 57.5t-55.5 77q-86 125 -136 200.5t-80 118.5 t-46 60.5t-33 25.5l-20 11v8q98 6 168.5 43t116 92t66 119.5t20.5 126.5q0 55 -21.5 120.5t-74 122t-142.5 94.5t-227 38h-465zM432 1343h207q78 0 140.5 -22.5t107.5 -62t68.5 -95t23.5 -121.5q0 -55 -21.5 -111.5t-64.5 -102.5t-105.5 -74.5t-144.5 -28.5h-211v618z M862 -100h-192v-351h69z" />
<glyph unicode="&#x157;" horiz-adv-x="782" d="M164 1024v-1024h174v618q0 84 19.5 142.5t50 95.5t67.5 53.5t72 16.5q47 0 87 -31t58 -57l70 127q-18 25 -44 41t-51.5 25t-47 12.5t-31.5 3.5q-86 0 -143.5 -47.5t-94.5 -139.5h-12v164h-174zM356 -100h-192v-351h69z" />
<glyph unicode="&#x158;" horiz-adv-x="1470" d="M246 1434v-1434h186v633h90q57 0 95 -10.5t69 -35t57.5 -63.5t63.5 -96l162 -240q31 -47 60.5 -86t64 -66.5t79 -44t105.5 -16.5q45 0 73.5 4.5t57.5 20.5v76q-10 -2 -20.5 -3t-20.5 -1q-43 0 -75.5 12t-61.5 35.5t-55.5 57.5t-55.5 77q-86 125 -133 199.5t-74.5 115.5 t-45 59.5t-42.5 30.5l-20 11v8q98 6 168.5 43t116 92t66 119.5t20.5 126.5q0 55 -21.5 120.5t-74 122t-142.5 94.5t-227 38h-465zM432 1343h207q78 0 140.5 -22.5t107.5 -62t68.5 -95t23.5 -121.5q0 -55 -21.5 -111.5t-64.5 -102.5t-105.5 -74.5t-144.5 -28.5h-211v618z M733 1681q0 -2 22.5 12.5t56.5 35t74 45t73.5 46t56.5 36.5l22 14l52 -64l-23 -22q-23 -23 -56.5 -55.5t-73.5 -71.5t-74 -72t-57 -55l-22 -21h-102l-22 23q-23 22 -57 55t-74 72t-73.5 71.5t-55.5 53.5l-23 22l49 62l24 -14q23 -13 57 -34.5t74 -45t73.5 -45t45.5 -27.5z " />
<glyph unicode="&#x159;" horiz-adv-x="782" d="M164 1024v-1024h174v618q0 84 19.5 142.5t50 95.5t67.5 53.5t72 16.5q47 0 87 -31t58 -57l70 127q-18 25 -44 41t-51.5 25t-47 12.5t-31.5 3.5q-86 0 -143.5 -47.5t-94.5 -139.5h-12v164h-174zM389 1272q0 -2 22.5 12t56.5 34.5t74 45.5t73.5 46.5t56.5 35.5l22 14 l51 -63l-23 -23q-22 -22 -55.5 -55t-73.5 -72t-74 -71.5t-57 -53.5l-22 -22h-102l-22 22q-23 23 -57 55.5t-74 71.5t-73.5 72t-55.5 55l-23 21l49 61l24 -13q23 -13 57 -34.5t73.5 -45.5t73.5 -45.5t46 -27.5z" />
<glyph unicode="&#x15a;" horiz-adv-x="1280" d="M76 362q4 -88 46 -159.5t114.5 -121.5t171 -78t215.5 -28q119 0 214 29t162.5 82t104.5 129t37 168q0 127 -63.5 208t-159 135t-207 91t-206.5 78t-158.5 94t-63.5 141q0 49 21.5 92.5t63.5 75t103 51t141 19.5q133 0 226.5 -56.5t109.5 -176.5h139q-12 76 -55 136 t-108.5 102t-148.5 63.5t-173 21.5q-94 0 -179 -24.5t-149.5 -71.5t-102.5 -119t-38 -164q0 -121 61.5 -194.5t154.5 -122.5t201.5 -84t202 -79t155 -107.5t61.5 -169.5q0 -133 -97.5 -194.5t-259.5 -61.5q-129 0 -206.5 33.5t-118.5 80.5t-55.5 97.5t-16.5 84.5h-139z M610 1868h228l-318 -260h-80z" />
<glyph unicode="&#x15b;" horiz-adv-x="983" d="M817 791q0 55 -28.5 102t-79 81t-117 53.5t-141.5 19.5q-72 0 -134.5 -18.5t-108.5 -55.5t-72.5 -91.5t-26.5 -125.5q0 -98 45 -155.5t112.5 -92.5t146.5 -56.5t146.5 -47t112.5 -64.5t45 -107q0 -29 -9.5 -59.5t-34 -56t-67.5 -43t-108 -17.5q-82 0 -138.5 26 t-92.5 61.5t-51 72.5t-15 62h-133q0 -57 26.5 -111.5t80.5 -97.5t133 -69t184 -26q188 0 283 83t95 218q0 98 -46 158t-115.5 95.5t-150.5 58t-150.5 47t-115.5 59.5t-46 99q0 27 10 56.5t34.5 55t65.5 43t103 17.5q61 0 106 -17.5t76 -43t45 -56.5t14 -57h117zM463 1458 h227l-317 -260h-80z" />
<glyph unicode="&#x15c;" horiz-adv-x="1280" d="M76 362q4 -88 46 -159.5t114.5 -121.5t171 -78t215.5 -28q119 0 214 29t162.5 82t104.5 129t37 168q0 127 -63.5 208t-159 135t-207 91t-206.5 78t-158.5 94t-63.5 141q0 49 21.5 92.5t63.5 75t103 51t141 19.5q133 0 226.5 -56.5t109.5 -176.5h139q-12 76 -55 136 t-108.5 102t-148.5 63.5t-173 21.5q-94 0 -179 -24.5t-149.5 -71.5t-102.5 -119t-38 -164q0 -121 61.5 -194.5t154.5 -122.5t201.5 -84t202 -79t155 -107.5t61.5 -169.5q0 -133 -97.5 -194.5t-259.5 -61.5q-129 0 -206.5 33.5t-118.5 80.5t-55.5 97.5t-16.5 84.5h-139z M639 1696l23 -14q22 -13 56 -33.5t73.5 -45t73.5 -46t57 -35.5l22 -15l51 64l-23 23q-22 22 -55.5 54.5t-73.5 71.5t-74 72t-57 54l-22 22h-102l-22 -22q-23 -23 -57 -56t-74 -72t-73.5 -71.5t-56 -55t-22.5 -20.5l49 -62l24 13q23 14 56.5 35.5t73.5 45t74 45t45 28.5z" />
<glyph unicode="&#x15d;" horiz-adv-x="983" d="M817 791q0 55 -28.5 102t-79 81t-117 53.5t-141.5 19.5q-72 0 -134.5 -18.5t-108.5 -55.5t-72.5 -91.5t-26.5 -125.5q0 -98 45 -155.5t112.5 -92.5t146.5 -56.5t146.5 -47t112.5 -64.5t45 -107q0 -29 -9.5 -59.5t-34 -56t-67.5 -43t-108 -17.5q-82 0 -138.5 26 t-92.5 61.5t-51 72.5t-15 62h-133q0 -57 26.5 -111.5t80.5 -97.5t133 -69t184 -26q188 0 283 83t95 218q0 98 -46 158t-115.5 95.5t-150.5 58t-150.5 47t-115.5 59.5t-46 99q0 27 10 56.5t34.5 55t65.5 43t103 17.5q61 0 106 -17.5t76 -43t45 -56.5t14 -57h117zM489 1286 l23 -13t56.5 -33.5t73.5 -45.5t74 -46.5t56 -35.5l23 -14l51 63l-22 23q-23 22 -57 55t-74 72t-73.5 71.5t-55.5 53.5l-23 22h-103l-22 -22q-23 -23 -56.5 -55.5t-73.5 -71.5t-74 -72t-56.5 -55.5t-22.5 -20.5l49 -61l24 13q23 13 57 34.5t74 45.5t73.5 45.5t45.5 27.5z" />
<glyph unicode="&#x15e;" horiz-adv-x="1280" d="M123 362q2 -86 44 -157.5t112.5 -122.5t166 -79t205.5 -28q246 0 386.5 109t140.5 305q0 133 -63.5 218t-159 140.5t-207 91t-207 74.5t-159 89.5t-63.5 134.5q0 45 21.5 87t63.5 73.5t104.5 51t142.5 19.5q131 0 210 -56.5t95 -176.5h162q-12 80 -56 140t-108.5 101 t-144.5 61.5t-162 20.5q-100 0 -187 -24.5t-151.5 -72.5t-101.5 -120t-37 -166q0 -135 61.5 -217t154.5 -132t201.5 -83t202 -69.5t155 -91t61.5 -148.5q0 -74 -26 -124t-72 -83t-111.5 -47t-143.5 -14q-100 0 -167.5 33.5t-109.5 80.5t-60.5 97.5t-20.5 84.5h-172z M760 -100h-193v-351h70z" />
<glyph unicode="&#x15f;" horiz-adv-x="983" d="M829 791q0 55 -25.5 102t-72.5 81t-112.5 53.5t-145.5 19.5q-70 0 -130 -17.5t-104 -54.5t-70 -95.5t-26 -140.5q0 -74 43 -125t108.5 -90t140.5 -69.5t140.5 -62.5t108.5 -69.5t43 -91.5q0 -27 -10 -57.5t-36 -56t-72 -43t-117 -17.5q-72 0 -119 24.5t-76 59.5t-41 73 t-12 65h-142q0 -57 24 -111.5t72 -97.5t120.5 -69t170.5 -26q104 0 179 21.5t122.5 61.5t69 93.5t21.5 118.5q0 86 -44 144.5t-112 99.5t-144.5 71.5t-144 59.5t-111.5 62.5t-44 83.5q0 27 9 57.5t31.5 57t62.5 43t99 16.5q66 0 110 -17.5t69.5 -43t37 -56.5t11.5 -57h118z M598 -100h-192v-351h69z" />
<glyph unicode="&#x160;" horiz-adv-x="1280" d="M76 362q4 -88 46 -159.5t114.5 -121.5t171 -78t215.5 -28q119 0 214 29t162.5 82t104.5 129t37 168q0 127 -63.5 208t-159 135t-207 91t-206.5 78t-158.5 94t-63.5 141q0 49 21.5 92.5t63.5 75t103 51t141 19.5q133 0 226.5 -56.5t109.5 -176.5h139q-12 76 -55 136 t-108.5 102t-148.5 63.5t-173 21.5q-94 0 -179 -24.5t-149.5 -71.5t-102.5 -119t-38 -164q0 -121 61.5 -194.5t154.5 -122.5t201.5 -84t202 -79t155 -107.5t61.5 -169.5q0 -133 -97.5 -194.5t-259.5 -61.5q-129 0 -206.5 33.5t-118.5 80.5t-55.5 97.5t-16.5 84.5h-139z M639 1681q0 -2 22.5 12.5t56.5 35t73.5 45t73.5 46t57 36.5l22 14l51 -64l-23 -22q-22 -23 -55.5 -55.5t-73.5 -71.5t-74 -72t-57 -55l-22 -21h-102l-22 23q-23 22 -57 55t-74 72t-73.5 71.5t-55.5 53.5l-23 22l49 62l24 -14q23 -13 56.5 -34.5t73.5 -45t74 -45t45 -27.5z " />
<glyph unicode="&#x161;" horiz-adv-x="983" d="M817 791q0 55 -28.5 102t-79 81t-117 53.5t-141.5 19.5q-72 0 -134.5 -18.5t-108.5 -55.5t-72.5 -91.5t-26.5 -125.5q0 -98 45 -155.5t112.5 -92.5t146.5 -56.5t146.5 -47t112.5 -64.5t45 -107q0 -29 -9.5 -59.5t-34 -56t-67.5 -43t-108 -17.5q-82 0 -138.5 26 t-92.5 61.5t-51 72.5t-15 62h-133q0 -57 26.5 -111.5t80.5 -97.5t133 -69t184 -26q188 0 283 83t95 218q0 98 -46 158t-115.5 95.5t-150.5 58t-150.5 47t-115.5 59.5t-46 99q0 27 10 56.5t34.5 55t65.5 43t103 17.5q61 0 106 -17.5t76 -43t45 -56.5t14 -57h117zM489 1272 q0 -2 23 12t56.5 34.5t73.5 45.5t74 46.5t56 35.5l23 14l51 -63l-22 -23q-23 -22 -57 -55t-74 -72t-73.5 -71.5t-55.5 -53.5l-23 -22h-103l-22 22q-23 23 -56.5 55.5t-73.5 71.5t-74 72t-56 55l-23 21l49 61l24 -13q23 -13 57 -34.5t74 -45.5t73.5 -45.5t45.5 -27.5z" />
<glyph unicode="&#x162;" horiz-adv-x="1366" d="M776 0v1321h549v113h-1284v-113h549v-1321h186zM782 -100h-192v-351h69z" />
<glyph unicode="&#x163;" horiz-adv-x="768" d="M61 942v82h179v315h174v-315h248v-82h-248v-680q0 -25 2 -56.5t12 -59t31.5 -46t60.5 -18.5q49 0 82 37t53 80l97 -99q-100 -100 -228 -100q-53 0 -104 18.5t-91 56.5t-64.5 97t-24.5 139v631h-179zM598 -100h-192v-351h69z" />
<glyph unicode="&#x164;" horiz-adv-x="1366" d="M776 0v1321h549v113h-1284v-113h549v-1321h186zM682 1681q0 -2 22.5 12.5t56.5 35t73.5 45t73.5 46t56 36.5l23 14l51 -64l-22 -22q-23 -23 -56.5 -55.5t-73.5 -71.5t-74 -72t-56 -55l-23 -21h-102l-23 23q-22 22 -56 55t-74 72t-73.5 71.5t-56.5 53.5l-22 22l49 62 l23 -14q24 -13 57.5 -34.5t73.5 -45t74 -45t45 -27.5z" />
<glyph unicode="&#x165;" horiz-adv-x="1167" d="M61 942v82h179v315h174v-315h248v-82h-248v-680q0 -25 2 -56.5t12 -59t31.5 -46t60.5 -18.5q49 0 82 37t53 80l97 -99q-100 -100 -228 -100q-53 0 -104 18.5t-91 56.5t-64.5 97t-24.5 139v631h-179zM1065 1470h-195v-528h74z" />
<glyph unicode="&#x166;" horiz-adv-x="1366" d="M362 965h228v-965h186v965h228v82h-228v274h549v113h-1284v-113h549v-274h-228v-82z" />
<glyph unicode="&#x167;" horiz-adv-x="768" d="M63 803h177v139h-179v82h179v315h174v-315h248v-82h-248v-139h250v-86h-250v-455q0 -25 2 -56.5t12 -59t31.5 -46t60.5 -18.5q49 0 82 37t53 80l97 -99q-100 -100 -228 -100q-53 0 -104 18.5t-91 56.5t-64.5 97t-24.5 139v406h-177v86z" />
<glyph unicode="&#x168;" horiz-adv-x="1474" d="M164 1434v-881q0 -84 16.5 -185.5t77.5 -188.5t182 -145.5t330 -58.5q131 0 232.5 41t170 113t103.5 167t35 204v934h-90v-867q0 -45 -2 -91t-12.5 -92t-32 -91t-62.5 -90q-74 -80 -166 -108.5t-192 -28.5q-86 0 -152.5 26.5t-126.5 79.5q-47 41 -71.5 82t-37 81 t-14.5 81t-2 82v936h-186zM412 1616q23 39 58.5 64.5t70.5 25.5q27 0 52 -8t48 -19q74 -29 135.5 -51t114.5 -22q72 0 132 48t95 156l-61 29q-23 -53 -57.5 -72.5t-69.5 -19.5q-25 0 -48.5 6t-41.5 10q-88 29 -150.5 54.5t-109.5 25.5q-78 0 -136.5 -56t-87.5 -140z" />
<glyph unicode="&#x169;" horiz-adv-x="1189" d="M164 1024v-666q0 -37 7 -101t42 -126.5t109.5 -109t209.5 -46.5q59 -2 130 24t143 97l33 33h8v-129h174v1024h-174v-635q0 -80 -22.5 -137t-59.5 -95t-86 -56.5t-103 -18.5q-86 0 -134 34t-71.5 79t-27.5 89t-4 64v676h-174zM268 1206q23 39 58.5 64.5t70.5 25.5 q27 0 52.5 -8t48.5 -18q74 -29 135 -51.5t115 -22.5q72 0 132 48t95 157l-62 29q-23 -53 -57.5 -73t-69.5 -20q-25 0 -48 6.5t-42 10.5q-88 29 -150.5 54.5t-109.5 25.5q-78 0 -136 -56.5t-87 -140.5z" />
<glyph unicode="&#x16a;" horiz-adv-x="1474" d="M164 1434v-881q0 -84 16.5 -185.5t77.5 -188.5t182 -145.5t330 -58.5q131 0 232.5 41t170 113t103.5 167t35 204v934h-90v-867q0 -45 -2 -91t-12.5 -92t-32 -91t-62.5 -90q-74 -80 -166 -108.5t-192 -28.5q-86 0 -152.5 26.5t-126.5 79.5q-47 41 -71.5 82t-37 81 t-14.5 81t-2 82v936h-186zM416 1604h641v82h-641v-82z" />
<glyph unicode="&#x16b;" horiz-adv-x="1189" d="M164 1024v-666q0 -37 7 -101t42 -126.5t109.5 -109t209.5 -46.5q59 -2 130 24t143 97l33 33h8v-129h174v1024h-174v-635q0 -80 -22.5 -137t-59.5 -95t-86 -56.5t-103 -18.5q-86 0 -134 34t-71.5 79t-27.5 89t-4 64v676h-174zM274 1194h641v82h-641v-82z" />
<glyph unicode="&#x16c;" horiz-adv-x="1474" d="M164 1434v-881q0 -84 16.5 -185.5t77.5 -188.5t182 -145.5t330 -58.5q131 0 232.5 41t170 113t103.5 167t35 204v934h-90v-867q0 -45 -2 -91t-12.5 -92t-32 -91t-62.5 -90q-74 -80 -166 -108.5t-192 -28.5q-86 0 -152.5 26.5t-126.5 79.5q-47 41 -71.5 82t-37 81 t-14.5 81t-2 82v936h-186zM436 1868q0 -57 22.5 -108.5t63.5 -89.5t95.5 -59.5t119.5 -21.5q63 0 118.5 21.5t96.5 59.5t63.5 89t22.5 109h-86q-4 -92 -66.5 -148.5t-148.5 -56.5q-84 0 -146.5 56.5t-68.5 148.5h-86z" />
<glyph unicode="&#x16d;" horiz-adv-x="1189" d="M164 1024v-666q0 -37 7 -101t42 -126.5t109.5 -109t209.5 -46.5q59 -2 130 24t143 97l33 33h8v-129h174v1024h-174v-635q0 -80 -22.5 -137t-59.5 -95t-86 -56.5t-103 -18.5q-86 0 -134 34t-71.5 79t-27.5 89t-4 64v676h-174zM293 1458q0 -57 22.5 -108.5t63.5 -89t95 -59 t120 -21.5q63 0 118.5 21.5t96.5 59t63.5 89t22.5 108.5h-86q-4 -92 -66.5 -148.5t-148.5 -56.5q-84 0 -146.5 56.5t-68.5 148.5h-86z" />
<glyph unicode="&#x16e;" horiz-adv-x="1474" d="M164 1434v-881q0 -84 16.5 -185.5t77.5 -188.5t182 -145.5t330 -58.5q131 0 232.5 41t170 113t103.5 167t35 204v934h-90v-867q0 -45 -2 -91t-12.5 -92t-32 -91t-62.5 -90q-74 -80 -166 -108.5t-192 -28.5q-86 0 -152.5 26.5t-126.5 79.5q-47 41 -71.5 82t-37 81 t-14.5 81t-2 82v936h-186zM616 1698q0 51 35 85t86 34q49 0 85 -34t36 -85t-36 -86t-85 -35q-51 0 -86 35t-35 86zM549 1698q0 -39 14.5 -73t40 -59.5t60 -41t73.5 -15.5t74 15.5t60.5 41t40 59.5t14.5 73q0 31 -11.5 64.5t-35 60t-59.5 44t-83 17.5t-81.5 -17.5t-58.5 -44 t-36 -60t-12 -64.5z" />
<glyph unicode="&#x16f;" horiz-adv-x="1189" d="M164 1024v-666q0 -37 7 -101t42 -126.5t109.5 -109t209.5 -46.5q59 -2 130 24t143 97l33 33h8v-129h174v1024h-174v-635q0 -80 -22.5 -137t-59.5 -95t-86 -56.5t-103 -18.5q-86 0 -134 34t-71.5 79t-27.5 89t-4 64v676h-174zM473 1288q0 51 35 85t86 34q49 0 85 -34 t36 -85t-36 -86t-85 -35q-51 0 -86 35t-35 86zM406 1288q0 -39 14 -72.5t39.5 -59.5t60.5 -41t74 -15t73.5 15t60.5 41t40 59.5t14 72.5q0 31 -11 64.5t-34.5 60.5t-59.5 44.5t-83 17.5t-82 -17.5t-58.5 -44.5t-35.5 -60.5t-12 -64.5z" />
<glyph unicode="&#x170;" horiz-adv-x="1474" d="M164 1434v-881q0 -84 16.5 -185.5t77.5 -188.5t182 -145.5t330 -58.5q131 0 232.5 41t170 113t103.5 167t35 204v934h-90v-867q0 -45 -2 -91t-12.5 -92t-32 -91t-62.5 -90q-74 -80 -166 -108.5t-192 -28.5q-86 0 -152.5 26.5t-126.5 79.5q-47 41 -71.5 82t-37 81 t-14.5 81t-2 82v936h-186zM543 1868h227l-252 -260h-80zM809 1868h227l-252 -260h-79z" />
<glyph unicode="&#x171;" horiz-adv-x="1189" d="M164 1024v-666q0 -37 7 -101t42 -126.5t109.5 -109t209.5 -46.5q59 -2 130 24t143 97l33 33h8v-129h174v1024h-174v-635q0 -80 -22.5 -137t-59.5 -95t-86 -56.5t-103 -18.5q-86 0 -134 34t-71.5 79t-27.5 89t-4 64v676h-174zM399 1458h228l-252 -260h-80zM666 1458h227 l-252 -260h-80z" />
<glyph unicode="&#x172;" horiz-adv-x="1474" d="M164 1434v-881q0 -82 15.5 -178t70.5 -182.5t164.5 -146.5t298.5 -69l-62 -45q-55 -41 -101 -90t-46 -108q0 -70 48 -96.5t103 -26.5q47 0 93.5 16.5t78.5 40.5l-22 56q-20 -10 -51 -22.5t-60 -12.5q-43 0 -54 26.5t-11 38.5q0 61 54 118.5t124 104.5q123 6 216 49.5 t157.5 114t97.5 162.5t33 197v934h-90v-867q0 -45 -2 -91t-12.5 -92t-32 -91t-62.5 -90q-74 -80 -166 -108.5t-192 -28.5q-86 0 -152.5 26.5t-126.5 79.5q-47 41 -71.5 82t-37 81t-14.5 81t-2 82v936h-186z" />
<glyph unicode="&#x173;" horiz-adv-x="1189" d="M922 0l-95 -68q-55 -41 -101 -90t-46 -108q0 -70 48 -96.5t103 -26.5q47 0 93.5 16.5t79.5 40.5l-23 56q-20 -10 -51 -22.5t-60 -12.5q-43 0 -54 26.5t-11 38.5q0 35 18.5 68t49 64.5t69.5 60t78 53.5v1024h-174v-635q0 -80 -22.5 -137t-59.5 -95t-86 -56.5t-103 -18.5 q-86 0 -134 34t-71.5 79t-27.5 89t-4 64v676h-174v-666q0 -37 7 -101t42 -126.5t109.5 -109t209.5 -46.5q59 -2 130 24t143 97l33 33h8v-129h76z" />
<glyph unicode="&#x174;" horiz-adv-x="2162" d="M61 1434l508 -1434h123l391 1120h11l379 -1120h120l508 1434h-94l-424 -1196h-8l-399 1196h-89l-407 -1190h-8l-422 1190h-189zM1079 1696l23 -14q22 -13 56 -33.5t74 -45t73.5 -46t56.5 -35.5l22 -15l52 64l-22 23q-23 22 -57 54.5t-74 71.5t-73.5 72t-56.5 54l-23 22 h-102l-22 -22q-23 -23 -57 -56t-73.5 -72t-73.5 -71.5t-56.5 -55t-22.5 -20.5l49 -62l24 13q23 14 57 35.5t74 45t73.5 45t45.5 28.5z" />
<glyph unicode="&#x175;" horiz-adv-x="1527" d="M41 1024l354 -1024h111l237 686h9l266 -686h96l373 1024h-107l-278 -766h-8l-291 766h-41l-268 -772h-9l-266 772h-178zM762 1286l22 -13q23 -13 56.5 -33.5t73.5 -45.5t74 -46.5t56 -35.5l23 -14l51 63l-22 23q-23 22 -56.5 55t-73.5 72t-74 71.5t-56 53.5l-23 22h-102 l-23 -22q-22 -23 -56 -55.5t-74 -71.5t-73.5 -72t-56 -55.5t-22.5 -20.5l49 -61l23 13q24 13 57.5 34.5t73.5 45.5t74 45.5t45 27.5z" />
<glyph unicode="&#x176;" horiz-adv-x="1308" d="M61 1434l496 -891v-543h186v561l504 873h-110l-439 -756h-8l-418 756h-211zM653 1696l23 -14q22 -13 56 -33.5t74 -45t73.5 -46t56.5 -35.5l22 -15l52 64l-22 23q-23 22 -57 54.5t-74 71.5t-73.5 72t-55.5 54l-23 22h-103l-22 -22q-23 -23 -57 -56t-73.5 -72t-73.5 -71.5 t-56.5 -55t-22.5 -20.5l49 -62l24 13q23 14 57 35.5t74 45t73.5 45t45.5 28.5z" />
<glyph unicode="&#x177;" horiz-adv-x="1032" d="M561 240l-354 784h-187l459 -1012l-108 -266q-18 -47 -48 -75.5t-69 -28.5q-37 0 -70.5 21.5t-52.5 62.5l-90 -170q39 -35 86 -51.5t88 -16.5q57 0 100 28.5t76 75t57.5 102.5t47.5 111l495 1219h-100l-322 -784h-8zM514 1286l22 -13q23 -13 57 -33.5t74 -45.5 t73.5 -46.5t55.5 -35.5l23 -14l51 63l-22 23q-23 22 -56.5 55t-73.5 72t-74 71.5t-56 53.5l-23 22h-102l-23 -22q-22 -23 -56 -55.5t-74 -71.5t-73.5 -72t-56 -55.5t-22.5 -20.5l49 -61l23 13q24 13 58 34.5t73.5 45.5t73.5 45.5t45 27.5z" />
<glyph unicode="&#x178;" horiz-adv-x="1308" d="M61 1434l496 -891v-543h186v561l504 873h-110l-439 -756h-8l-418 756h-211zM401 1757q0 -45 33 -77.5t78 -32.5t78 32.5t33 77.5t-33 78t-78 33t-78 -33t-33 -78zM684 1757q0 -45 33 -77.5t78 -32.5t77.5 32.5t32.5 77.5t-32.5 78t-77.5 33t-78 -33t-33 -78z" />
<glyph unicode="&#x179;" horiz-adv-x="1363" d="M113 1434v-113h866l-918 -1321h1242v113h-945l910 1321h-1155zM653 1868h228l-318 -260h-80z" />
<glyph unicode="&#x17a;" horiz-adv-x="1003" d="M74 1024v-82h616l-649 -942h895v82h-643l649 942h-868zM473 1458h227l-317 -260h-80z" />
<glyph unicode="&#x17b;" horiz-adv-x="1363" d="M113 1434v-113h866l-918 -1321h1242v113h-945l910 1321h-1155zM571 1757q0 -45 33 -77.5t78 -32.5t78 32.5t33 77.5t-33 78t-78 33t-78 -33t-33 -78z" />
<glyph unicode="&#x17c;" horiz-adv-x="1003" d="M74 1024v-82h616l-649 -942h895v82h-643l649 942h-868zM391 1348q0 -45 33 -78t78 -33t77.5 33t32.5 78t-32.5 77.5t-77.5 32.5t-78 -32.5t-33 -77.5z" />
<glyph unicode="&#x17d;" horiz-adv-x="1363" d="M113 1434v-113h866l-918 -1321h1242v113h-945l910 1321h-1155zM680 1681q0 -2 22.5 12.5t56.5 35t73.5 45t73.5 46t56 36.5l23 14l51 -64l-22 -22q-23 -23 -56.5 -55.5t-73.5 -71.5t-74 -72t-56 -55l-23 -21h-102l-23 23q-22 22 -56 55t-74 72t-73.5 71.5t-56.5 53.5 l-22 22l49 62l23 -14q24 -13 57.5 -34.5t73.5 -45t74 -45t45 -27.5z" />
<glyph unicode="&#x17e;" horiz-adv-x="1003" d="M74 1024v-82h616l-649 -942h895v82h-643l649 942h-868zM500 1272q0 -2 22.5 12t56 34.5t73.5 45.5t74 46.5t56 35.5l23 14l51 -63l-22 -23q-23 -22 -57 -55t-73.5 -72t-73.5 -71.5t-56 -53.5l-23 -22h-102l-23 22q-23 23 -56.5 55.5t-73.5 71.5t-74 72t-56 55l-23 21 l50 61l23 -13q24 -13 57.5 -34.5t73.5 -45.5t74 -45.5t45 -27.5z" />
<glyph unicode="&#x192;" horiz-adv-x="983" d="M197 -195q-10 -43 -23.5 -87t-33 -77.5t-46 -55t-63.5 -21.5q-41 0 -59.5 28.5t-28.5 73.5l-115 -78q35 -59 83 -77.5t109 -18.5q98 0 168 52.5t113 122t63.5 135t20.5 94.5l217 1019h211l14 72h-209l44 209q4 23 13 55.5t24.5 62t39 50t56.5 20.5q20 0 35.5 -12 t25.5 -30.5t16.5 -41t10.5 -43.5l110 101q-35 47 -75.5 71.5t-102.5 24.5q-49 0 -100 -18.5t-96.5 -55.5t-80 -94t-53.5 -135l-36 -164h-152l-14 -72h151z" />
<glyph unicode="&#x1f4;" horiz-adv-x="1673" d="M1550 639h-405v-84h229v-371q-92 -59 -188 -87.5t-219 -28.5q-162 0 -283 49t-201 136t-119.5 207t-39.5 263q0 141 37.5 260t113.5 205t185.5 133t254.5 47q96 0 180.5 -20.5t150 -53t107.5 -74.5t54 -85h147q-18 45 -62 101t-120 105.5t-187.5 83t-262.5 33.5 q-174 0 -320.5 -49t-253 -141t-166 -226.5t-59.5 -304.5q0 -145 46 -281.5t141.5 -244t242.5 -172t352 -64.5q154 0 272.5 34t196.5 75v-84h176v639zM807 1868h227l-317 -260h-80z" />
<glyph unicode="&#x1f5;" d="M895 -86q0 -94 -22.5 -159.5t-62.5 -106.5t-94 -59.5t-116 -18.5q-109 0 -175.5 55.5t-121.5 147.5l-113 -103q14 -18 45 -48t78 -59.5t113 -51t149 -21.5q156 0 252.5 44t149.5 118t72.5 169t19.5 197v1006h-174v-160h-8q-25 86 -106 134.5t-212 48.5q-104 0 -190 -38 t-147.5 -108t-95.5 -168t-34 -219q0 -123 34 -222t95.5 -170t146.5 -109t189 -38q115 0 200 45.5t120 143.5h8v-250zM895 436q0 -86 -23.5 -151.5t-62.5 -110.5t-90 -68.5t-107 -23.5q-49 0 -105 17.5t-104.5 64.5t-80 133t-31.5 221q0 143 39 228t91 130.5t106.5 58.5 t84.5 13q68 0 121 -29.5t89 -80t54.5 -116t18.5 -134.5v-152zM588 1458h227l-317 -260h-80z" />
<glyph unicode="&#x218;" horiz-adv-x="1280" d="M123 362q2 -86 44 -157.5t112.5 -122.5t166 -79t205.5 -28q246 0 386.5 109t140.5 305q0 133 -63.5 218t-159 140.5t-207 91t-207 74.5t-159 89.5t-63.5 134.5q0 45 21.5 87t63.5 73.5t104.5 51t142.5 19.5q131 0 210 -56.5t95 -176.5h162q-12 80 -56 140t-108.5 101 t-144.5 61.5t-162 20.5q-100 0 -187 -24.5t-151.5 -72.5t-101.5 -120t-37 -166q0 -135 61.5 -217t154.5 -132t201.5 -83t202 -69.5t155 -91t61.5 -148.5q0 -74 -26 -124t-72 -83t-111.5 -47t-143.5 -14q-100 0 -167.5 33.5t-109.5 80.5t-60.5 97.5t-20.5 84.5h-172z M760 -100h-193v-351h70z" />
<glyph unicode="&#x219;" horiz-adv-x="983" d="M829 791q0 55 -25.5 102t-72.5 81t-112.5 53.5t-145.5 19.5q-70 0 -130 -17.5t-104 -54.5t-70 -95.5t-26 -140.5q0 -74 43 -125t108.5 -90t140.5 -69.5t140.5 -62.5t108.5 -69.5t43 -91.5q0 -27 -10 -57.5t-36 -56t-72 -43t-117 -17.5q-72 0 -119 24.5t-76 59.5t-41 73 t-12 65h-142q0 -57 24 -111.5t72 -97.5t120.5 -69t170.5 -26q104 0 179 21.5t122.5 61.5t69 93.5t21.5 118.5q0 86 -44 144.5t-112 99.5t-144.5 71.5t-144 59.5t-111.5 62.5t-44 83.5q0 27 9 57.5t31.5 57t62.5 43t99 16.5q66 0 110 -17.5t69.5 -43t37 -56.5t11.5 -57h118z M598 -100h-192v-351h69z" />
<glyph unicode="&#x21a;" horiz-adv-x="1366" d="M776 0v1321h549v113h-1284v-113h549v-1321h186zM782 -100h-192v-351h69z" />
<glyph unicode="&#x21b;" horiz-adv-x="768" d="M61 942v82h179v315h174v-315h248v-82h-248v-680q0 -25 2 -56.5t12 -59t31.5 -46t60.5 -18.5q49 0 82 37t53 80l97 -99q-100 -100 -228 -100q-53 0 -104 18.5t-91 56.5t-64.5 97t-24.5 139v631h-179zM598 -100h-192v-351h69z" />
<glyph unicode="&#x2c6;" horiz-adv-x="714" d="M356 1286l22 -13q23 -13 57 -33.5t74 -45.5t73.5 -46.5t56.5 -35.5l23 -14l51 63l-23 23q-22 22 -56 55t-74 72t-73.5 71.5t-56.5 53.5l-22 22h-103l-23 -22q-22 -23 -55.5 -55.5t-73.5 -71.5t-74 -72t-56.5 -55.5t-22.5 -20.5l49 -61l23 13q24 13 58 34.5t74 45.5 t73.5 45.5t44.5 27.5z" />
<glyph unicode="&#x2da;" horiz-adv-x="376" d="M68 1288q0 51 34.5 85t85.5 34q49 0 85 -34t36 -85t-35.5 -86t-85.5 -35q-51 0 -85.5 35t-34.5 86zM0 1288q0 -39 14.5 -72.5t40 -59.5t60.5 -41t73 -15q39 0 74 15t60.5 41t40 59.5t14.5 72.5q0 31 -11.5 64.5t-35 60.5t-59 44.5t-83.5 17.5q-47 0 -81.5 -17.5 t-58 -44.5t-36 -60.5t-12.5 -64.5z" />
<glyph unicode="&#x2dc;" horiz-adv-x="761" d="M55 1206q23 39 59 64.5t70 25.5q27 0 52.5 -8t48.5 -18q74 -29 135 -51.5t115 -22.5q72 0 132 48t95 157l-62 29q-23 -53 -57.5 -73t-69.5 -20q-25 0 -48 6.5t-42 10.5q-88 29 -150.5 54.5t-109.5 25.5q-78 0 -136 -56.5t-87 -140.5z" />
<glyph unicode="&#x401;" d="M246 1434v-1434h925v113h-739v604h635v90h-635v514h739v113h-925zM446 1757q0 -45 33 -77.5t78 -32.5t78 32.5t33 77.5t-33 78t-78 33t-78 -33t-33 -78zM729 1757q0 -45 33 -77.5t78 -32.5t77.5 32.5t32.5 77.5t-32.5 78t-77.5 33t-78 -33t-33 -78z" />
<glyph unicode="&#x402;" horiz-adv-x="1689" d="M41 1434v-113h537v-1321h186v735q33 6 74 12.5t83 11.5t82.5 8t73.5 3q43 0 103.5 -8t115 -30.5t93 -66.5t38.5 -114v-209q0 -78 -18 -130t-49 -86t-69 -48.5t-77 -14.5q-47 0 -82.5 14.5t-62.5 36t-44 46t-26 47.5l-129 -103q76 -76 156 -102.5t178 -26.5 q139 0 219 46.5t121 113t52.5 140t11.5 131.5v155q0 41 -16.5 93.5t-63.5 97.5t-135 75.5t-230 30.5q-41 0 -93 -3t-107.5 -7t-107.5 -10.5t-91 -12.5v496h547v113h-1270z" />
<glyph unicode="&#x403;" horiz-adv-x="1181" d="M246 1434v-1434h186v1321h688v113h-874zM657 1868h228l-318 -260h-80z" />
<glyph unicode="&#x404;" horiz-adv-x="1579" d="M809 1458q201 0 372 -67.5t275 -214.5l-104 -101q-41 61 -93.5 114.5t-118 93.5t-144 62.5t-169.5 22.5q-141 0 -245.5 -49t-175 -129t-105.5 -178.5t-35 -196.5v-8h682v-92h-682v-10q0 -123 39 -239t111.5 -205t178 -142t241.5 -53q90 0 166.5 22.5t141 62t116 93 t92.5 114.5l104 -100q-51 -74 -122.5 -127t-154.5 -88t-174.5 -51.5t-183.5 -16.5q-135 0 -243.5 35t-192.5 92.5t-145.5 135t-101.5 161.5t-58.5 172t-18.5 168q0 174 58.5 308.5t160 225.5t237.5 138t292 47z" />
<glyph unicode="&#x405;" horiz-adv-x="1280" d="M76 362q4 -88 46 -159.5t114.5 -121.5t171 -78t215.5 -28q119 0 214 29t162.5 82t104.5 129t37 168q0 127 -63.5 208t-159 135t-207 91t-206.5 78t-158.5 94t-63.5 141q0 49 21.5 92.5t63.5 75t103 51t141 19.5q133 0 226.5 -56.5t109.5 -176.5h139q-12 76 -55 136 t-108.5 102t-148.5 63.5t-173 21.5q-94 0 -179 -24.5t-149.5 -71.5t-102.5 -119t-38 -164q0 -121 61.5 -194.5t154.5 -122.5t201.5 -84t202 -79t155 -107.5t61.5 -169.5q0 -133 -97.5 -194.5t-259.5 -61.5q-129 0 -206.5 33.5t-118.5 80.5t-55.5 97.5t-16.5 84.5h-139z" />
<glyph unicode="&#x406;" horiz-adv-x="841" d="M328 1434v-1434h186v1434h-186z" />
<glyph unicode="&#x407;" horiz-adv-x="841" d="M328 1434v-1434h186v1434h-186zM168 1757q0 -45 32.5 -77.5t78.5 -32.5q45 0 77.5 32.5t32.5 77.5t-32.5 78t-77.5 33t-78 -33t-33 -78zM451 1757q0 -45 32.5 -77.5t77.5 -32.5t78 32.5t33 77.5t-33 78t-78 33t-77.5 -33t-32.5 -78z" />
<glyph unicode="&#x408;" horiz-adv-x="1089" d="M657 1434v-1035q0 -49 -3 -106t-23.5 -108.5t-62.5 -85t-117 -33.5q-70 0 -115 25.5t-70.5 62t-36 78.5t-10.5 73h-178q4 -152 99.5 -241t299.5 -89q141 0 222 43t121 107.5t50.5 139.5t10.5 141v1028h-187z" />
<glyph unicode="&#x409;" horiz-adv-x="2119" d="M1001 1434l-561 -1080q-18 -37 -41.5 -70.5t-49 -61t-55.5 -44t-63 -16.5q-23 0 -54.5 9t-55.5 22l-80 -199q41 -14 72.5 -16.5t44.5 -2.5q29 0 62.5 7.5t70.5 33t78 75.5t86 136l557 1065h16v-1292h457q137 0 234.5 36t158.5 94t90 133t29 155q0 74 -27.5 143.5 t-88 124.5t-155 88t-229.5 33h-283v627h-213zM1214 90v627h230q68 0 131 -20.5t112.5 -59.5t78 -94.5t28.5 -122.5q0 -57 -18.5 -115.5t-58.5 -106.5t-100.5 -78t-141.5 -30h-261z" />
<glyph unicode="&#x40a;" horiz-adv-x="2289" d="M432 717h766v-717h455q147 0 245.5 39t158 100.5t85 136t25.5 148.5q0 70 -28 139.5t-88 122.5t-155.5 87t-230.5 34h-281v627h-186v-627h-766v627h-186v-1434h186v717zM1384 90v627h230q76 0 140.5 -23.5t110.5 -65.5t71.5 -100.5t25.5 -126.5q0 -63 -23.5 -119.5 t-65.5 -99.5t-100.5 -67.5t-130.5 -24.5h-258z" />
<glyph unicode="&#x40b;" horiz-adv-x="1740" d="M764 735q78 16 155.5 25.5t141.5 9.5q135 0 211 -22.5t110.5 -58.5t42 -82t7.5 -91v-516h186v571q0 51 -13.5 102.5t-60.5 92.5t-142 67.5t-257 26.5q-96 0 -192.5 -11t-188.5 -24v496h561v113h-1284v-113h537v-1321h186v735z" />
<glyph unicode="&#x40c;" horiz-adv-x="1482" d="M735 1868h228l-318 -260h-80zM246 0h186v504l232 248l544 -752h213l-639 879l521 555h-103l-768 -807v807h-186v-1434z" />
<glyph unicode="&#x40e;" horiz-adv-x="1351" d="M281 1434h-220l641 -1039l-73 -155q-20 -41 -50 -72t-96 -31q-49 0 -90 31t-67 65l-86 -190q29 -25 85 -46.5t126 -21.5q31 0 64.5 6.5t65 27t62.5 56t59 95.5l588 1274h-106l-383 -832h-8zM719 1536q37 0 97.5 3t116.5 21.5t97 59.5t41 117v24h-197q2 -10 3.5 -19 t1.5 -20q0 -43 -18.5 -67.5t-44 -36.5t-52.5 -14t-45 -2t-46 2t-53.5 14t-44 36.5t-18.5 67.5q0 10 1 19.5t3 19.5h-194v-24q0 -76 41 -117t97 -59.5t115.5 -21.5t98.5 -3z" />
<glyph unicode="&#x40f;" horiz-adv-x="1722" d="M770 -215h186v215h521v1434h-187v-1321h-858v1321h-186v-1434h524v-215z" />
<glyph unicode="&#x410;" horiz-adv-x="1499" d="M1042 422l197 -422h199l-668 1434h-102l-607 -1434h95l180 422h706zM999 514h-624l295 690h8z" />
<glyph unicode="&#x411;" horiz-adv-x="1374" d="M432 1321h688v113h-874v-1434h471q162 0 265 37t162.5 95t83 130t23.5 144t-23.5 143.5t-84 128.5t-163.5 93t-263 36h-285v514zM432 86v631h270q80 0 144.5 -24.5t108.5 -67.5t69 -103.5t25 -130.5q0 -74 -29 -131t-75 -95t-106.5 -58.5t-123.5 -20.5h-283z" />
<glyph unicode="&#x412;" horiz-adv-x="1312" d="M246 0h514q137 0 231 36t151.5 93t83 130t25.5 147q0 117 -50 186.5t-119.5 106t-143.5 49t-119 14.5v8q72 0 135.5 27.5t111.5 71.5t76.5 102.5t28.5 124.5q0 57 -24.5 116.5t-74.5 108.5t-129 81t-185 32h-512v-1434zM432 90v627h225q100 0 174 -26.5t122 -72 t72 -104.5t24 -125q0 -72 -26 -127t-69 -94t-101 -58.5t-124 -19.5h-297zM432 807v536h250q80 0 136 -22.5t92 -59t52.5 -84t16.5 -94.5q0 -59 -23.5 -110t-65.5 -88t-96.5 -57.5t-115.5 -20.5h-246z" />
<glyph unicode="&#x413;" horiz-adv-x="1181" d="M246 1434v-1434h186v1321h688v113h-874z" />
<glyph unicode="&#x414;" horiz-adv-x="1722" d="M893 1434h-125l-514 -1338h-193v-311h177v215h1249v-215h174v311h-201zM1264 96h-914l430 1114h8z" />
<glyph unicode="&#x415;" d="M246 1434v-1434h925v113h-739v596h635v98h-635v514h739v113h-925z" />
<glyph unicode="&#x416;" horiz-adv-x="2453" d="M2335 80q-80 0 -133.5 32.5t-112.5 127.5l-420 643l531 551h-134l-751 -779v779h-176v-779l-752 779h-133l530 -551l-419 -643q-31 -47 -58.5 -78t-56.5 -49.5t-60.5 -25.5t-70.5 -7l-58 4v-82q82 -27 172 -27q31 0 60 3.5t56.5 14.5t55 32.5t56.5 56.5l440 680l238 -244 v-518h176v518l237 244l441 -680q27 -35 55.5 -56.5t56 -32.5t56 -14.5t59.5 -3.5q90 0 172 27v82z" />
<glyph unicode="&#x417;" horiz-adv-x="1359" d="M647 1368q156 0 237 -77t81 -193q0 -31 -9.5 -80t-44 -96.5t-103.5 -81t-187 -33.5h-144v-90h144q92 0 167.5 -20.5t130 -60.5t84 -97.5t29.5 -128.5q0 -49 -17.5 -109.5t-60.5 -113t-116.5 -87t-186.5 -34.5q-111 0 -176 33.5t-100 80.5t-46.5 97.5t-13.5 84.5h-192 q6 -193 130 -290t384 -97q170 0 285.5 39t185.5 100.5t99.5 137.5t29.5 149q0 82 -31.5 148.5t-83 115t-117 74t-133.5 25.5h-14v8q63 0 117.5 27.5t93.5 74t60.5 105.5t21.5 121q0 66 -26.5 130t-87 114.5t-155 82t-229.5 31.5q-104 0 -190 -20.5t-148.5 -63.5 t-99.5 -108.5t-39 -153.5h156q2 37 17.5 82t51 83t95 64.5t151.5 26.5z" />
<glyph unicode="&#x418;" horiz-adv-x="1714" d="M432 168v1266h-186v-1434h186l850 1280v-1280h186v1434h-186z" />
<glyph unicode="&#x419;" horiz-adv-x="1714" d="M846 1536q37 0 97.5 3t116.5 21.5t97 59.5t41 117v24h-197q2 -10 3.5 -19t1.5 -20q0 -43 -18.5 -67.5t-44 -36.5t-52.5 -14t-45 -2t-46 2t-53.5 14t-44 36.5t-18.5 67.5q0 10 1 19.5t3 19.5h-194v-24q0 -76 40.5 -117t97 -59.5t116 -21.5t98.5 -3zM432 166v1266h-186 v-1434h186l850 1280v-1280h186v1434h-186z" />
<glyph unicode="&#x41a;" horiz-adv-x="1482" d="M246 0h186v504l232 248l544 -752h213l-639 879l521 555h-103l-768 -807v807h-186v-1434z" />
<glyph unicode="&#x41b;" horiz-adv-x="1617" d="M934 1434h-113l-442 -1131q-35 -92 -66.5 -147.5t-99.5 -55.5q-27 0 -51.5 14.5t-44.5 24.5l-56 -139q35 -12 75 -18.5t81 -6.5q66 0 118 55.5t93 159.5l399 1014h9l518 -1204h202z" />
<glyph unicode="&#x41c;" horiz-adv-x="2101" d="M385 1434h-139v-1434h90v1169h8l633 -1194h37l647 1186h8v-1161h186v1434h-141l-663 -1231h-9z" />
<glyph unicode="&#x41d;" horiz-adv-x="1722" d="M432 713h858v-713h187v1434h-187v-627h-858v627h-186v-1434h186v713z" />
<glyph unicode="&#x41e;" horiz-adv-x="1771" d="M102 717q0 -115 44 -245t138.5 -240.5t240 -183.5t347.5 -73q137 0 249 34t201 91.5t154.5 132t107.5 157.5t63.5 167t21.5 160q0 115 -47 245t-145.5 240.5t-249 183t-355.5 72.5q-203 0 -348 -71.5t-239.5 -181t-138.5 -240.5t-44 -248zM303 717q0 143 44 263t121 206 t181.5 134t227.5 48q121 0 228 -48t188 -134t128 -206t47 -263t-47 -263t-128 -206t-188.5 -134t-227.5 -48q-123 0 -227.5 48t-181.5 134t-121 206t-44 263z" />
<glyph unicode="&#x41f;" horiz-adv-x="1722" d="M1477 1434h-1231v-1434h186v1321h858v-1321h187v1434z" />
<glyph unicode="&#x420;" horiz-adv-x="1316" d="M432 598q53 -14 114.5 -23.5t135.5 -9.5q125 0 221 35t160.5 95.5t97.5 139t33 169.5q0 86 -28.5 164.5t-87 137t-146.5 93.5t-207 35h-479v-1434h186v598zM432 1343h215q86 0 151.5 -30.5t108.5 -80.5t64.5 -112.5t21.5 -124.5q0 -59 -19.5 -119.5t-62.5 -109.5 t-108.5 -80t-157.5 -31q-63 0 -116.5 5.5t-96.5 21.5v661z" />
<glyph unicode="&#x421;" horiz-adv-x="1599" d="M1477 264q-209 -197 -496 -196q-160 0 -283 55t-204.5 147t-123.5 213t-42 252q0 139 44 255t123.5 200t189.5 131t239 47q88 0 160.5 -20.5t129 -53t92 -74.5t50.5 -85h151q-31 70 -79 129t-119.5 102t-168 67.5t-218.5 24.5q-178 0 -324.5 -51t-251 -146.5t-162 -229.5 t-57.5 -300q0 -143 46 -279.5t142.5 -242t246 -170t356.5 -64.5q131 0 234 25t180 60.5t128 76.5t78 72z" />
<glyph unicode="&#x422;" horiz-adv-x="1366" d="M776 0v1321h549v113h-1284v-113h549v-1321h186z" />
<glyph unicode="&#x423;" horiz-adv-x="1351" d="M281 1434h-220l641 -1039l-73 -155q-20 -41 -50 -72t-96 -31q-49 0 -90 31t-67 65l-86 -190q29 -25 85 -46.5t126 -21.5q31 0 64.5 6.5t65 27t62.5 56t59 95.5l588 1274h-106l-383 -832h-8z" />
<glyph unicode="&#x424;" horiz-adv-x="1785" d="M799 1434v-160h-70q-147 0 -261 -47t-190.5 -125t-115.5 -176.5t-39 -202.5q0 -80 31.5 -175t106.5 -177t200 -137.5t311 -55.5h27v-178h186v178h29q186 0 310 55.5t199.5 137.5t107.5 177t32 175q0 104 -40 202.5t-116.5 176.5t-189.5 125t-260 47h-72v160h-186z M799 260h-13q-104 0 -190 36t-147.5 98.5t-95.5 146.5t-34 182q0 82 26 166t80 149.5t140 107.5t207 42h27v-928zM985 260v928h29q121 0 207 -42t140 -107.5t79.5 -149.5t25.5 -166q0 -98 -33.5 -182t-95 -146.5t-147.5 -98.5t-191 -36h-14z" />
<glyph unicode="&#x425;" horiz-adv-x="1431" d="M270 1434h-229l559 -719l-549 -715h111l489 641h8l500 -641h232l-621 793l490 641h-109l-432 -564h-10z" />
<glyph unicode="&#x426;" horiz-adv-x="1767" d="M1470 113v1321h-186v-1321h-852v1321h-186v-1434h1224v-215h175v328h-175z" />
<glyph unicode="&#x427;" horiz-adv-x="1449" d="M1018 698q-39 -8 -85 -14t-92 -11t-88 -7t-73 -2q-135 0 -211 22.5t-110.5 58t-42 80.5t-7.5 93v516h-186v-572q0 -51 13.5 -102t60.5 -93t141 -68t258 -26q96 0 213 11.5t209 23.5v-608h186v1434h-186v-736z" />
<glyph unicode="&#x428;" horiz-adv-x="2328" d="M1894 1434v-1321h-637v1321h-186v-1321h-639v1321h-186v-1434h1837v1434h-189z" />
<glyph unicode="&#x429;" horiz-adv-x="2379" d="M2083 -215h174v328h-174v1321h-189v-1321h-637v1321h-186v-1321h-639v1321h-186v-1434h1837v-215z" />
<glyph unicode="&#x42a;" horiz-adv-x="1642" d="M520 0h488q147 0 245.5 39t157.5 100.5t84 136t25 148.5q0 70 -28 139.5t-87 122.5t-154.5 87t-230.5 34h-313v627h-646v-269h175v154h284v-1319zM707 90v627h262q76 0 140.5 -23.5t110.5 -65.5t71.5 -100.5t25.5 -126.5q0 -63 -23.5 -119.5t-65.5 -99.5t-100.5 -67.5 t-130.5 -24.5h-290z" />
<glyph unicode="&#x42b;" horiz-adv-x="1884" d="M246 0h487q147 0 245.5 39t158 100.5t85 136t25.5 148.5q0 70 -27.5 139.5t-88 122.5t-155.5 87t-231 34h-313v627h-186v-1434zM432 90v627h262q76 0 140.5 -23.5t110.5 -65.5t71.5 -100.5t25.5 -126.5q0 -63 -23.5 -119.5t-65.5 -99.5t-100 -67.5t-130 -24.5h-291z M1452 1434v-1434h186v1434h-186z" />
<glyph unicode="&#x42c;" horiz-adv-x="1370" d="M246 0h487q147 0 245.5 39t158 100.5t85 136t25.5 148.5q0 70 -27.5 139.5t-88 122.5t-155.5 87t-231 34h-313v627h-186v-1434zM432 90v627h262q76 0 140.5 -23.5t110.5 -65.5t71.5 -100.5t25.5 -126.5q0 -63 -23.5 -119.5t-65.5 -99.5t-100 -67.5t-130 -24.5h-291z" />
<glyph unicode="&#x42d;" horiz-adv-x="1579" d="M709 1458q-201 0 -372 -67.5t-276 -214.5l105 -101q39 61 92 114.5t118.5 93.5t144.5 62.5t169 22.5q141 0 245.5 -49t175.5 -129t105.5 -178.5t34.5 -196.5v-8h-682v-92h682v-10q0 -123 -38.5 -239t-111.5 -205t-178.5 -142t-240.5 -53q-90 0 -167 22.5t-141.5 62 t-116.5 93t-91 114.5l-105 -100q51 -74 123 -127t155 -88t174 -51.5t183 -16.5q135 0 244 35t193 92.5t145 135t101 161.5t58.5 172t18.5 168q0 174 -58.5 308.5t-159.5 225.5t-237 138t-292 47z" />
<glyph unicode="&#x42e;" horiz-adv-x="2359" d="M432 807v627h-186v-1434h186v717h252q4 -197 74.5 -337t181.5 -230.5t249 -132.5t275 -42q168 0 310.5 59.5t245 161t159.5 236.5t57 287q0 119 -45 249t-138 238.5t-239.5 180t-349.5 71.5q-164 0 -299 -52t-236.5 -141t-164 -208t-80.5 -250h-252zM1464 1368 q84 0 183.5 -34t184.5 -110.5t142.5 -200.5t57.5 -304q0 -178 -57.5 -303t-142.5 -203t-184.5 -112.5t-183.5 -34.5q-86 0 -187 34.5t-187 112.5t-144.5 203t-58.5 303t58.5 302t144.5 200.5t187 111.5t187 35z" />
<glyph unicode="&#x42f;" horiz-adv-x="1470" d="M1225 1434v-1434h-187v633h-90q-57 0 -95 -10.5t-68.5 -35t-57.5 -63.5t-63 -96l-162 -240q-31 -47 -60.5 -86t-64.5 -66.5t-79 -44t-105 -16.5q-45 0 -74 4.5t-58 20.5v76q10 -2 20.5 -3t20.5 -1q43 0 76 12t61.5 35.5t55.5 57.5t55 77q86 125 133 199.5t75 115.5 t45.5 59.5t41.5 30.5l21 11v8q-98 6 -169 43t-116 92t-65.5 119.5t-20.5 126.5q0 55 21.5 120.5t73.5 122t142.5 94.5t227.5 38h465zM1038 1343h-207q-78 0 -140 -22.5t-107 -62t-68.5 -95t-23.5 -121.5q0 -55 21.5 -111.5t64.5 -102.5t105 -74.5t144 -28.5h211v618z" />
<glyph unicode="&#x430;" horiz-adv-x="1105" d="M541 1047q150 0 231.5 -42t119.5 -110t44 -156t6 -180v-559h-166v100q-59 -57 -151.5 -91t-184.5 -34q-88 0 -155.5 31t-112.5 80t-67.5 110.5t-22.5 125.5q0 66 24.5 131t73.5 117.5t121 85t164 32.5t175 -36t136 -101v88q0 168 -50 250t-183 82q-57 0 -100.5 -14.5 t-77 -40t-62.5 -63.5t-57 -85l-107 106q29 31 60.5 62t78 55.5t110 40t153.5 15.5zM776 406q-10 25 -29.5 57.5t-50 63t-73.5 52t-103 21.5q-59 0 -108.5 -23.5t-83 -61.5t-52 -89t-18.5 -107q0 -66 23.5 -113.5t60.5 -81.5t82 -50.5t86 -16.5q39 0 79 14.5t75.5 40 t64.5 60.5t47 76v158z" />
<glyph unicode="&#x431;" horiz-adv-x="1271" d="M829 1434q-88 0 -174 -4.5t-165.5 -29t-150.5 -75.5t-126 -143q-41 -68 -63.5 -143.5t-33 -150.5t-12.5 -147.5t-2 -136.5v-55q0 -78 20.5 -177.5t80 -187.5t169 -148.5t285.5 -60.5q137 0 234.5 48.5t159 126t90 174t28.5 194.5t-29.5 193.5t-91 169t-157.5 120 t-232 46.5q-94 0 -167.5 -23t-129 -60.5t-94.5 -87t-61 -100.5h-8v10q0 129 45 241t118 169q84 63 179.5 74.5t210.5 11.5h252l110 152h-285zM297 506q0 119 24.5 206t69.5 143t105.5 83t132.5 27q31 0 88 -8.5t114.5 -51.5t100.5 -136t43 -263q0 -141 -34 -229.5 t-83 -136.5t-104.5 -65.5t-96.5 -17.5q-53 0 -116.5 18.5t-117.5 69t-90 137.5t-36 224z" />
<glyph unicode="&#x432;" horiz-adv-x="1103" d="M164 1024v-1024h463q100 0 171.5 23.5t117 61.5t65.5 86t20 99q0 78 -30.5 129.5t-76.5 81t-98.5 42t-95.5 14.5v14q41 8 82 25.5t73 47t51.5 69.5t19.5 91q0 29 -10.5 70t-45 79t-101.5 64.5t-177 26.5h-428zM338 82v407h180q33 0 83 -4t97 -24.5t81 -63.5t34 -118 q0 -74 -32.5 -114t-77 -58.5t-88.5 -21.5t-64 -3h-213zM338 559v383h203q70 0 111.5 -20.5t64 -49t30 -60.5t7.5 -56q0 -47 -19.5 -83t-52.5 -61.5t-76 -39t-90 -13.5h-178z" />
<glyph unicode="&#x433;" horiz-adv-x="856" d="M836 942v82h-672v-1024h174v942h498z" />
<glyph unicode="&#x434;" horiz-adv-x="1228" d="M1067 82l-393 942h-123l-383 -942h-148v-297h144v215h901v-215h143v297h-141zM565 821h13l305 -739h-619z" />
<glyph unicode="&#x435;" horiz-adv-x="1175" d="M1073 467v43q0 137 -39 237.5t-105.5 166t-154.5 98t-186 32.5q-104 0 -192.5 -35.5t-154 -104t-102.5 -166t-37 -220.5q0 -102 32 -199.5t96.5 -174t164 -123t234.5 -46.5q131 0 241.5 46.5t192.5 132.5l-66 65q-43 -37 -80.5 -67.5t-76.5 -51t-81 -32t-93 -11.5 q-57 0 -122 17.5t-120 62.5t-92 125t-37 205h778zM295 549q0 82 17.5 158.5t53 136t91 95.5t131.5 36q145 0 226 -113.5t81 -312.5h-600z" />
<glyph unicode="&#x436;" horiz-adv-x="1730" d="M281 1024h-125l403 -434l-258 -357q-18 -27 -44 -53t-53.5 -47.5t-54 -36t-51.5 -14.5h-57v-82q27 -8 61.5 -16.5t71.5 -8.5q82 0 143.5 52.5t108.5 117.5l242 334l110 -119v-360h174v360l111 119l242 -334q47 -66 108.5 -118t142.5 -52q37 0 72 8.5t62 16.5v82h-58 q-25 0 -52.5 14.5t-55 36t-52 48t-42.5 52.5l-259 357l404 434h-125l-498 -528v528h-174v-528z" />
<glyph unicode="&#x437;" horiz-adv-x="1056" d="M481 965q123 0 181.5 -55.5t58.5 -141.5q0 -55 -21.5 -95t-58.5 -64.5t-84 -37t-96 -12.5h-70v-70h74q31 0 81 -5t98 -25.5t83 -62.5t35 -115q0 -109 -77 -171.5t-200 -62.5q-55 0 -107 14.5t-96 42t-77 69.5t-47 97l-97 -80q31 -55 66 -96t83 -66.5t112.5 -39 t154.5 -13.5q139 0 231.5 28t146.5 71t76.5 94t22.5 98q0 49 -20.5 95.5t-58 83t-94 60t-130.5 23.5v15q86 8 133 40.5t70 70.5t28 74t5 48q0 43 -19.5 91t-63.5 88t-117 66t-177 26q-113 0 -188.5 -30t-120.5 -75t-65.5 -99.5t-22.5 -101.5h123q8 68 30.5 111t55 68.5 t73.5 35t86 9.5z" />
<glyph unicode="&#x438;" horiz-adv-x="1228" d="M338 121v903h-174v-1024h205l522 897v-897h174v1024h-205z" />
<glyph unicode="&#x439;" horiz-adv-x="1228" d="M338 121v903h-174v-1024h205l522 897v-897h174v1024h-205zM616 1208q37 0 97.5 3t117 21.5t97.5 59.5t41 117v25h-197q2 -10 3 -19.5t1 -19.5q0 -43 -18.5 -67.5t-44 -37t-52 -14.5t-45.5 -2q-18 0 -45.5 2t-53 14.5t-44 37t-18.5 67.5q0 10 1 19t3 20h-195v-25 q0 -76 41 -117t97.5 -59.5t115.5 -21.5t98 -3z" />
<glyph unicode="&#x43a;" horiz-adv-x="1130" d="M338 496v528h-174v-1024h174v360l113 119l254 -334q25 -31 51 -61.5t57 -55t66.5 -39t76.5 -14.5q37 0 72 8.5t62 16.5v82h-58q-25 0 -51.5 14.5t-54 38t-53 51t-46.5 54.5l-268 350l416 434h-129z" />
<glyph unicode="&#x43b;" horiz-adv-x="1208" d="M752 1024h-123l-312 -772q-10 -23 -22 -52.5t-28.5 -56t-38 -44t-46.5 -17.5q-29 0 -59.5 16.5t-48.5 32.5l-33 -108q47 -45 133 -46q39 0 69.5 11.5t57.5 41t52.5 78t54.5 121.5l235 592h12l328 -821h184z" />
<glyph unicode="&#x43c;" horiz-adv-x="1392" d="M326 1024h-162v-1024h69v809h9l405 -834h21l379 834h8v-809h174v1024h-158l-356 -782h-10z" />
<glyph unicode="&#x43d;" horiz-adv-x="1193" d="M338 489h518v-489h174v1024h-174v-465h-518v465h-174v-1024h174v489z" />
<glyph unicode="&#x43e;" horiz-adv-x="1265" d="M1163 510q0 -106 -36.5 -203.5t-105.5 -171.5t-166 -117t-218 -43q-123 0 -222.5 44t-168 118t-106.5 171.5t-38 201.5q0 106 38 203.5t106.5 171t168 118t222.5 44.5q121 0 218 -44.5t166 -118t105.5 -171t36.5 -203.5zM969 510q0 143 -31 232t-80 138.5t-108.5 67 t-114.5 17.5t-114.5 -17.5t-110 -67t-82 -138.5t-31.5 -232q0 -141 31.5 -230.5t82 -138.5t110 -66.5t114.5 -17.5t114.5 17.5t108.5 66.5t80 138.5t31 230.5z" />
<glyph unicode="&#x43f;" horiz-adv-x="1153" d="M338 942h477v-942h174v1024h-825v-1024h174v942z" />
<glyph unicode="&#x440;" horiz-adv-x="1236" d="M164 -512h174v680h8q20 -53 54 -90t77 -59.5t91 -33t98 -10.5q102 0 188 38t148.5 107.5t97.5 169t35 220.5q0 123 -35 221t-97.5 169t-148.5 109t-188 38q-244 0 -320 -189h-8v166h-174v-1536zM338 614q0 68 21.5 128.5t60.5 104.5t91 69.5t112 25.5q63 0 121.5 -23.5 t101.5 -74.5t68.5 -133t25.5 -197q0 -117 -25.5 -199t-69.5 -134t-101.5 -75.5t-120.5 -23.5q-57 0 -108.5 23.5t-90.5 69.5t-62.5 111.5t-23.5 149.5v178z" />
<glyph unicode="&#x441;" horiz-adv-x="1114" d="M678 82q-74 0 -142.5 22.5t-122 72.5t-85 133t-31.5 204q0 125 35 212t87 139.5t115.5 76t120.5 23.5q94 0 164 -49.5t92 -120.5h142q-20 74 -65.5 122t-104 77.5t-125 41t-127.5 11.5q-129 0 -227.5 -42t-166 -114t-101.5 -168t-34 -205q0 -115 37 -214t105.5 -172 t165 -115t217.5 -42q135 0 236.5 45.5t170.5 98.5l-59 78q-72 -59 -142.5 -87t-154.5 -28z" />
<glyph unicode="&#x442;" horiz-adv-x="1075" d="M451 0h174v942h409v82h-993v-82h410v-942z" />
<glyph unicode="&#x443;" horiz-adv-x="1052" d="M582 240l-355 784h-186l459 -1012l-109 -266q-18 -47 -48 -75.5t-69 -28.5q-37 0 -70.5 21.5t-51.5 62.5l-91 -170q39 -35 86.5 -51.5t88.5 -16.5q57 0 100 28.5t75.5 75t57.5 102.5t47 111l496 1219h-101l-321 -784h-8z" />
<glyph unicode="&#x444;" horiz-adv-x="1767" d="M971 1434h-174v-539h-9q-8 25 -27.5 51.5t-52 49t-80.5 37t-114 14.5q-127 0 -208 -54.5t-126 -135.5t-61.5 -175t-16.5 -172t16.5 -171t61.5 -174t126 -135.5t208 -54.5q66 0 114 14.5t80.5 37t52 49t27.5 51.5h9v-639h174v639h8q25 -68 95.5 -110t176.5 -42 q129 0 210 54.5t126 135.5t61.5 174t16.5 171t-16.5 172t-61.5 175t-126 135.5t-210 54.5q-106 0 -176.5 -42t-95.5 -110h-8v539zM971 510q0 57 5 136t28.5 149.5t74.5 120t144 49.5q45 0 91 -19.5t84 -70t62.5 -139.5t24.5 -226t-24.5 -225t-62.5 -139.5t-84 -71t-91 -19.5 q-92 0 -143.5 50.5t-75 121t-28.5 148.5t-5 135zM797 510q0 -57 -5.5 -136t-29 -149.5t-74.5 -120t-143 -49.5q-37 0 -82 15.5t-85 64.5t-67.5 138t-27.5 237q0 147 27.5 237.5t67.5 138.5t85 63.5t82 15.5q92 0 143 -49.5t74.5 -120t29 -149.5t5.5 -136z" />
<glyph unicode="&#x445;" horiz-adv-x="1087" d="M504 424l313 -424h209l-418 561l344 463h-118l-285 -383l-281 383h-207l383 -520l-381 -504h121z" />
<glyph unicode="&#x446;" horiz-adv-x="1202" d="M338 82v942h-174v-1024h874v-215h144v297h-185v942h-174v-942h-485z" />
<glyph unicode="&#x447;" horiz-adv-x="1032" d="M694 504q-16 -4 -42.5 -9.5t-56.5 -10.5t-59.5 -9t-52.5 -4q-78 0 -118.5 19.5t-61 47t-24 57.5t-3.5 50v379h-174v-379q0 -25 4.5 -69t30 -87t80.5 -73.5t158 -30.5q68 0 151.5 11.5t167.5 37.5v-434h174v1024h-174v-520z" />
<glyph unicode="&#x448;" horiz-adv-x="1736" d="M164 0h1409v1024h-176v-942h-443v942h-174v-942h-442v942h-174v-1024z" />
<glyph unicode="&#x449;" horiz-adv-x="1773" d="M164 0h1452v-215h137v297h-180v942h-176v-942h-443v942h-174v-942h-442v942h-174v-1024z" />
<glyph unicode="&#x44a;" horiz-adv-x="1325" d="M383 0h520q150 0 235 79t85 197q0 104 -47.5 161t-113 84.5t-134 32.5t-111.5 5h-258v463h-539v-215h150v137h213v-944zM559 78v411h232q33 0 75.5 -6t79.5 -26.5t62.5 -59.5t25.5 -104q0 -35 -5 -66.5t-21 -58.5q-8 -12 -22.5 -27.5t-36 -29t-53.5 -23.5t-73 -10h-264z " />
<glyph unicode="&#x44b;" horiz-adv-x="1552" d="M164 1024v-1024h538q55 0 109.5 18.5t95.5 54.5t66.5 86t25.5 113q0 104 -46 162t-111.5 85.5t-137 33.5t-120.5 6h-246v465h-174zM1214 1024v-1024h175v1024h-175zM338 78v411h235q18 0 57.5 -4t79.5 -25.5t70.5 -65.5t30.5 -124q0 -96 -60.5 -144t-140.5 -48h-272z" />
<glyph unicode="&#x44c;" horiz-adv-x="1101" d="M164 1024v-1024h538q55 0 109.5 18.5t95.5 54.5t66.5 86t25.5 113q0 104 -46 162t-111.5 85.5t-137 33.5t-120.5 6h-246v465h-174zM338 82v407h235q18 0 57.5 -4t79.5 -25.5t70.5 -65.5t30.5 -124q0 -96 -60.5 -142t-140.5 -46h-272z" />
<glyph unicode="&#x44d;" horiz-adv-x="1101" d="M481 965q51 0 107.5 -16.5t104.5 -60.5t79 -124t33 -205h-402v-74h402q0 -20 -3 -59t-13.5 -87t-32 -98.5t-57 -90t-90 -66.5t-132.5 -27q-70 0 -123 20.5t-93 52.5t-66.5 70t-42.5 70l-91 -90q92 -119 196.5 -161t227.5 -42q63 0 127 10.5t123 39.5q45 23 92 61.5t86 99 t62.5 141.5t23.5 187q0 123 -34.5 221.5t-100 167t-159 105.5t-209.5 37q-102 0 -179 -26t-130.5 -64.5t-81 -86t-29.5 -90.5h151q6 59 35 95t67 56.5t78.5 27t73.5 6.5z" />
<glyph unicode="&#x44e;" horiz-adv-x="1667" d="M338 489v-491h-174v1024h174v-463h170q2 113 45 204t113.5 153.5t166 96.5t203.5 34q123 0 220.5 -42t166 -115t105.5 -168t37 -200q0 -117 -36 -216t-103.5 -173t-166 -116t-223.5 -42q-123 0 -218 46.5t-161.5 120t-104.5 165.5t-44 182h-170zM702 522q0 -143 32 -234 t81 -142.5t108.5 -70t114.5 -18.5q98 0 163 42t102.5 109.5t53 150.5t15.5 165q0 141 -30.5 228.5t-80 134.5t-108.5 62.5t-115 15.5q-43 0 -100 -8.5t-109.5 -50.5t-89.5 -132t-37 -252z" />
<glyph unicode="&#x44f;" horiz-adv-x="1099" d="M936 1024h-410q-43 0 -109.5 -7t-130 -35t-108.5 -83t-45 -154q0 -53 21.5 -99t60.5 -81t92 -55.5t115 -20.5h47v-8q-33 -12 -55.5 -30.5t-41 -42t-36 -52t-37.5 -61.5q-68 -111 -117 -162t-112 -51h-50v-82q55 -25 123 -25q76 0 132.5 40t103.5 120l207 354h176v-489 h174v1024zM762 942v-383h-168q-61 0 -111.5 9.5t-86.5 31t-56.5 58t-20.5 92.5q0 72 31 110.5t70 57t77 21.5t52 3h213z" />
<glyph unicode="&#x451;" horiz-adv-x="1185" d="M1059 467v43q0 137 -39 237.5t-105.5 166t-154.5 98t-187 32.5q-104 0 -192 -35.5t-153.5 -104t-102.5 -166t-37 -220.5q0 -102 32 -199.5t96.5 -174t163.5 -123t234 -46.5q131 0 242 46.5t193 132.5l-66 65q-43 -37 -81 -67.5t-77 -51t-81 -32t-93 -11.5 q-57 0 -121.5 17.5t-120 62.5t-92 125t-36.5 205h778zM281 549q0 82 17 158.5t53 136t91.5 95.5t130.5 36q145 0 226.5 -113.5t81.5 -312.5h-600zM311 1352q0 -45 33 -78t78 -33t77.5 33t32.5 78t-32.5 77.5t-77.5 32.5t-78 -32.5t-33 -77.5zM594 1352q0 -45 32.5 -78 t78.5 -33q45 0 77.5 33t32.5 78t-32.5 77.5t-77.5 32.5t-78 -32.5t-33 -77.5z" />
<glyph unicode="&#x452;" horiz-adv-x="1236" d="M231 1434v-174h-170v-76h170v-1184h175v590q0 41 7 101.5t34.5 115.5t83 95t153.5 40q113 0 163 -71.5t50 -225.5v-831q0 -47 -4 -92.5t-17.5 -80t-39 -57t-66.5 -22.5q-47 0 -75.5 24.5t-51.5 79.5l-100 -80q47 -59 105.5 -78.5t125.5 -19.5q45 0 97.5 17.5t97.5 63.5 t74.5 128t29.5 211v737q0 49 -9 119t-44 132t-103.5 107.5t-189.5 45.5q-72 0 -147.5 -32t-147.5 -110l-18 -20h-8v297h475v76h-475v174h-175z" />
<glyph unicode="&#x453;" horiz-adv-x="856" d="M836 942v82h-672v-1024h174v942h498zM446 1458h228l-318 -260h-80z" />
<glyph unicode="&#x454;" horiz-adv-x="1101" d="M580 965q-51 0 -107.5 -16.5t-105 -60.5t-79 -124t-32.5 -205h401v-74h-401q0 -20 3 -59t13.5 -87t32 -98.5t57 -90t90 -66.5t132.5 -27q70 0 123 20.5t93 52.5t66.5 70t42.5 70l90 -90q-92 -119 -196.5 -161t-227.5 -42q-63 0 -126.5 10.5t-122.5 39.5 q-47 23 -93.5 61.5t-85 99t-62.5 141.5t-24 187q0 123 35 221.5t100.5 167t159 105.5t209.5 37q100 0 178 -26t131.5 -64.5t81 -86t29.5 -90.5h-151q-6 59 -35 95t-67 56.5t-78.5 27t-73.5 6.5z" />
<glyph unicode="&#x455;" horiz-adv-x="983" d="M817 791q0 55 -28.5 102t-79 81t-117 53.5t-141.5 19.5q-72 0 -134.5 -18.5t-108.5 -55.5t-72.5 -91.5t-26.5 -125.5q0 -98 45 -155.5t112.5 -92.5t146.5 -56.5t146.5 -47t112.5 -64.5t45 -107q0 -29 -9.5 -59.5t-34 -56t-67.5 -43t-108 -17.5q-82 0 -138.5 26 t-92.5 61.5t-51 72.5t-15 62h-133q0 -57 26.5 -111.5t80.5 -97.5t133 -69t184 -26q188 0 283 83t95 218q0 98 -46 158t-115.5 95.5t-150.5 58t-150.5 47t-115.5 59.5t-46 99q0 27 10 56.5t34.5 55t65.5 43t103 17.5q61 0 106 -17.5t76 -43t45 -56.5t14 -57h117z" />
<glyph unicode="&#x456;" horiz-adv-x="630" d="M229 1024v-1024h174v1024h-174zM205 1348q0 -45 32.5 -78t77.5 -33t78 33t33 78t-33 77.5t-78 32.5t-77.5 -32.5t-32.5 -77.5z" />
<glyph unicode="&#x457;" horiz-adv-x="630" d="M229 1024v-1024h174v1024h-174zM63 1348q0 -45 33 -78t78 -33t78 33t33 78t-33 77.5t-78 32.5t-78 -32.5t-33 -77.5zM346 1348q0 -45 33 -78t78 -33t77.5 33t32.5 78t-32.5 77.5t-77.5 32.5t-78 -32.5t-33 -77.5z" />
<glyph unicode="&#x458;" horiz-adv-x="595" d="M231 1024v-1212q0 -47 -4 -91.5t-17 -79t-39 -55t-67 -20.5q-51 0 -76.5 24.5t-47.5 77.5l-103 -80q45 -59 105.5 -79.5t126.5 -20.5q45 0 97 16.5t97 62.5t75 127t30 210v1120h-177zM211 1348q0 -45 31.5 -78t79.5 -33q45 0 77.5 33t32.5 78t-32.5 77.5t-77.5 32.5 q-47 0 -79 -32.5t-32 -77.5z" />
<glyph unicode="&#x459;" horiz-adv-x="1632" d="M928 80v409h188q33 0 75 -9t79 -31.5t61.5 -60.5t24.5 -97q0 -53 -12.5 -94t-59.5 -80q-43 -29 -76.5 -33t-79.5 -4h-200zM754 0h428q76 0 140 16.5t110.5 50t72 87t25.5 125.5q0 104 -44 161.5t-107.5 83t-133 30.5t-119.5 5h-198v465h-187l-411 -756 q-41 -72 -88 -114.5t-95 -42.5q-29 0 -57.5 13t-50.5 30l-19 -154q29 -6 53.5 -15.5t55.5 -9.5q41 0 76 13.5t65.5 43t62.5 76t66 113.5l346 660h9v-881z" />
<glyph unicode="&#x45a;" horiz-adv-x="1701" d="M997 78v411h189q20 0 60 -4t80 -23.5t69.5 -59.5t29.5 -109q0 -92 -54 -153.5t-171 -61.5h-203zM823 489v-489h486q57 0 110.5 19.5t93 55.5t63 87t23.5 114q0 104 -44 162t-107.5 84.5t-132 31.5t-119.5 5h-199v465h-174v-465h-485v465h-174v-1024h174v489h485z" />
<glyph unicode="&#x45b;" d="M61 1184h170v-1184h175v592q0 41 6 100.5t33.5 114.5t83 95t153.5 40q70 0 112 -25.5t64.5 -68.5t29.5 -100.5t7 -118.5v-629h174v676q0 115 -32.5 187.5t-82 113.5t-108 55.5t-111.5 14.5q-72 0 -150.5 -28t-148.5 -106l-22 -28h-8v299h475v78h-475v172h-175v-172h-170 v-78z" />
<glyph unicode="&#x45c;" horiz-adv-x="1130" d="M565 1458h228l-318 -260h-80zM338 496v528h-174v-1024h174v360l113 119l254 -334q25 -31 51 -61.5t57 -55t66.5 -39t76.5 -14.5q37 0 72 8.5t62 16.5v82h-58q-25 0 -51.5 14.5t-54 38t-53 51t-46.5 54.5l-268 350l416 434h-129z" />
<glyph unicode="&#x45e;" horiz-adv-x="1052" d="M582 240l-355 784h-186l459 -1012l-109 -266q-18 -47 -48 -75.5t-69 -28.5q-37 0 -70.5 21.5t-51.5 62.5l-91 -170q39 -35 86.5 -51.5t88.5 -16.5q57 0 100 28.5t75.5 75t57.5 102.5t47 111l496 1219h-101l-321 -784h-8zM571 1208q37 0 97.5 3t117 21.5t97.5 59.5t41 117 v25h-197q2 -10 3 -19.5t1 -19.5q0 -43 -18.5 -67.5t-44 -37t-52 -14.5t-45.5 -2q-18 0 -45.5 2t-53.5 14.5t-44 37t-18 67.5q0 10 1 19t3 20h-195v-25q0 -76 41 -117t97.5 -59.5t115.5 -21.5t98 -3z" />
<glyph unicode="&#x45f;" horiz-adv-x="1153" d="M492 -215h172v215h325v1024h-174v-942h-477v942h-174v-1024h328v-215z" />
<glyph unicode="&#x490;" horiz-adv-x="1181" d="M946 1649v-215h-700v-1434h186v1321h688v328h-174z" />
<glyph unicode="&#x491;" horiz-adv-x="856" d="M338 942h498v297h-144v-215h-528v-1024h174v942z" />
<glyph unicode="&#x1e02;" horiz-adv-x="1353" d="M246 0h514q137 0 231 36t151.5 93t83 130t25.5 147q0 117 -50 186.5t-119.5 106t-143.5 49t-119 14.5v8q72 0 135.5 27.5t111.5 71.5t76.5 102.5t28.5 124.5q0 57 -24.5 116.5t-74.5 108.5t-129 81t-185 32h-512v-1434zM432 90v627h225q100 0 174 -26.5t122 -72 t72 -104.5t24 -125q0 -72 -26 -127t-69 -94t-101 -58.5t-124 -19.5h-297zM432 807v536h250q80 0 136 -22.5t92 -59t52.5 -84t16.5 -94.5q0 -59 -23.5 -110t-65.5 -88t-96.5 -57.5t-115.5 -20.5h-246zM565 1757q0 -45 33 -77.5t78 -32.5t77.5 32.5t32.5 77.5t-32.5 78 t-77.5 33t-78 -33t-33 -78z" />
<glyph unicode="&#x1e03;" horiz-adv-x="1236" d="M164 1434h174v-578h8q20 53 54 89t77 58.5t91 33t98 10.5q102 0 188 -38t148.5 -108t97.5 -168t35 -219q0 -123 -35 -222t-97.5 -170t-148.5 -109t-188 -38q-244 0 -320 191h-8v-166h-174v1434zM338 410q0 -68 21.5 -128.5t60.5 -104.5t91 -69.5t112 -25.5 q63 0 121.5 23.5t101.5 74.5t68.5 133t25.5 197q0 117 -25.5 199t-69.5 134t-101.5 75.5t-120.5 23.5q-57 0 -108.5 -23.5t-90.5 -69.5t-62.5 -111.5t-23.5 -149.5v-178zM508 1348q0 -45 32.5 -78t77.5 -33t78 33t33 78t-32.5 77.5t-78.5 32.5q-45 0 -77.5 -32.5 t-32.5 -77.5z" />
<glyph unicode="&#x1e0a;" horiz-adv-x="1566" d="M266 0v1434h471q170 0 311.5 -54.5t243 -149.5t157.5 -226.5t56 -282.5q0 -158 -58 -290t-159.5 -228.5t-237 -149.5t-288.5 -53h-496zM453 90h225q168 0 285.5 56.5t193.5 146.5t111 201.5t35 222.5q0 123 -41 236.5t-120 200.5t-196 138t-268 51h-225v-1253zM672 1757 q0 -45 32.5 -77.5t77.5 -32.5t78 32.5t33 77.5t-33 78t-78 33t-77.5 -33t-32.5 -78z" />
<glyph unicode="&#x1e0b;" horiz-adv-x="1236" d="M1073 1434h-174v-578h-8q-20 53 -54 89t-77 58.5t-91 33t-98 10.5q-102 0 -188 -38t-148.5 -108t-97.5 -168t-35 -219q0 -123 35 -222t97.5 -170t148.5 -109t188 -38q242 0 320 191h8v-166h174v1434zM899 410q0 -68 -22.5 -128.5t-60.5 -104.5t-90 -69.5t-112 -25.5 q-66 0 -123 23.5t-100 74.5t-68.5 133t-25.5 197q0 117 25.5 199t69.5 134t101.5 75.5t120.5 23.5q57 0 108.5 -23.5t90.5 -69.5t62.5 -111.5t23.5 -149.5v-178zM508 1348q0 -45 32.5 -78t77.5 -33t78 33t33 78t-32.5 77.5t-78.5 32.5q-45 0 -77.5 -32.5t-32.5 -77.5z" />
<glyph unicode="&#x1e1e;" d="M246 1434v-1434h186v713h635v94h-635v514h739v113h-925zM506 1757q0 -45 32.5 -77.5t77.5 -32.5t78 32.5t33 77.5t-32.5 78t-78.5 33q-45 0 -77.5 -33t-32.5 -78z" />
<glyph unicode="&#x1e1f;" horiz-adv-x="743" d="M61 1024v-82h179v-942h174v942h248v82h-248v172q0 25 2 58.5t12 63.5t31.5 50.5t60.5 20.5q49 0 81 -41t52 -84l90 96q-49 49 -101 73.5t-118 24.5q-53 0 -104 -18.5t-91 -56t-64.5 -97t-24.5 -139.5v-123h-179zM260 1733q0 -45 33 -78t78 -33t77.5 33t32.5 78 t-32.5 77.5t-77.5 32.5t-78 -32.5t-33 -77.5z" />
<glyph unicode="&#x1e40;" horiz-adv-x="2101" d="M385 1434h-139v-1434h90v1169h8l633 -1194h37l647 1186h8v-1161h186v1434h-141l-663 -1231h-9zM940 1757q0 -45 33 -77.5t78 -32.5t77.5 32.5t32.5 77.5t-32.5 78t-77.5 33t-78 -33t-33 -78z" />
<glyph unicode="&#x1e41;" horiz-adv-x="1759" d="M338 0v584q0 37 6 97t31.5 118.5t79 100.5t149.5 42q70 0 108 -30.5t56 -75.5t21.5 -94.5t3.5 -86.5v-655h174v584q0 45 8 107.5t34.5 117.5t77 94t136.5 39q63 0 102 -18.5t60.5 -55.5t28.5 -90t7 -123v-655h174v715q0 47 -10 105.5t-44 108.5t-98.5 84t-170.5 34 q-31 0 -72 -6.5t-86 -27t-87 -59.5t-73 -102h-14q-12 33 -34.5 66.5t-57.5 62.5t-83 47.5t-116 18.5q-31 0 -74 -7.5t-86 -28t-80.5 -57t-62.5 -96.5h-8v166h-174v-1024h174zM768 1348q0 -45 33 -78t78 -33t77.5 33t32.5 78t-32.5 77.5t-77.5 32.5t-78 -32.5t-33 -77.5z" />
<glyph unicode="&#x1e56;" horiz-adv-x="1255" d="M432 598q53 -14 114.5 -23.5t135.5 -9.5q125 0 221 35t160.5 95.5t97.5 139t33 169.5q0 86 -28.5 164.5t-87 137t-146.5 93.5t-207 35h-479v-1434h186v598zM432 1343h215q86 0 151.5 -30.5t108.5 -80.5t64.5 -112.5t21.5 -124.5q0 -59 -19.5 -119.5t-62.5 -109.5 t-108.5 -80t-157.5 -31q-63 0 -116.5 5.5t-96.5 21.5v661zM516 1757q0 -45 33 -77.5t78 -32.5t77.5 32.5t32.5 77.5t-32.5 78t-77.5 33t-78 -33t-33 -78z" />
<glyph unicode="&#x1e57;" horiz-adv-x="1236" d="M164 -512h174v680h8q20 -53 54 -90t77 -59.5t91 -33t98 -10.5q102 0 188 38t148.5 107.5t97.5 169t35 220.5q0 123 -35 221t-97.5 169t-148.5 109t-188 38q-244 0 -320 -189h-8v166h-174v-1536zM338 614q0 68 21.5 128.5t60.5 104.5t91 69.5t112 25.5q63 0 121.5 -23.5 t101.5 -74.5t68.5 -133t25.5 -197q0 -117 -25.5 -199t-69.5 -134t-101.5 -75.5t-120.5 -23.5q-57 0 -108.5 23.5t-90.5 69.5t-62.5 111.5t-23.5 149.5v178zM508 1348q0 -45 32.5 -78t77.5 -33t78 33t33 78t-32.5 77.5t-78.5 32.5q-45 0 -77.5 -32.5t-32.5 -77.5z" />
<glyph unicode="&#x1e60;" horiz-adv-x="1280" d="M76 362q4 -88 46 -159.5t114.5 -121.5t171 -78t215.5 -28q119 0 214 29t162.5 82t104.5 129t37 168q0 127 -63.5 208t-159 135t-207 91t-206.5 78t-158.5 94t-63.5 141q0 49 21.5 92.5t63.5 75t103 51t141 19.5q133 0 226.5 -56.5t109.5 -176.5h139q-12 76 -55 136 t-108.5 102t-148.5 63.5t-173 21.5q-94 0 -179 -24.5t-149.5 -71.5t-102.5 -119t-38 -164q0 -121 61.5 -194.5t154.5 -122.5t201.5 -84t202 -79t155 -107.5t61.5 -169.5q0 -133 -97.5 -194.5t-259.5 -61.5q-129 0 -206.5 33.5t-118.5 80.5t-55.5 97.5t-16.5 84.5h-139z M528 1757q0 -45 33 -77.5t78 -32.5t78 32.5t33 77.5t-33 78t-78 33t-78 -33t-33 -78z" />
<glyph unicode="&#x1e61;" horiz-adv-x="983" d="M817 791q0 55 -28.5 102t-79 81t-117 53.5t-141.5 19.5q-72 0 -134.5 -18.5t-108.5 -55.5t-72.5 -91.5t-26.5 -125.5q0 -98 45 -155.5t112.5 -92.5t146.5 -56.5t146.5 -47t112.5 -64.5t45 -107q0 -29 -9.5 -59.5t-34 -56t-67.5 -43t-108 -17.5q-82 0 -138.5 26 t-92.5 61.5t-51 72.5t-15 62h-133q0 -57 26.5 -111.5t80.5 -97.5t133 -69t184 -26q188 0 283 83t95 218q0 98 -46 158t-115.5 95.5t-150.5 58t-150.5 47t-115.5 59.5t-46 99q0 27 10 56.5t34.5 55t65.5 43t103 17.5q61 0 106 -17.5t76 -43t45 -56.5t14 -57h117zM381 1348 q0 -45 32.5 -78t78.5 -33q45 0 77.5 33t32.5 78t-32.5 77.5t-77.5 32.5t-78 -32.5t-33 -77.5z" />
<glyph unicode="&#x1e6a;" horiz-adv-x="1366" d="M776 0v1321h549v113h-1284v-113h549v-1321h186zM571 1757q0 -45 33 -77.5t78 -32.5t78 32.5t33 77.5t-33 78t-78 33t-78 -33t-33 -78z" />
<glyph unicode="&#x1e6b;" horiz-adv-x="768" d="M61 942v82h179v315h174v-315h248v-82h-248v-680q0 -25 2 -56.5t12 -59t31.5 -46t60.5 -18.5q49 0 82 37t53 80l97 -99q-100 -100 -228 -100q-53 0 -104 18.5t-91 56.5t-64.5 97t-24.5 139v631h-179zM223 1714q0 -45 33 -77.5t78 -32.5t77.5 32.5t32.5 77.5t-32.5 78 t-77.5 33t-78 -33t-33 -78z" />
<glyph unicode="&#x1e80;" horiz-adv-x="2162" d="M61 1434l508 -1434h123l391 1120h11l379 -1120h120l508 1434h-94l-424 -1196h-8l-399 1196h-89l-407 -1190h-8l-422 1190h-189zM1110 1868h-227l317 -260h80z" />
<glyph unicode="&#x1e81;" horiz-adv-x="1527" d="M41 1024l354 -1024h111l237 686h9l266 -686h96l373 1024h-107l-278 -766h-8l-291 766h-41l-268 -772h-9l-266 772h-178zM793 1458h-228l318 -260h80z" />
<glyph unicode="&#x1e82;" horiz-adv-x="2162" d="M61 1434l508 -1434h123l391 1120h11l379 -1120h120l508 1434h-94l-424 -1196h-8l-399 1196h-89l-407 -1190h-8l-422 1190h-189zM1053 1868h227l-317 -260h-80z" />
<glyph unicode="&#x1e83;" horiz-adv-x="1527" d="M41 1024l354 -1024h111l237 686h9l266 -686h96l373 1024h-107l-278 -766h-8l-291 766h-41l-268 -772h-9l-266 772h-178zM735 1458h228l-318 -260h-80z" />
<glyph unicode="&#x1e84;" horiz-adv-x="2162" d="M61 1434l508 -1434h123l391 1120h11l379 -1120h120l508 1434h-94l-424 -1196h-8l-399 1196h-89l-407 -1190h-8l-422 1190h-189zM829 1757q0 -45 33 -77.5t78 -32.5t78 32.5t33 77.5t-33 78t-78 33t-78 -33t-33 -78zM1112 1757q0 -45 33 -77.5t78 -32.5t77.5 32.5 t32.5 77.5t-32.5 78t-77.5 33t-78 -33t-33 -78z" />
<glyph unicode="&#x1e85;" horiz-adv-x="1527" d="M41 1024l354 -1024h111l237 686h9l266 -686h96l373 1024h-107l-278 -766h-8l-291 766h-41l-268 -772h-9l-266 772h-178zM512 1348q0 -45 33 -78t78 -33t77.5 33t32.5 78t-32.5 77.5t-77.5 32.5t-78 -32.5t-33 -77.5zM795 1348q0 -45 32.5 -78t77.5 -33t78 33t33 78 t-33 77.5t-78 32.5t-77.5 -32.5t-32.5 -77.5z" />
<glyph unicode="&#x1ef2;" horiz-adv-x="1308" d="M61 1434l496 -891v-543h186v561l504 873h-110l-439 -756h-8l-418 756h-211zM682 1868h-227l317 -260h80z" />
<glyph unicode="&#x1ef3;" horiz-adv-x="1032" d="M561 240l-354 784h-187l459 -1012l-108 -266q-18 -47 -48 -75.5t-69 -28.5q-37 0 -70.5 21.5t-52.5 62.5l-90 -170q39 -35 86 -51.5t88 -16.5q57 0 100 28.5t76 75t57.5 102.5t47.5 111l495 1219h-100l-322 -784h-8zM545 1458h-228l318 -260h80z" />
<glyph unicode="&#x2000;" horiz-adv-x="942" />
<glyph unicode="&#x2001;" horiz-adv-x="1884" />
<glyph unicode="&#x2002;" horiz-adv-x="942" />
<glyph unicode="&#x2003;" horiz-adv-x="1884" />
<glyph unicode="&#x2004;" horiz-adv-x="628" />
<glyph unicode="&#x2005;" horiz-adv-x="471" />
<glyph unicode="&#x2006;" horiz-adv-x="314" />
<glyph unicode="&#x2007;" horiz-adv-x="314" />
<glyph unicode="&#x2008;" horiz-adv-x="235" />
<glyph unicode="&#x2009;" horiz-adv-x="376" />
<glyph unicode="&#x200a;" horiz-adv-x="104" />
<glyph unicode="&#x2010;" horiz-adv-x="751" d="M629 625v-154h-506v154h506z" />
<glyph unicode="&#x2011;" horiz-adv-x="751" d="M629 625v-154h-506v154h506z" />
<glyph unicode="&#x2012;" horiz-adv-x="751" d="M629 625v-154h-506v154h506z" />
<glyph unicode="&#x2013;" horiz-adv-x="1900" d="M246 471h1409v129h-1409v-129z" />
<glyph unicode="&#x2014;" horiz-adv-x="2269" d="M82 471h2105v129h-2105v-129z" />
<glyph unicode="&#x2018;" horiz-adv-x="399" d="M102 942h195v528h-72z" />
<glyph unicode="&#x2019;" horiz-adv-x="399" d="M297 1470h-195v-528h74z" />
<glyph unicode="&#x201a;" horiz-adv-x="356" d="M274 252h-192v-528h70z" />
<glyph unicode="&#x201c;" horiz-adv-x="817" d="M520 905h195v529h-74zM102 905h195v529h-72z" />
<glyph unicode="&#x201d;" horiz-adv-x="817" d="M297 1434h-195v-529h74zM715 1434h-195v-529h72z" />
<glyph unicode="&#x201e;" horiz-adv-x="776" d="M276 250h-194v-529h74zM694 250h-194v-529h71z" />
<glyph unicode="&#x2020;" horiz-adv-x="1124" d="M471 -451h180v1231h391v181h-391v473h-180v-473h-389v-181h389v-1231z" />
<glyph unicode="&#x2021;" horiz-adv-x="1124" d="M471 -451h180v471h391v181h-391v581h391v181h-391v471h-180v-471h-389v-181h389v-581h-389v-181h389v-471z" />
<glyph unicode="&#x2022;" horiz-adv-x="974" d="M246 670q0 -49 18.5 -92t51 -76t76.5 -51.5t95 -18.5q49 0 93.5 18.5t77 51.5t52 76t19.5 92q0 51 -19.5 96t-52 78t-76.5 51t-94 18q-51 0 -95 -18t-76.5 -51t-51 -78t-18.5 -96z" />
<glyph unicode="&#x2026;" horiz-adv-x="1169" d="M475 88q0 -45 33 -78t78 -33t77.5 33t32.5 78t-32.5 78t-77.5 33t-78 -33t-33 -78zM82 88q0 -45 32.5 -78t78.5 -33q45 0 77.5 33t32.5 78t-32.5 78t-77.5 33t-78 -33t-33 -78zM866 88q0 -45 33 -78t78 -33t77.5 33t32.5 78t-32.5 78t-77.5 33t-78 -33t-33 -78z" />
<glyph unicode="&#x202f;" horiz-adv-x="376" />
<glyph unicode="&#x2030;" horiz-adv-x="2254" d="M123 1135q0 -66 21.5 -126.5t60.5 -105.5t94 -71.5t123 -26.5t123 26.5t95 71.5t61.5 105.5t21.5 126.5q0 51 -16.5 108t-53.5 104.5t-94 79t-137 31.5t-136.5 -31.5t-93 -79t-53 -104.5t-16.5 -108zM256 1135q0 43 8 88t27.5 81.5t51.5 60.5t79 24q49 0 81 -24t50 -60.5 t26.5 -81.5t8.5 -88q0 -74 -16.5 -124t-41 -81t-53 -44.5t-55.5 -13.5q-25 0 -54.5 13.5t-54 44.5t-41 81t-16.5 124zM795 299q0 -63 21.5 -121.5t61.5 -102.5t95 -71t123 -27t123 27t95 71t61.5 102.5t21.5 121.5q0 53 -16.5 111.5t-53.5 106.5t-94 79t-137 31t-137.5 -31 t-94.5 -79t-53 -106.5t-16 -111.5zM930 299q0 45 8 92t27.5 84t51.5 60.5t79 23.5q49 0 80.5 -23.5t51 -60.5t27 -84t7.5 -92q0 -74 -16.5 -123t-41 -79.5t-54.5 -43t-54 -12.5q-25 0 -53.5 12.5t-54 43t-42 79.5t-16.5 123zM1094 1458l-789 -1483h121l793 1483h-125z M1530 299q0 -63 21.5 -121.5t61.5 -102.5t95 -71t123 -27t123 27t95 71t61.5 102.5t21.5 121.5q0 53 -16.5 111.5t-53.5 106.5t-94 79t-137 31t-137.5 -31t-94 -79t-53 -106.5t-16.5 -111.5zM1665 299q0 45 8 92t27.5 84t51.5 60.5t79 23.5q49 0 81 -23.5t51 -60.5t26.5 -84 t7.5 -92q0 -74 -16.5 -123t-41 -79.5t-54.5 -43t-54 -12.5q-25 0 -53.5 12.5t-54 43t-42 79.5t-16.5 123z" />
<glyph unicode="&#x2039;" horiz-adv-x="712" d="M309 530l240 406h-139l-246 -406l246 -405h139z" />
<glyph unicode="&#x203a;" horiz-adv-x="712" d="M403 530l-239 406h139l246 -406l-246 -405h-139z" />
<glyph unicode="&#x2044;" horiz-adv-x="1056" d="M850 1458l-789 -1483h142l792 1483h-145z" />
<glyph unicode="&#x205f;" horiz-adv-x="471" />
<glyph unicode="&#x20ac;" horiz-adv-x="1222" d="M666 1456q-119 0 -211.5 -50t-157 -133t-103 -188.5t-51.5 -216.5h-92l-49 -90h135q-2 -12 -2 -24.5v-24.5v-32.5t2 -32.5h-86l-49 -91h143q8 -117 47 -224t108 -190t163 -133.5t213 -50.5q139 0 242.5 55.5t187.5 180.5l-68 51q-12 -18 -36.5 -51t-66.5 -65.5 t-100.5 -57.5t-138.5 -25q-98 0 -165.5 44.5t-109.5 117t-61.5 163.5t-19.5 185h410l47 91h-459v114h520l47 90h-567q4 86 20.5 174t54.5 161t104.5 118t170.5 45q41 0 93.5 -10t99.5 -41t80.5 -86t39.5 -144h113q-20 102 -74 185q-23 35 -56.5 68.5t-78.5 59t-104 42 t-135 16.5z" />
<glyph unicode="&#x2122;" horiz-adv-x="1839" d="M510 705v647h254v82h-641v-82h256v-647h131zM985 1434h-160v-729h82v598l307 -598h76l309 593v-593h138v729h-152l-301 -574z" />
<glyph unicode="&#x25ca;" horiz-adv-x="892" d="M791 715l-334 743l-355 -743l334 -740zM655 715l-219 -453l-198 453l215 456z" />
<glyph unicode="&#x25fc;" horiz-adv-x="1024" d="M0 1024h1024v-1024h-1024v1024z" />
</font>
</defs>
</svg>
