<?xml version="1.0" encoding="UTF-8" standalone="no"?>
<svg width="99px" height="33px" viewBox="0 0 99 33" version="1.1" xmlns="http://www.w3.org/2000/svg" xmlns:xlink="http://www.w3.org/1999/xlink">
    <!-- Generator: Sketch 3.6.1 (26313) - http://www.bohemiancoding.com/sketch -->
    <title>Shape</title>
    <desc>Created with Sketch.</desc>
    <defs></defs>
    <g id="Page-1" stroke="none" stroke-width="1" fill="none" fill-rule="evenodd">
        <path d="M53,11.2579201 L51.00038,11.2579201 C50.76406,11.2579201 50.50002,11.5784186 50.50002,12.0071449 L50.50002,13.4954933 L53,13.4954933 L53,15.6167577 L50.50002,15.6167577 L50.50002,21.987189 L48.1399,21.987189 L48.1399,15.6167577 L46,15.6167577 L46,13.4954933 L48.1399,13.4954933 L48.1399,12.2468333 C48.1399,10.4564573 49.34544,9 51.00038,9 L53,9 L53,11.2579201 L53,11.2579201 Z" id="Shape" fill="#AE814A"></path>
        <path d="M88.4375,8 L76.0625,8 C74.9234844,8 74,8.92348437 74,10.0625 L74,22.4375 C74,23.5765156 74.9234844,24.5 76.0625,24.5 L88.4375,24.5 C89.5765156,24.5 90.5,23.5765156 90.5,22.4375 L90.5,10.0625 C90.5,8.92348437 89.5765156,8 88.4375,8 L88.4375,8 Z M79.0719453,15.9078828 C79.0752969,15.8751406 79.0822578,15.8436875 79.0866406,15.8114609 C79.0974687,15.7315391 79.1093281,15.6521328 79.1260859,15.5742734 C79.1335625,15.5392109 79.143875,15.5054375 79.1526406,15.4708906 C79.1712031,15.3971562 79.1905391,15.3236797 79.214,15.2520078 C79.2253437,15.2179766 79.2384922,15.1852344 79.2506094,15.1517187 C79.2763906,15.0815937 79.3032031,15.0122422 79.333625,14.9444375 C79.3387812,14.9328359 79.3423906,14.9207187 79.3478047,14.9091172 L79.3506406,14.9091172 C79.8580156,13.8141875 80.9637734,13.0528672 82.25,13.0528672 C83.5359687,13.0528672 84.6417266,13.8141875 85.1493594,14.9091172 L85.1521953,14.9091172 C85.1576094,14.9207187 85.1612187,14.9328359 85.1666328,14.9444375 C85.1967969,15.0122422 85.2238672,15.0815937 85.2493906,15.1517187 C85.2617656,15.1852344 85.2749141,15.2179766 85.286,15.2520078 C85.3097187,15.3236797 85.3287969,15.3968984 85.3473594,15.4708906 C85.356125,15.5054375 85.3664375,15.5392109 85.3741719,15.5742734 C85.3906719,15.6521328 85.4022734,15.7315391 85.4133594,15.8114609 C85.418,15.8436875 85.4244453,15.8751406 85.4283125,15.9078828 C85.4399141,16.0202891 85.446875,16.1342422 85.446875,16.25 C85.446875,18.0160156 84.0152422,19.446875 82.25,19.446875 C80.4845,19.446875 79.053125,18.0152422 79.053125,16.25 C79.053125,16.1342422 79.0600859,16.0202891 79.0719453,15.9078828 L79.0719453,15.9078828 Z M88.64375,21.81875 C88.64375,22.2745625 88.2743047,22.64375 87.81875,22.64375 L76.68125,22.64375 C76.2256953,22.64375 75.85625,22.2743047 75.85625,21.81875 L75.85625,14.909375 L77.3770859,14.909375 C77.2597813,15.3363125 77.196875,15.7859375 77.196875,16.25 C77.196875,19.0408203 79.4591797,21.303125 82.25,21.303125 C85.0408203,21.303125 87.303125,19.0408203 87.303125,16.25 C87.303125,15.7859375 87.2402188,15.3363125 87.1229141,14.909375 L88.64375,14.909375 L88.64375,21.81875 L88.64375,21.81875 Z M88.64375,12.33125 C88.64375,12.7868047 88.2743047,13.15625 87.81875,13.15625 L86.16875,13.15625 C85.7131953,13.15625 85.34375,12.7868047 85.34375,12.33125 L85.34375,10.68125 C85.34375,10.2256953 85.7134531,9.85625 86.16875,9.85625 L87.81875,9.85625 C88.2745625,9.85625 88.64375,10.2254375 88.64375,10.68125 L88.64375,12.33125 L88.64375,12.33125 Z" id="Shape" fill="#AE814A"></path>
        <g id="Group-Copy" transform="translate(5.000000, 9.000000)" fill="#AE814A">
            <path d="M6.54903704,7.97674074 C6.54903704,8.49722222 6.12651852,8.92314815 5.60603704,8.92314815 C5.08385185,8.92314815 4.66218519,8.49722222 4.66218519,7.97674074 C4.66218519,7.45711111 5.08385185,7.0362963 5.60603704,7.0362963 C6.12651852,7.03714815 6.54903704,7.45711111 6.54903704,7.97674074 L6.54903704,7.97674074 Z" id="Shape"></path>
            <path d="M17.9246667,7.97674074 C17.9246667,8.49722222 17.5038519,8.92314815 16.9833704,8.92314815 C16.4594815,8.92314815 16.0395185,8.49722222 16.0395185,7.97674074 C16.0395185,7.45711111 16.4594815,7.0362963 16.9833704,7.0362963 C17.5038519,7.03714815 17.9246667,7.45711111 17.9246667,7.97674074 L17.9246667,7.97674074 Z" id="Shape"></path>
            <path d="M2.80174074,7.97674074 C2.80174074,9.52455556 4.06077778,10.781037 5.60774074,10.781037 C7.1512963,10.781037 8.40948148,9.52455556 8.40948148,7.97674074 C8.40948148,6.43318519 7.15044444,5.17585185 5.60774074,5.17585185 C4.06077778,5.17755556 2.80174074,6.43403704 2.80174074,7.97674074 L2.80174074,7.97674074 Z M3.76859259,7.97674074 C3.76859259,6.96474074 4.59574074,6.141 5.60944444,6.141 C6.62144444,6.141 7.44433333,6.96644444 7.44433333,7.97674074 C7.44433333,8.99214815 6.62144444,9.81674074 5.60944444,9.81674074 C4.59574074,9.81759259 3.76859259,8.99385185 3.76859259,7.97674074 L3.76859259,7.97674074 Z" id="Shape"></path>
            <path d="M14.1782222,7.97674074 C14.1782222,9.52455556 15.4355556,10.781037 16.9825185,10.781037 C18.5269259,10.781037 19.7834074,9.52455556 19.7834074,7.97674074 C19.7834074,6.43318519 18.5269259,5.17585185 16.9825185,5.17585185 C15.4364074,5.17755556 14.1782222,6.43403704 14.1782222,7.97674074 L14.1782222,7.97674074 Z M15.1450741,7.97674074 C15.1450741,6.96474074 15.9696667,6.141 16.9842222,6.141 C17.9962222,6.141 18.8182593,6.96644444 18.8182593,7.97674074 C18.8182593,8.99214815 17.9962222,9.81674074 16.9842222,9.81674074 C15.9688148,9.81759259 15.1450741,8.99385185 15.1450741,7.97674074 L15.1450741,7.97674074 Z" id="Shape"></path>
            <path d="M21.5578148,4.67751852 C21.8235926,3.53859259 22.6686296,2.39796296 22.6686296,2.39796296 L18.8787407,2.39540741 C16.7533704,1.02307407 14.1731111,0.295592593 11.3134444,0.295592593 C8.34559259,0.295592593 5.66566667,1.04096296 3.55222222,2.42266667 L0,2.42607407 C0,2.42607407 0.834814815,3.55307407 1.10485185,4.68433333 C0.414,5.62392593 0.00340740741,6.77818519 0.00340740741,8.03211111 C0.00340740741,11.160963 2.55044444,13.7062963 5.681,13.7062963 C7.47074074,13.7062963 9.06625926,12.8723333 10.1072222,11.5766667 L11.316,13.3868519 L12.5341481,11.5613333 C13.0818889,12.2581481 13.7889259,12.8237778 14.6177778,13.2071111 C15.9960741,13.8408889 17.5404815,13.9030741 18.9622222,13.3783333 C21.8994074,12.2922222 23.4071852,9.0177037 22.3210741,6.08477778 C22.1302593,5.5677037 21.8695926,5.09833333 21.5578148,4.67751852 L21.5578148,4.67751852 Z M11.3125926,1.28714815 C13.3527778,1.28714815 15.1944815,1.656 16.8215185,2.38518519 C16.2235185,2.40137037 15.6195556,2.50785185 15.0283704,2.72422222 C13.6057778,3.24896296 12.4711111,4.29674074 11.8381852,5.67588889 C11.5502593,6.3002963 11.3875556,6.95962963 11.3372963,7.62662963 C11.1294444,4.72266667 8.73659259,2.41755556 5.79344444,2.35792593 C7.41877778,1.66366667 9.28688889,1.28714815 11.3125926,1.28714815 L11.3125926,1.28714815 Z M9.4317037,10.5672222 C8.61648148,11.7691852 7.23818519,12.5614074 5.6792963,12.5614074 C3.17996296,12.5614074 1.14659259,10.5263333 1.14659259,8.03211111 C1.14659259,5.53107407 3.18081481,3.50025926 5.6792963,3.50025926 C8.17777778,3.50025926 10.2111481,5.53192593 10.2111481,8.03211111 C10.2111481,8.18459259 10.1813333,8.32855556 10.166,8.47592593 C10.0901852,9.24259259 9.844,9.95985185 9.4317037,10.5672222 L9.4317037,10.5672222 Z M18.5644074,12.3032963 C17.4288889,12.7207037 16.1971111,12.6747037 15.0973704,12.167 C14.3170741,11.8058148 13.6781852,11.2393333 13.2181852,10.5365556 C13.0307778,10.252037 12.8655185,9.95048148 12.7445556,9.61996296 C12.6065556,9.24685185 12.5375556,8.86181481 12.5000741,8.47422222 C12.4242593,7.68796296 12.5384074,6.89233333 12.8774444,6.15548148 C13.3851481,5.05574074 14.2898148,4.21837037 15.4253333,3.79840741 C17.7704815,2.93377778 20.3805556,4.13659259 21.2468889,6.48088889 C22.1123704,8.82518519 20.9087037,11.4352593 18.5644074,12.3032963 L18.5644074,12.3032963 Z" id="Shape"></path>
        </g>
    </g>
</svg>