<?xml version="1.0" encoding="UTF-8" standalone="no"?>
<svg width="200px" height="50px" viewBox="0 0 200 50" version="1.1" xmlns="http://www.w3.org/2000/svg" xmlns:xlink="http://www.w3.org/1999/xlink">
    <!-- Generator: Sketch 3.6.1 (26313) - http://www.bohemiancoding.com/sketch -->
    <title>Shape</title>
    <desc>Created with Sketch.</desc>
    <defs></defs>
    <g id="Page-1" stroke="none" stroke-width="1" fill="none" fill-rule="evenodd">
        <g id="Group" transform="translate(10.000000, 14.000000)" fill="#AE814A">
            <path d="M69.3953488,4.16710704 L66.8376953,4.16710704 C66.5354256,4.16710704 66.1977,4.57704702 66.1977,5.12541787 L66.1977,7.02911931 L69.3953488,7.02911931 L69.3953488,9.74236453 L66.1977,9.74236453 L66.1977,17.8905906 L63.1789419,17.8905906 L63.1789419,9.74236453 L60.4418605,9.74236453 L60.4418605,7.02911931 L63.1789419,7.02911931 L63.1789419,5.43199612 C63.1789419,3.14198024 64.7209116,1.27906977 66.8376953,1.27906977 L69.3953488,1.27906977 L69.3953488,4.16710704 L69.3953488,4.16710704 Z" id="Shape"></path>
            <path d="M122.755814,0 L107.755814,0 C106.375189,0 105.255814,1.119375 105.255814,2.5 L105.255814,17.5 C105.255814,18.880625 106.375189,20 107.755814,20 L122.755814,20 C124.136439,20 125.255814,18.880625 125.255814,17.5 L125.255814,2.5 C125.255814,1.119375 124.136439,0 122.755814,0 L122.755814,0 Z M111.403626,9.5853125 C111.407689,9.545625 111.416126,9.5075 111.421439,9.4684375 C111.434564,9.3715625 111.448939,9.2753125 111.469251,9.1809375 C111.478314,9.1384375 111.490814,9.0975 111.501439,9.055625 C111.523939,8.96625 111.547376,8.8771875 111.575814,8.7903125 C111.589564,8.7490625 111.605501,8.709375 111.620189,8.66875 C111.651439,8.58375 111.683939,8.4996875 111.720814,8.4175 C111.727064,8.4034375 111.731439,8.38875 111.738001,8.3746875 L111.741439,8.3746875 C112.356439,7.0475 113.696751,6.1246875 115.255814,6.1246875 C116.814564,6.1246875 118.154876,7.0475 118.770189,8.3746875 L118.773626,8.3746875 C118.780189,8.38875 118.784564,8.4034375 118.791126,8.4175 C118.827689,8.4996875 118.860501,8.58375 118.891439,8.66875 C118.906439,8.709375 118.922376,8.7490625 118.935814,8.7903125 C118.964564,8.8771875 118.987689,8.9659375 119.010189,9.055625 C119.020814,9.0975 119.033314,9.1384375 119.042689,9.1809375 C119.062689,9.2753125 119.076751,9.3715625 119.090189,9.4684375 C119.095814,9.5075 119.103626,9.545625 119.108314,9.5853125 C119.122376,9.7215625 119.130814,9.8596875 119.130814,10 C119.130814,12.140625 117.395501,13.875 115.255814,13.875 C113.115814,13.875 111.380814,12.1396875 111.380814,10 C111.380814,9.8596875 111.389251,9.7215625 111.403626,9.5853125 L111.403626,9.5853125 Z M123.005814,16.75 C123.005814,17.3025 122.558001,17.75 122.005814,17.75 L108.505814,17.75 C107.953626,17.75 107.505814,17.3021875 107.505814,16.75 L107.505814,8.375 L109.349251,8.375 C109.207064,8.8925 109.130814,9.4375 109.130814,10 C109.130814,13.3828125 111.873001,16.125 115.255814,16.125 C118.638626,16.125 121.380814,13.3828125 121.380814,10 C121.380814,9.4375 121.304564,8.8925 121.162376,8.375 L123.005814,8.375 L123.005814,16.75 L123.005814,16.75 Z M123.005814,5.25 C123.005814,5.8021875 122.558001,6.25 122.005814,6.25 L120.005814,6.25 C119.453626,6.25 119.005814,5.8021875 119.005814,5.25 L119.005814,3.25 C119.005814,2.6978125 119.453939,2.25 120.005814,2.25 L122.005814,2.25 C122.558314,2.25 123.005814,2.6975 123.005814,3.25 L123.005814,5.25 L123.005814,5.25 Z" id="Shape"></path>
            <g id="Group-Copy" transform="translate(0.000000, 1.279070)">
                <path d="M8.37667528,10.2028079 C8.37667528,10.8685401 7.83624462,11.413329 7.17051249,11.413329 C6.50260121,11.413329 5.96326012,10.8685401 5.96326012,10.2028079 C5.96326012,9.53816537 6.50260121,8.99991387 7.17051249,8.99991387 C7.83624462,9.00100345 8.37667528,9.53816537 8.37667528,10.2028079 L8.37667528,10.2028079 Z" id="Shape"></path>
                <path d="M22.9268992,10.2028079 C22.9268992,10.8685401 22.3886477,11.413329 21.7229156,11.413329 C21.0528252,11.413329 20.5156632,10.8685401 20.5156632,10.2028079 C20.5156632,9.53816537 21.0528252,8.99991387 21.7229156,8.99991387 C22.3886477,9.00100345 22.9268992,9.53816537 22.9268992,10.2028079 L22.9268992,10.2028079 Z" id="Shape"></path>
                <path d="M3.58362188,10.2028079 C3.58362188,12.1825711 5.19401809,13.7896985 7.17269165,13.7896985 C9.14700689,13.7896985 10.7563135,12.1825711 10.7563135,10.2028079 C10.7563135,8.22849268 9.14591731,6.62027562 7.17269165,6.62027562 C5.19401809,6.62245478 3.58362188,8.22958226 3.58362188,10.2028079 L3.58362188,10.2028079 Z M4.82029285,10.2028079 C4.82029285,8.90838932 5.87827304,7.85476744 7.1748708,7.85476744 C8.46928941,7.85476744 9.52182171,8.91056848 9.52182171,10.2028079 C9.52182171,11.5015848 8.46928941,12.5562963 7.1748708,12.5562963 C5.87827304,12.5573859 4.82029285,11.503764 4.82029285,10.2028079 L4.82029285,10.2028079 Z" id="Shape"></path>
                <path d="M18.1349354,10.2028079 C18.1349354,12.1825711 19.7431525,13.7896985 21.721826,13.7896985 C23.6972308,13.7896985 25.3043583,12.1825711 25.3043583,10.2028079 C25.3043583,8.22849268 23.6972308,6.62027562 21.721826,6.62027562 C19.744242,6.62245478 18.1349354,8.22958226 18.1349354,10.2028079 L18.1349354,10.2028079 Z M19.3716064,10.2028079 C19.3716064,8.90838932 20.4263178,7.85476744 21.7240052,7.85476744 C23.0184238,7.85476744 24.0698665,8.91056848 24.0698665,10.2028079 C24.0698665,11.5015848 23.0184238,12.5562963 21.7240052,12.5562963 C20.4252283,12.5573859 19.3716064,11.503764 19.3716064,10.2028079 L19.3716064,10.2028079 Z" id="Shape"></path>
                <path d="M27.5739492,5.98287252 C27.9138975,4.5261068 28.9947588,3.06716193 28.9947588,3.06716193 L24.1472265,3.0638932 C21.4287295,1.30858312 18.1283979,0.378083549 14.4706848,0.378083549 C10.6745952,0.378083549 7.24678295,1.33146425 4.54354005,3.09875969 L0,3.103118 C0,3.103118 1.06778639,4.54462963 1.4131826,5.99158915 C0.529534884,7.19339363 0.0043583118,8.66977175 0.0043583118,10.2736305 C0.0043583118,14.2756503 3.26219638,17.5313092 7.26639535,17.5313092 C9.55559862,17.5313092 11.5963781,16.4646124 12.9278424,14.8073643 L14.4739535,17.1227175 L16.03205,14.7877519 C16.7326486,15.6790267 17.6369983,16.4025065 18.6971576,16.8928165 C20.4600947,17.7034625 22.4354996,17.7830017 24.2540052,17.1118217 C28.0108699,15.7226098 29.9394229,11.5342722 28.550211,7.7828553 C28.3061456,7.12148148 27.9727347,6.52112403 27.5739492,5.98287252 L27.5739492,5.98287252 Z M14.4695952,1.64635228 C17.0791344,1.64635228 19.4348019,2.11813953 21.5158958,3.05081826 C20.7510121,3.07152024 19.9785013,3.20771748 19.2223342,3.48447028 C17.402739,4.1556503 15.9514212,5.49583118 15.1418648,7.25985788 C14.7735874,8.05851852 14.565478,8.90185185 14.5011929,9.75499139 C14.2353359,6.04062016 11.1747115,3.09222222 7.41021964,3.01595177 C9.48913437,2.12794574 11.8785788,1.64635228 14.4695952,1.64635228 L14.4695952,1.64635228 Z M12.0638071,13.5162145 C11.021081,15.053609 9.25814384,16.0669165 7.26421619,16.0669165 C4.06739449,16.0669165 1.46657192,13.4639147 1.46657192,10.2736305 C1.46657192,7.07462963 4.06848407,4.4770758 7.26421619,4.4770758 C10.4599483,4.4770758 13.0607709,7.07571921 13.0607709,10.2736305 C13.0607709,10.4686649 13.0226357,10.6528036 13.0030233,10.8413006 C12.9060508,11.8219208 12.5911628,12.7393454 12.0638071,13.5162145 L12.0638071,13.5162145 Z M23.7451723,15.7367743 C22.2927649,16.2706675 20.7172351,16.2118303 19.31059,15.5624419 C18.3125366,15.1004608 17.4953531,14.3758915 16.9069811,13.4769897 C16.6672739,13.1130706 16.4558958,12.72736 16.3011757,12.3046038 C16.1246641,11.8273686 16.0364083,11.3348794 15.9884668,10.8391214 C15.8914944,9.833441 16.0374978,8.81577519 16.4711499,7.87329027 C17.1205383,6.46664513 18.2776701,5.39559001 19.7300775,4.85842808 C22.7296856,3.75250646 26.0681525,5.29099053 27.1762532,8.28950904 C28.2832644,11.2880276 26.7436908,14.6264944 23.7451723,15.7367743 L23.7451723,15.7367743 Z" id="Shape"></path>
            </g>
        </g>
        <g id="Group-2" transform="translate(163.000000, 17.000000)" stroke="#AE814A">
            <rect id="Rectangle-1" stroke-width="2" x="0.607784225" y="0.138470082" width="22.9515104" height="15.4471978" rx="2"></rect>
            <path d="M2.53459276,1.60963177 L12.0666816,10.4683979 L21.5987704,1.60963177" id="Line-Copy" stroke-width="2" stroke-linecap="square"></path>
            <path d="M21.9310345,8.68965517 L15.3103448,14.4043981" id="Line" stroke-linecap="square" transform="translate(18.620690, 11.830889) scale(-1, 1) translate(-18.620690, -11.830889) "></path>
            <path d="M9.51724138,7.86206896 L2.06896552,14.4043981" id="Line" stroke-linecap="square"></path>
        </g>
    </g>
</svg>