<?xml version="1.0" encoding="UTF-8" standalone="no"?>
<svg width="500px" height="500px" viewBox="0 0 500 500" version="1.1" xmlns="http://www.w3.org/2000/svg" xmlns:xlink="http://www.w3.org/1999/xlink" xmlns:sketch="http://www.bohemiancoding.com/sketch/ns">
    <!-- Generator: Sketch 3.3.2 (12043) - http://www.bohemiancoding.com/sketch -->
    <title>Rectangle 1</title>
    <desc>Created with Sketch.</desc>
    <defs>
        <rect id="path-1" x="0" y="0" width="30" height="30" rx="40"></rect>
    </defs>
    <g id="Page-1" stroke="none" stroke-width="1" fill="none" fill-rule="evenodd" sketch:type="MSPage">
        <rect id="Rectangle-1" sketch:type="MSShapeGroup" x="0" y="0" width="500" height="500"></rect>
        <path d="M62.7554899,7.39661476 C57.8330601,4.15354105 60.0590773,1 60.0590773,1 C55.2770014,3.7348074 54.2187014,7.90762459 55.3900371,13.183126 C53.6643369,11.7957885 53.4165284,10.1526212 53.4707898,8.0020227 C51.2755485,10.3329325 50.8824731,12.8169745 51.0264582,15.4726435 C51.2550404,19.6840959 54.8602264,23.0362043 59.1302228,22.9997047 C63.2780107,22.964279 66.786649,19.5411187 66.9870188,15.3831381 C67.1562266,11.8814896 65.6672252,9.31470398 62.7554899,7.39661476 L62.7554899,7.39661476 Z M59.2746847,20 C58.5377737,20 57.8360391,19.8589161 57.1892268,19.6109146 C56.3416143,19.2858757 55.5948096,18.7696869 55,18.1152834 C55.0273627,18.1124008 55.0540816,18.1064259 55.0816672,18.1031315 C57.5386275,17.8062993 59.5135828,15.9897492 59.9886408,13.6413543 C60.0604153,13.9952429 60.0995652,14.3608603 60.0995652,14.7353343 C60.0995652,15.753282 59.8179395,16.7051221 59.3329888,17.5278112 C61.0473669,16.5599315 62.2043751,14.751389 62.2043751,12.6753145 C62.2043751,11.2670186 61.6697767,9.98416664 60.7933152,9 C63.2170188,9.65171255 65,11.818019 65,14.3970999 C65,17.4913666 62.436551,20 59.2746847,20 L59.2746847,20 Z" id="Shape-Copy" fill="#CDA87B" sketch:type="MSShapeGroup"></path>
        <g id="✓-+-Rectangle-19-Copy-2" sketch:type="MSLayerGroup" transform="translate(50.000000, 50.000000)">
            <path d="M1,0.5 L0.5,0.5 L0.5,1 L0.5,20 L0.5,20.5 L1,20.5 L20,20.5 L20.5,20.5 L20.5,20 L20.5,1 L20.5,0.5 L20,0.5 L1,0.5 L1,0.5 Z" id="Shape" stroke="#424242" stroke-dasharray="4" sketch:type="MSShapeGroup"></path>
            <path d="M5.26219512,12.4634146 C5.0670722,12.2073158 5.00304845,11.9268308 5.07012195,11.6219512 C5.13719546,11.3170716 5.31097421,11.0731716 5.59146341,10.8902439 C5.8841478,10.7073162 6.19816905,10.6463412 6.53353659,10.7073171 C6.86890412,10.768293 7.13414537,10.9329255 7.32926829,11.2012195 L9.3597561,13.7621951 L14.7926829,5.32926829 C14.9756107,5.04877909 15.2134132,4.87195159 15.5060976,4.79878049 C15.798782,4.72560939 16.0975595,4.76829189 16.402439,4.92682927 C16.6951234,5.08536665 16.8841459,5.31707165 16.9695122,5.62195122 C17.0548785,5.92683079 17.012196,6.21341329 16.8414634,6.48170732 L10.5304878,16.1585366 C10.4329263,16.3292691 10.2896351,16.4634141 10.1006098,16.5609756 C9.91158442,16.6585371 9.71341567,16.7134146 9.50609756,16.7256098 C9.28658427,16.7378049 9.08841552,16.6981712 8.91158537,16.6067073 C8.73475521,16.5152434 8.57926896,16.3902447 8.44512195,16.2317073 L5.26219512,12.4634146 Z" id="✓" fill="#C84E3D" sketch:type="MSShapeGroup"></path>
        </g>
        <g id="✓-+-Rectangle-19-Copy-3" sketch:type="MSLayerGroup" transform="translate(0.000000, 50.000000)" stroke="#979797" stroke-dasharray="4">
            <path d="M1,0.5 L0.5,0.5 L0.5,1 L0.5,20 L0.5,20.5 L1,20.5 L20,20.5 L20.5,20.5 L20.5,20 L20.5,1 L20.5,0.5 L20,0.5 L1,0.5 L1,0.5 Z" id="Shape" sketch:type="MSShapeGroup"></path>
        </g>
        <g id="Rectangle-69-+-+" sketch:type="MSLayerGroup" transform="translate(1.000000, 1.000000)">
            <g id="Rectangle-69">
                <use fill="#AE814A" fill-rule="evenodd" sketch:type="MSShapeGroup" xlink:href="#path-1"></use>
                <use fill="none" xlink:href="#path-1"></use>
            </g>
            <path d="M22.992,16.016 L22.992,14.384 L16.128,14.384 L16.128,7.472 L14.496,7.472 L14.496,14.384 L7.68,14.384 L7.68,16.016 L14.496,16.016 L14.496,23.024 L16.128,23.024 L16.128,16.016 L22.992,16.016 Z" id="+" fill="#FFFFFF" sketch:type="MSShapeGroup"></path>
        </g>
    </g>
</svg>